{
.appVersion = "3208";
.formatVersion = 3;
axes = (
{
name = Grade;
tag = GRAD;
},
{
name = Weight;
tag = wght;
},
{
name = Slant;
tag = slnt;
}
);
classes = (
{
automatic = 1;
code = "A Aacute Acircumflex Adieresis Agrave Aring Atilde B C Ccedilla D Eth E Eacute Ecircumflex Edieresis Egrave F G H I Iacute Icircumflex Idieresis Igrave J K L Lslash M N Ntilde O Oacute Ocircumflex Odieresis Ograve Oslash Otilde P Thorn Q R S Scaron T U Uacute Ucircumflex Udieresis Ugrave V W X Y Yacute Ydieresis Z Zcaron Delta Omega";
name = Uppercase;
}
);
customParameters = (
{
name = "Enforce Compatibility Check";
value = 1;
},
{
name = "Family Alignment Zones";
value = (
{
pos = 730;
size = 10;
},
{
pos = 700;
size = 10;
},
{
pos = 490;
size = 10;
},
{
pos = 0;
size = -10;
},
{
pos = -175;
size = -10;
},
{
pos = -250;
size = -10;
}
);
},
{
name = "Use Extension Kerning";
value = 1;
},
{
name = "Variable Font Origin";
value = "BF6BA5B2-0556-42F4-A103-614BEBF16A1A";
},
{
name = "Use Typo Metrics";
value = 1;
},
{
name = "Use Line Breaks";
value = 1;
},
{
name = "gasp Table";
value = {
"20" = 7;
"65535" = 15;
"8" = 10;
};
},
{
name = fsType;
value = (
);
},
{
name = "Write DisplayStrings";
value = 0;
},
{
name = "Write lastChange";
value = 0;
},
{
name = "Instance Preview";
value = (
AaNnGg123
);
},
{
name = "Disable Masters";
value = (
"Display ExtraLight",
"Display Extralight Italic",
"Display Italic",
"Display ExtraBold Italic",
"Text ExtraLight",
"Text Regular",
"Text ExtraBold",
"Text ExtraLight Italic",
"Text Italic",
"Text ExtraBold Italic"
);
}
);
date = "2023-04-12 05:09:11 +0000";
familyName = Sutasoma;
featurePrefixes = (
{
automatic = 1;
code = "languagesystem DFLT dflt;
";
name = Languagesystems;
}
);
features = (
{
automatic = 1;
code = "feature sups;
feature frac;
feature ordn;
";
tag = aalt;
},
{
code = "lookup uppercaseSharpS {
	sub @Uppercase germandbls' by Germandbls;
	sub germandbls' @Uppercase by Germandbls;
} uppercaseSharpS;";
disabled = 1;
tag = calt;
},
{

glyphs = (
{
glyphname = A;
kernLeft = KO_A;
kernRight = KO_A;
layers = (
{
anchors = (
{
name = bottom;
pos = (293,0);
},
{
name = ogonek;
pos = (554,0);
},
{
name = top;
pos = (296,700);
}
);
layerId = m01;
shapes = (
{
closed = 1;
nodes = (
(85,0,l),
(304,684,l),
(276,684,l),
(501,0,l),
(554,0,l),
(317,700,l),
(274,700,l),
(45,0,l)
);
},
{
closed = 1;
nodes = (
(461,202,l),
(461,232,l),
(135,232,l),
(135,202,l)
);
}
);
userData = {
com.hugojourdan.ColorFlow = {
"0" = 0;
"1" = 0;
"10" = 0;
"11" = 0;
"2" = 0;
"3" = 0;
"4" = 0;
"5" = 0;
"6" = 0;
"7" = 0;
"8" = 0;
"9" = 0;
};
};
width = 599;
},
{
anchors = (
{
name = bottom;
pos = (266,0);
},
{
name = ogonek;
pos = (604,0);
},
{
name = top;
pos = (308,700);
}
);
layerId = "FF73925E-1E34-445B-881D-5A7CAAA8E8BE";
shapes = (
{
closed = 1;
nodes = (
(119,0,l),
(287,624,l),
(259,624,l),
(416,0,l),
(604,0,l),
(405,700,l),
(211,700,l),
(11,0,l)
);
},
{
closed = 1;
nodes = (
(403,173,l),
(403,253,l),
(132,253,l),
(132,173,l)
);
}
);
userData = {
com.hugojourdan.ColorFlow = {
"0" = 0;
"1" = 0;
"10" = 0;
"11" = 0;
"2" = 0;
"3" = 0;
"4" = 0;
"5" = 0;
"6" = 0;
"7" = 0;
"8" = 0;
"9" = 0;
};
};
width = 615;
},
{
anchors = (
{
name = bottom;
pos = (280,0);
},
{
name = ogonek;
pos = (573,0);
},
{
name = top;
pos = (301,700);
}
);
layerId = "BF6BA5B2-0556-42F4-A103-614BEBF16A1A";
shapes = (
{
closed = 1;
nodes = (
(92,0,l),
(295,660,l),
(269,660,l),
(468,0,l),
(573,0,l),
(350,700,l),
(264,700,ls),
(256,700,o),
(250,697,o),
(247,688,cs),
(29,0,l)
);
},
{
closed = 1;
nodes = (
(438,193,l),
(438,243,l),
(126,243,l),
(126,193,l)
);
}
);
userData = {
com.hugojourdan.ColorFlow = {
"0" = 0;
"1" = 0;
"10" = 0;
"11" = 0;
"2" = 0;
"3" = 0;
"4" = 0;
"5" = 0;
"6" = 0;
"7" = 0;
"8" = 0;
"9" = 0;
};
};
width = 602;
},
{
anchors = (
{
name = bottom;
pos = (255,0);
},
{
name = ogonek;
pos = (514,0);
},
{
name = top;
pos = (380,700);
}
);
layerId = "D2741A44-CB8E-4434-9CC9-735A9A127F4C";
shapes = (
{
closed = 1;
nodes = (
(46,0,l),
(388,684,l),
(358,684,l),
(463,0,l),
(514,0,l),
(401,700,l),
(358,700,l),
(5,0,l)
);
},
{
closed = 1;
nodes = (
(443,202,l),
(438,232,l),
(148,232,l),
(133,202,l)
);
}
);
userData = {
com.hugojourdan.ColorFlow = {
"0" = 0;
"1" = 0;
"10" = 0;
"11" = 0;
"2" = 0;
"3" = 0;
"4" = 0;
"5" = 0;
"6" = 0;
"7" = 0;
"8" = 0;
"9" = 0;
};
};
width = 599;
},
{
anchors = (
{
name = bottom;
pos = (241,0);
},
{
name = ogonek;
pos = (532,0);
},
{
name = top;
pos = (383,700);
}
);
layerId = "0B63B416-D10E-4459-8DAA-360BF3D1BFD2";
shapes = (
{
closed = 1;
nodes = (
(53,0,l),
(373,660,l),
(345,660,l),
(429,0,l),
(532,0,l),
(432,700,l),
(333,700,l),
(-12,0,l)
);
},
{
closed = 1;
nodes = (
(427,193,l),
(436,243,l),
(129,243,l),
(120,193,l)
);
}
);
userData = {
com.hugojourdan.ColorFlow = {
"0" = 0;
"1" = 0;
"10" = 0;
"11" = 0;
"2" = 0;
"3" = 0;
"4" = 0;
"5" = 0;
"6" = 0;
"7" = 0;
"8" = 0;
"9" = 0;
};
};
width = 602;
},
{
anchors = (
{
name = bottom;
pos = (228,0);
},
{
name = ogonek;
pos = (562,0);
},
{
name = top;
pos = (388,700);
}
);
layerId = "EE3858F4-A475-4EBA-A8F4-31CE9F38567C";
shapes = (
{
closed = 1;
nodes = (
(77,0,l),
(352,624,l),
(329,624,l),
(379,0,l),
(562,0,l),
(485,700,l),
(291,700,l),
(-31,0,l)
);
},
{
closed = 1;
nodes = (
(394,173,l),
(414,253,l),
(143,253,l),
(123,173,l)
);
}
);
userData = {
com.hugojourdan.ColorFlow = {
"0" = 0;
"1" = 0;
"10" = 0;
"11" = 0;
"2" = 0;
"3" = 0;
"4" = 0;
"5" = 0;
"6" = 0;
"7" = 0;
"8" = 0;
"9" = 0;
};
};
width = 615;
}
);
metricLeft = "=V";
metricRight = "=|";
note = A;
unicode = 65;
},
{
glyphname = B;
kernLeft = KO_H;
kernRight = KO_B;
layers = (
{
layerId = m01;
shapes = (
{
closed = 1;
nodes = (
(300,0,ls),
(444,0,o),
(525,69,o),
(525,192,cs),
(525,306,o),
(455,372,o),
(329,376,c),
(335,367,l),
(432,377,o),
(487,436,o),
(487,532,cs),
(487,640,o),
(407,700,o),
(264,700,cs),
(96,700,l),
(96,0,l)
);
},
{
closed = 1;
nodes = (
(144,687,l),
(124,668,l),
(269,668,ls),
(378,668,o),
(439,617,o),
(439,526,cs),
(439,435,o),
(378,384,o),
(269,384,cs),
(120,384,l),
(120,352,l),
(286,352,ls),
(406,352,o),
(473,295,o),
(473,192,cs),
(473,89,o),
(406,32,o),
(286,32,cs),
(124,32,l),
(144,12,l)
);
}
);
userData = {
com.hugojourdan.ColorFlow = {
"0" = 0;
"1" = 0;
"10" = 0;
"11" = 0;
"2" = 0;
"3" = 0;
"4" = 0;
"5" = 0;
"6" = 0;
"7" = 0;
"8" = 0;
"9" = 0;
};
};
width = 602;
},
{
layerId = "FF73925E-1E34-445B-881D-5A7CAAA8E8BE";
shapes = (
{
closed = 1;
nodes = (
(308,0,ls),
(507,0,o),
(606,70,o),
(606,209,cs),
(606,336,o),
(532,391,o),
(360,391,c),
(366,376,l),
(510,376,o),
(580,424,o),
(580,522,cs),
(580,646,o),
(494,700,o),
(298,700,cs),
(52,700,l),
(52,0,l)
);
},
{
closed = 1;
nodes = (
(230,651,l),
(189,614,l),
(280,614,ls),
(358,614,o),
(397,581,o),
(397,514,cs),
(397,448,o),
(358,414,o),
(280,414,cs),
(140,414,l),
(140,334,l),
(283,334,ls),
(375,334,o),
(420,293,o),
(420,210,cs),
(420,126,o),
(375,86,o),
(283,86,cs),
(188,86,l),
(230,48,l)
);
}
);
userData = {
com.hugojourdan.ColorFlow = {
"0" = 0;
"1" = 0;
"10" = 0;
"11" = 0;
"2" = 0;
"3" = 0;
"4" = 0;
"5" = 0;
"6" = 0;
"7" = 0;
"8" = 0;
"9" = 0;
};
};
width = 649;
},
{
layerId = "BF6BA5B2-0556-42F4-A103-614BEBF16A1A";
shapes = (
{
closed = 1;
nodes = (
(339,0,ls),
(502,0,o),
(587,68,o),
(587,197,cs),
(587,308,o),
(524,367,o),
(398,376,c),
(398,365,l),
(500,379,o),
(555,438,o),
(555,534,cs),
(555,641,o),
(469,700,o),
(313,700,cs),
(91,700,l),
(91,0,l)
);
},
{
closed = 1;
nodes = (
(189,669,l),
(173,653,l),
(293,653,ls),
(408,653,o),
(452,619,o),
(452,530,cs),
(452,438,o),
(404,391,o),
(310,391,cs),
(140,391,l),
(140,345,l),
(311,345,ls),
(427,345,o),
(483,294,o),
(483,190,cs),
(483,91,o),
(432,47,o),
(317,47,cs),
(172,47,l),
(189,30,l)
);
}
);
userData = {
com.hugojourdan.ColorFlow = {
"0" = 0;
"1" = 0;
"10" = 0;
"11" = 0;
"2" = 0;
"3" = 0;
"4" = 0;
"5" = 0;
"6" = 0;
"7" = 0;
"8" = 0;
"9" = 0;
};
};
width = 646;
},
{
layerId = "D2741A44-CB8E-4434-9CC9-735A9A127F4C";
shapes = (
{
closed = 1;
nodes = (
(284,0,ls),
(424,0,o),
(516,81,o),
(516,205,cs),
(516,301,o),
(463,356,o),
(349,378,c),
(353,363,l),
(460,366,o),
(535,440,o),
(535,541,cs),
(535,643,o),
(455,700,o),
(312,700,cs),
(173,700,l),
(56,0,l)
);
},
{
closed = 1;
nodes = (
(219,687,l),
(197,668,l),
(317,668,ls),
(431,668,o),
(487,625,o),
(487,539,cs),
(487,445,o),
(421,384,o),
(317,384,cs),
(149,384,l),
(142,352,l),
(283,352,ls),
(401,352,o),
(464,299,o),
(464,202,cs),
(464,98,o),
(388,32,o),
(270,32,cs),
(89,32,l),
(106,12,l)
);
}
);
userData = {
com.hugojourdan.ColorFlow = {
"0" = 0;
"1" = 0;
"10" = 0;
"11" = 0;
"2" = 0;
"3" = 0;
"4" = 0;
"5" = 0;
"6" = 0;
"7" = 0;
"8" = 0;
"9" = 0;
};
};
width = 602;
},
{
layerId = "0B63B416-D10E-4459-8DAA-360BF3D1BFD2";
shapes = (
{
closed = 1;
nodes = (
(299,0,ls),
(454,0,o),
(547,82,o),
(547,215,cs),
(547,312,o),
(489,364,o),
(362,382,c),
(382,366,l),
(497,368,o),
(570,434,o),
(570,537,cs),
(570,642,o),
(487,700,o),
(336,700,cs),
(154,700,l),
(37,0,l)
);
},
{
closed = 1;
nodes = (
(247,669,l),
(221,653,l),
(326,653,ls),
(418,653,o),
(467,612,o),
(467,535,cs),
(467,446,o),
(412,391,o),
(321,391,cs),
(154,391,l),
(145,345,l),
(291,345,ls),
(390,345,o),
(444,298,o),
(444,213,cs),
(444,113,o),
(380,47,o),
(281,47,cs),
(119,47,l),
(140,30,l)
);
}
);
userData = {
com.hugojourdan.ColorFlow = {
"0" = 0;
"1" = 0;
"10" = 0;
"11" = 0;
"2" = 0;
"3" = 0;
"4" = 0;
"5" = 0;
"6" = 0;
"7" = 0;
"8" = 0;
"9" = 0;
};
};
width = 615;
},
{
layerId = "EE3858F4-A475-4EBA-A8F4-31CE9F38567C";
shapes = (
{
closed = 1;
nodes = (
(307,0,ls),
(483,0,o),
(580,84,o),
(580,231,cs),
(580,328,o),
(515,376,o),
(366,389,c),
(412,371,l),
(540,371,o),
(607,429,o),
(607,539,cs),
(607,644,o),
(519,700,o),
(356,700,cs),
(127,700,l),
(10,0,l)
);
},
{
closed = 1;
nodes = (
(297,651,l),
(254,614,l),
(325,614,ls),
(387,614,o),
(424,584,o),
(424,533,cs),
(424,459,o),
(382,414,o),
(311,414,cs),
(157,414,l),
(144,334,l),
(281,334,ls),
(354,334,o),
(396,297,o),
(396,234,cs),
(396,141,o),
(346,86,o),
(263,86,cs),
(158,86,l),
(196,48,l)
);
}
);
userData = {
com.hugojourdan.ColorFlow = {
"0" = 0;
"1" = 0;
"10" = 0;
"11" = 0;
"2" = 0;
"3" = 0;
"4" = 0;
"5" = 0;
"6" = 0;
"7" = 0;
"8" = 0;
"9" = 0;
};
};
width = 631;
}
);
metricLeft = "=H";
metricRight = "=O*1.02";
note = B;
unicode = 66;
},
{
glyphname = C;
kernLeft = KO_O;
kernRight = KO_C;
layers = (
{
anchors = (
{
name = bottom;
pos = (349,0);
},
{
name = top;
pos = (349,700);
}
);
layerId = m01;
shapes = (
{
closed = 1;
nodes = (
(422,-10,o),
(495,16,o),
(542,69,c),
(503,98,l),
(476,52,o),
(413,22,o),
(348,22,cs),
(208,22,o),
(128,140,o),
(128,350,cs),
(128,560,o),
(208,678,o),
(348,678,cs),
(413,678,o),
(476,648,o),
(503,602,c),
(536,637,l),
(489,686,o),
(419,710,o),
(350,710,cs),
(174,710,o),
(75,581,o),
(75,350,cs),
(75,119,o),
(174,-10,o),
(350,-10,cs)
);
}
);
userData = {
com.hugojourdan.ColorFlow = {
"0" = 0;
"1" = 0;
"10" = 0;
"11" = 0;
"2" = 0;
"3" = 0;
"4" = 0;
"5" = 0;
"6" = 0;
"7" = 0;
"8" = 0;
"9" = 0;
};
};
width = 595;
},
{
anchors = (
{
name = bottom;
pos = (354,0);
},
{
name = top;
pos = (354,700);
}
);
guides = (
{
angle = 16.837;
pos = (548,501);
},
{
angle = -16.837;
pos = (568,197);
}
);
layerId = "FF73925E-1E34-445B-881D-5A7CAAA8E8BE";
shapes = (
{
closed = 1;
nodes = (
(497,-10,o),
(582,47,o),
(634,177,c),
(488,221,l),
(460,118,o),
(418,84,o),
(369,84,cs),
(283,84,o),
(230,188,o),
(230,355,cs),
(230,518,o),
(277,616,o),
(356,616,cs),
(415,616,o),
(447,579,o),
(475,479,c),
(621,523,l),
(581,647,o),
(490,710,o),
(352,710,cs),
(157,710,o),
(42,576,o),
(42,349,cs),
(42,122,o),
(157,-10,o),
(356,-10,cs)
);
}
);
userData = {
com.hugojourdan.ColorFlow = {
"0" = 0;
"1" = 0;
"10" = 0;
"11" = 0;
"2" = 0;
"3" = 0;
"4" = 0;
"5" = 0;
"6" = 0;
"7" = 0;
"8" = 0;
"9" = 0;
};
};
width = 663;
},
{
anchors = (
{
name = bottom;
pos = (346,0);
},
{
name = top;
pos = (357,700);
}
);
background = {
shapes = (
{
pos = (9,0);
ref = O;
}
);
};
guides = (
{
angle = -16.837;
pos = (609,157);
},
{
angle = 16.837;
pos = (564,528);
}
);
layerId = "BF6BA5B2-0556-42F4-A103-614BEBF16A1A";
shapes = (
{
closed = 1;
nodes = (
(481,-10,o),
(571,48,o),
(609,157,c),
(514,186,l),
(485,83,o),
(438,42,o),
(350,42,cs),
(232,42,o),
(163,156,o),
(163,350,cs),
(163,544,o),
(235,658,o),
(357,658,cs),
(436,658,o),
(484,612,o),
(511,512,c),
(604,540,l),
(568,650,o),
(480,710,o),
(356,710,cs),
(174,710,o),
(58,569,o),
(58,350,cs),
(58,129,o),
(171,-10,o),
(349,-10,cs)
);
}
);
userData = {
com.hugojourdan.ColorFlow = {
"0" = 0;
"1" = 0;
"10" = 0;
"11" = 0;
"2" = 0;
"3" = 0;
"4" = 0;
"5" = 0;
"6" = 0;
"7" = 0;
"8" = 0;
"9" = 0;
};
};
width = 650;
},
{
anchors = (
{
name = bottom;
pos = (283,0);
},
{
name = top;
pos = (404,700);
}
);
layerId = "D2741A44-CB8E-4434-9CC9-735A9A127F4C";
shapes = (
{
closed = 1;
nodes = (
(394,-10,o),
(461,11,o),
(511,54,c),
(477,86,l),
(446,46,o),
(389,22,o),
(332,22,cs),
(207,22,o),
(139,108,o),
(139,260,cs),
(139,409,o),
(201,678,o),
(402,678,cs),
(475,678,o),
(540,640,o),
(561,588,c),
(599,620,l),
(557,682,o),
(479,710,o),
(404,710,cs),
(156,710,o),
(88,423,o),
(88,264,cs),
(88,92,o),
(171,-10,o),
(330,-10,cs)
);
}
);
userData = {
com.hugojourdan.ColorFlow = {
"0" = 0;
"1" = 0;
"10" = 0;
"11" = 0;
"2" = 0;
"3" = 0;
"4" = 0;
"5" = 0;
"6" = 0;
"7" = 0;
"8" = 0;
"9" = 0;
};
};
width = 595;
},
{
anchors = (
{
name = bottom;
pos = (294,0);
},
{
name = top;
pos = (410,700);
}
);
layerId = "0B63B416-D10E-4459-8DAA-360BF3D1BFD2";
shapes = (
{
closed = 1;
nodes = (
(414,-10,o),
(509,33,o),
(548,95,c),
(471,133,l),
(441,78,o),
(381,42,o),
(319,42,cs),
(225,42,o),
(172,119,o),
(172,254,cs),
(172,475,o),
(276,658,o),
(407,658,cs),
(468,658,o),
(526,611,o),
(538,547,c),
(624,571,l),
(605,649,o),
(512,710,o),
(407,710,cs),
(217,710,o),
(72,525,o),
(72,277,cs),
(72,98,o),
(164,-10,o),
(317,-10,cs)
);
}
);
userData = {
com.hugojourdan.ColorFlow = {
"0" = 0;
"1" = 0;
"10" = 0;
"11" = 0;
"2" = 0;
"3" = 0;
"4" = 0;
"5" = 0;
"6" = 0;
"7" = 0;
"8" = 0;
"9" = 0;
};
};
width = 614;
},
{
anchors = (
{
name = bottom;
pos = (303,0);
},
{
name = top;
pos = (407,700);
}
);
layerId = "EE3858F4-A475-4EBA-A8F4-31CE9F38567C";
shapes = (
{
closed = 1;
nodes = (
(442,-10,o),
(530,28,o),
(589,99,c),
(476,199,l),
(426,116,o),
(382,80,o),
(336,80,cs),
(274,80,o),
(237,143,o),
(237,243,cs),
(237,353,o),
(281,616,o),
(403,616,cs),
(453,616,o),
(482,570,o),
(496,485,c),
(647,524,l),
(619,655,o),
(513,710,o),
(398,710,cs),
(168,710,o),
(56,486,o),
(56,287,cs),
(56,78,o),
(175,-10,o),
(336,-10,cs)
);
}
);
userData = {
com.hugojourdan.ColorFlow = {
"0" = 0;
"1" = 0;
"10" = 0;
"11" = 0;
"2" = 0;
"3" = 0;
"4" = 0;
"5" = 0;
"6" = 0;
"7" = 0;
"8" = 0;
"9" = 0;
};
};
width = 643;
},
{
associatedMasterId = "BF6BA5B2-0556-42F4-A103-614BEBF16A1A";
background = {
shapes = (
{
pos = (9,0);
ref = O;
}
);
};
guides = (
{
angle = -16.837;
pos = (550,130);
},
{
angle = 16.837;
pos = (564,528);
}
);
layerId = "FB3250B6-7B75-4317-9B4D-9265DB8D97C4";
name = "10 Aug 23 11.59 AM";
userData = {
com.hugojourdan.ColorFlow = {
"0" = 0;
"1" = 0;
"10" = 0;
"11" = 0;
"2" = 0;
"3" = 0;
"4" = 0;
"5" = 0;
"6" = 0;
"7" = 0;
"8" = 0;
"9" = 0;
};
};
width = 640;
}
);
metricLeft = "=O";
metricRight = "=|*0.7";
note = C;
unicode = 67;
userData = {
KernOnName = C;
};
},
{
glyphname = D;
kernLeft = KO_H;
kernRight = KO_O;
layers = (
{
anchors = (
{
name = bottom;
pos = (281,0);
},
{
name = top;
pos = (282,700);
}
);
layerId = m01;
shapes = (
{
closed = 1;
nodes = (
(266,0,ls),
(469,0,o),
(574,119,o),
(574,350,cs),
(574,581,o),
(470,700,o),
(270,700,cs),
(96,700,l),
(96,0,l)
);
},
{
closed = 1;
nodes = (
(144,687,l),
(125,668,l),
(261,668,ls),
(434,668,o),
(521,562,o),
(521,350,cs),
(521,139,o),
(436,32,o),
(269,32,cs),
(124,32,l),
(144,12,l)
);
}
);
userData = {
com.hugojourdan.ColorFlow = {
"0" = 0;
"1" = 0;
"10" = 0;
"11" = 0;
"2" = 0;
"3" = 0;
"4" = 0;
"5" = 0;
"6" = 0;
"7" = 0;
"8" = 0;
"9" = 0;
};
};
width = 649;
},
{
anchors = (
{
name = bottom;
pos = (298,0);
},
{
name = top;
pos = (298,700);
}
);
layerId = "FF73925E-1E34-445B-881D-5A7CAAA8E8BE";
shapes = (
{
closed = 1;
nodes = (
(286,0,ls),
(522,0,o),
(639,116,o),
(639,350,cs),
(639,584,o),
(522,700,o),
(286,700,cs),
(52,700,l),
(52,0,l)
);
},
{
closed = 1;
nodes = (
(230,651,l),
(189,614,l),
(301,614,ls),
(401,614,o),
(451,527,o),
(451,350,cs),
(451,174,o),
(401,86,o),
(301,86,cs),
(189,86,l),
(230,48,l)
);
}
);
userData = {
com.hugojourdan.ColorFlow = {
"0" = 0;
"1" = 0;
"10" = 0;
"11" = 0;
"2" = 0;
"3" = 0;
"4" = 0;
"5" = 0;
"6" = 0;
"7" = 0;
"8" = 0;
"9" = 0;
};
};
width = 681;
},
{
anchors = (
{
name = bottom;
pos = (293,0);
},
{
name = top;
pos = (293,700);
}
);
layerId = "BF6BA5B2-0556-42F4-A103-614BEBF16A1A";
shapes = (
{
closed = 1;
nodes = (
(291,0,ls),
(489,0,o),
(624,141,o),
(624,350,cs),
(624,559,o),
(489,700,o),
(291,700,cs),
(91,700,l),
(91,0,l)
);
},
{
closed = 1;
nodes = (
(189,669,l),
(172,652,l),
(289,652,ls),
(428,652,o),
(519,533,o),
(519,350,cs),
(519,167,o),
(428,48,o),
(289,48,cs),
(171,48,l),
(189,30,l)
);
}
);
userData = {
com.hugojourdan.ColorFlow = {
"0" = 0;
"1" = 0;
"10" = 0;
"11" = 0;
"2" = 0;
"3" = 0;
"4" = 0;
"5" = 0;
"6" = 0;
"7" = 0;
"8" = 0;
"9" = 0;
};
};
width = 682;
},
{
anchors = (
{
name = bottom;
pos = (227,0);
},
{
name = top;
pos = (344,700);
}
);
background = {
shapes = (
{
closed = 0;
nodes = (
(332,668,l),
(474,656,o),
(545,577,o),
(545,429,cs),
(545,399,o),
(542,366,o),
(536,330,cs),
(503,131,o),
(411,32,o),
(264,32,cs)
);
},
{
closed = 0;
nodes = (
(265,0,ls),
(443,0,o),
(553,110,o),
(588,325,cs),
(594,362,o),
(597,396,o),
(597,428,cs),
(597,594,o),
(512,687,o),
(345,700,cs)
);
}
);
};
layerId = "D2741A44-CB8E-4434-9CC9-735A9A127F4C";
shapes = (
{
closed = 1;
nodes = (
(265,0,ls),
(462,0,o),
(596,174,o),
(596,428,cs),
(596,607,o),
(499,700,o),
(313,700,cs),
(173,700,l),
(56,0,l)
);
},
{
closed = 1;
nodes = (
(219,687,l),
(197,668,l),
(300,668,ls),
(462,668,o),
(544,588,o),
(544,429,cs),
(544,196,o),
(428,32,o),
(264,32,cs),
(89,32,l),
(106,12,l)
);
}
);
userData = {
com.hugojourdan.ColorFlow = {
"0" = 0;
"1" = 0;
"10" = 0;
"11" = 0;
"2" = 0;
"3" = 0;
"4" = 0;
"5" = 0;
"6" = 0;
"7" = 0;
"8" = 0;
"9" = 0;
};
};
width = 649;
},
{
anchors = (
{
name = bottom;
pos = (237,0);
},
{
name = top;
pos = (354,700);
}
);
background = {
shapes = (
{
closed = 0;
nodes = (
(251,0,l),
(432,0,o),
(574,126,o),
(606,323,cs),
(610,349,o),
(612,374,o),
(612,398,cs),
(612,567,o),
(507,685,o),
(335,699,cs)
);
},
{
closed = 0;
nodes = (
(325,651,l),
(441,642,o),
(509,551,o),
(509,413,cs),
(509,387,o),
(507,360,o),
(502,331,cs),
(473,157,o),
(373,48,o),
(244,48,cs)
);
}
);
};
guides = (
{
angle = 80.5;
pos = (78,245);
},
{
angle = 80.5;
pos = (176,245);
},
{
angle = 80.5;
pos = (593,245);
},
{
angle = 80.5;
pos = (488,245);
}
);
layerId = "0B63B416-D10E-4459-8DAA-360BF3D1BFD2";
shapes = (
{
closed = 1;
nodes = (
(251,0,ls),
(459,0,o),
(612,169,o),
(612,398,cs),
(612,584,o),
(491,700,o),
(297,700,cs),
(154,700,l),
(37,0,l)
);
},
{
closed = 1;
nodes = (
(247,669,l),
(227,652,l),
(305,652,ls),
(432,652,o),
(509,562,o),
(509,413,cs),
(509,208,o),
(393,48,o),
(244,48,cs),
(125,48,l),
(140,30,l)
);
}
);
userData = {
com.hugojourdan.ColorFlow = {
"0" = 0;
"1" = 0;
"10" = 0;
"11" = 0;
"2" = 0;
"3" = 0;
"4" = 0;
"5" = 0;
"6" = 0;
"7" = 0;
"8" = 0;
"9" = 0;
};
};
width = 651;
},
{
anchors = (
{
name = bottom;
pos = (254,0);
},
{
name = top;
pos = (371,700);
}
);
background = {
shapes = (
{
closed = 0;
nodes = (
(280,1,l),
(480,1,o),
(598,107,o),
(633,322,cs),
(639,356,o),
(641,387,o),
(641,416,cs),
(641,590,o),
(541,684,o),
(341,700,cs)
);
},
{
closed = 0;
nodes = (
(342,610,l),
(418,603,o),
(457,547,o),
(457,442,cs),
(457,411,o),
(454,377,o),
(447,338,cs),
(419,173,o),
(360,89,o),
(269,89,cs)
);
}
);
};
guides = (
{
angle = 80.5;
pos = (52,251);
},
{
angle = 80.5;
pos = (621,251);
},
{
angle = 80.5;
pos = (433,251);
}
);
layerId = "EE3858F4-A475-4EBA-A8F4-31CE9F38567C";
shapes = (
{
closed = 1;
nodes = (
(280,0,ls),
(562,0,o),
(638,225,o),
(638,401,cs),
(638,593,o),
(541,700,o),
(296,700,cs),
(127,700,l),
(10,0,l)
);
},
{
closed = 1;
nodes = (
(297,651,l),
(249,614,l),
(331,614,ls),
(417,614,o),
(456,550,o),
(456,437,cs),
(456,332,o),
(421,86,o),
(269,86,cs),
(162,86,l),
(196,48,l)
);
}
);
userData = {
com.hugojourdan.ColorFlow = {
"0" = 0;
"1" = 0;
"10" = 0;
"11" = 0;
"2" = 0;
"3" = 0;
"4" = 0;
"5" = 0;
"6" = 0;
"7" = 0;
"8" = 0;
"9" = 0;
};
};
width = 663;
}
);
metricLeft = "=H";
metricRight = "=O";
note = D;
unicode = 68;
},
{
glyphname = Eth;
kernRight = KO_O;
layers = (
{
layerId = m01;
shapes = (
{
closed = 1;
nodes = (
(294,334,l),
(294,366,l),
(33,366,l),
(33,334,l)
);
}
);
userData = {
com.hugojourdan.ColorFlow = {
"0" = 0;
"1" = 0;
"10" = 0;
"11" = 0;
"2" = 0;
"3" = 0;
"4" = 0;
"5" = 0;
"6" = 0;
"7" = 0;
"8" = 0;
"9" = 0;
};
};
width = 649;
},
{
layerId = "BF6BA5B2-0556-42F4-A103-614BEBF16A1A";
shapes = (
{
closed = 1;
nodes = (
(310,324,l),
(310,376,l),
(17,376,l),
(17,324,l)
);
}
);
userData = {
com.hugojourdan.ColorFlow = {
"0" = 0;
"1" = 0;
"10" = 0;
"11" = 0;
"2" = 0;
"3" = 0;
"4" = 0;
"5" = 0;
"6" = 0;
"7" = 0;
"8" = 0;
"9" = 0;
};
};
width = 651;
},
{
layerId = "FF73925E-1E34-445B-881D-5A7CAAA8E8BE";
shapes = (
{
closed = 1;
nodes = (
(336,305,l),
(336,395,l),
(-9,395,l),
(-9,305,l)
);
}
);
userData = {
com.hugojourdan.ColorFlow = {
"0" = 0;
"1" = 0;
"10" = 0;
"11" = 0;
"2" = 0;
"3" = 0;
"4" = 0;
"5" = 0;
"6" = 0;
"7" = 0;
"8" = 0;
"9" = 0;
};
};
width = 663;
},
{
layerId = "D2741A44-CB8E-4434-9CC9-735A9A127F4C";
shapes = (
{
closed = 1;
nodes = (
(309,329,l),
(316,371,l),
(55,371,l),
(48,329,l)
);
}
);
userData = {
com.hugojourdan.ColorFlow = {
"0" = 0;
"1" = 0;
"10" = 0;
"11" = 0;
"2" = 0;
"3" = 0;
"4" = 0;
"5" = 0;
"6" = 0;
"7" = 0;
"8" = 0;
"9" = 0;
};
};
width = 649;
},
{
layerId = "0B63B416-D10E-4459-8DAA-360BF3D1BFD2";
shapes = (
{
closed = 1;
nodes = (
(324,324,l),
(332,376,l),
(39,376,l),
(30,324,l)
);
}
);
userData = {
com.hugojourdan.ColorFlow = {
"0" = 0;
"1" = 0;
"10" = 0;
"11" = 0;
"2" = 0;
"3" = 0;
"4" = 0;
"5" = 0;
"6" = 0;
"7" = 0;
"8" = 0;
"9" = 0;
};
};
width = 651;
},
{
layerId = "EE3858F4-A475-4EBA-A8F4-31CE9F38567C";
shapes = (
{
closed = 1;
nodes = (
(345,305,l),
(360,395,l),
(15,395,l),
(0,305,l)
);
}
);
userData = {
com.hugojourdan.ColorFlow = {
"0" = 0;
"1" = 0;
"10" = 0;
"11" = 0;
"2" = 0;
"3" = 0;
"4" = 0;
"5" = 0;
"6" = 0;
"7" = 0;
"8" = 0;
"9" = 0;
};
};
width = 663;
}
);
metricRight = "=O";
unicode = 208;
},
{
glyphname = E;
kernLeft = KO_H;
kernRight = KO_E;
layers = (
{
anchors = (
{
name = bottom;
pos = (287,0);
},
{
name = ogonek;
pos = (477,0);
},
{
name = top;
pos = (280,700);
}
);
background = {
anchors = (
{
name = top;
pos = (280,700);
}
);
shapes = (
{
closed = 1;
nodes = (
(477,0,l),
(477,32,l),
(124,32,l),
(144,12,l),
(144,685,l),
(124,668,l),
(467,668,l),
(467,700,l),
(96,700,l),
(96,0,l)
);
},
{
closed = 1;
nodes = (
(444,348,l),
(444,378,l),
(120,378,l),
(120,348,l)
);
}
);
};
layerId = m01;
shapes = (
{
closed = 1;
nodes = (
(477,0,l),
(477,32,l),
(124,32,l),
(144,12,l),
(144,687,l),
(124,668,l),
(467,668,l),
(467,700,l),
(96,700,l),
(96,0,l)
);
},
{
closed = 1;
nodes = (
(444,347,l),
(444,377,l),
(120,377,l),
(120,347,l)
);
}
);
userData = {
com.hugojourdan.ColorFlow = {
"0" = 0;
"1" = 0;
"10" = 0;
"11" = 0;
"2" = 0;
"3" = 0;
"4" = 0;
"5" = 0;
"6" = 0;
"7" = 0;
"8" = 0;
"9" = 0;
};
};
width = 521;
},
{
anchors = (
{
name = bottom;
pos = (278,0);
},
{
name = ogonek;
pos = (521,0);
},
{
name = top;
pos = (268,700);
}
);
layerId = "FF73925E-1E34-445B-881D-5A7CAAA8E8BE";
shapes = (
{
closed = 1;
nodes = (
(521,0,l),
(521,87,l),
(188,87,l),
(230,48,l),
(230,651,l),
(189,614,l),
(511,614,l),
(511,700,l),
(52,700,l),
(52,0,l)
);
},
{
closed = 1;
nodes = (
(488,323,l),
(488,403,l),
(141,403,l),
(141,323,l)
);
}
);
userData = {
com.hugojourdan.ColorFlow = {
"0" = 0;
"1" = 0;
"10" = 0;
"11" = 0;
"2" = 0;
"3" = 0;
"4" = 0;
"5" = 0;
"6" = 0;
"7" = 0;
"8" = 0;
"9" = 0;
};
};
width = 545;
},
{
anchors = (
{
name = bottom;
pos = (295,0);
},
{
name = ogonek;
pos = (517,0);
},
{
name = top;
pos = (289,700);
}
);
layerId = "BF6BA5B2-0556-42F4-A103-614BEBF16A1A";
shapes = (
{
closed = 1;
nodes = (
(517,0,l),
(517,52,l),
(167,52,l),
(189,30,l),
(189,669,l),
(168,648,l),
(505,648,l),
(505,700,l),
(91,700,l),
(91,0,l)
);
},
{
closed = 1;
nodes = (
(484,341,l),
(484,389,l),
(139,389,l),
(139,341,l)
);
}
);
userData = {
com.hugojourdan.ColorFlow = {
"0" = 0;
"1" = 0;
"10" = 0;
"11" = 0;
"2" = 0;
"3" = 0;
"4" = 0;
"5" = 0;
"6" = 0;
"7" = 0;
"8" = 0;
"9" = 0;
};
};
width = 559;
},
{
anchors = (
{
name = bottom;
pos = (247,0);
},
{
name = ogonek;
pos = (437,0);
},
{
name = top;
pos = (357,700);
}
);
guides = (
{
angle = 80.5;
pos = (96,239);
},
{
angle = 80.5;
pos = (144,239);
},
{
angle = 80.5;
pos = (124,239);
}
);
layerId = "D2741A44-CB8E-4434-9CC9-735A9A127F4C";
shapes = (
{
closed = 1;
nodes = (
(437,0,l),
(442,32,l),
(89,32,l),
(106,12,l),
(219,687,l),
(197,668,l),
(539,668,l),
(544,700,l),
(173,700,l),
(56,0,l)
);
},
{
closed = 1;
nodes = (
(462,347,l),
(467,377,l),
(143,377,l),
(138,347,l)
);
}
);
userData = {
com.hugojourdan.ColorFlow = {
"0" = 0;
"1" = 0;
"10" = 0;
"11" = 0;
"2" = 0;
"3" = 0;
"4" = 0;
"5" = 0;
"6" = 0;
"7" = 0;
"8" = 0;
"9" = 0;
};
};
width = 521;
},
{
anchors = (
{
name = bottom;
pos = (241,0);
},
{
name = ogonek;
pos = (445,0);
},
{
name = top;
pos = (352,700);
}
);
guides = (
{
angle = 80.5;
pos = (78,245);
},
{
angle = 80.5;
pos = (176,245);
}
);
layerId = "0B63B416-D10E-4459-8DAA-360BF3D1BFD2";
shapes = (
{
closed = 1;
nodes = (
(445,0,l),
(454,52,l),
(122,52,l),
(140,30,l),
(247,669,l),
(222,648,l),
(541,648,l),
(550,700,l),
(154,700,l),
(37,0,l)
);
},
{
closed = 1;
nodes = (
(469,341,l),
(477,389,l),
(150,389,l),
(142,341,l)
);
}
);
userData = {
com.hugojourdan.ColorFlow = {
"0" = 0;
"1" = 0;
"10" = 0;
"11" = 0;
"2" = 0;
"3" = 0;
"4" = 0;
"5" = 0;
"6" = 0;
"7" = 0;
"8" = 0;
"9" = 0;
};
};
width = 522;
},
{
anchors = (
{
name = bottom;
pos = (236,0);
},
{
name = ogonek;
pos = (461,0);
},
{
name = top;
pos = (343,700);
}
);
guides = (
{
angle = 80.5;
pos = (52,251);
},
{
angle = 80.5;
pos = (230,251);
}
);
layerId = "EE3858F4-A475-4EBA-A8F4-31CE9F38567C";
shapes = (
{
closed = 1;
nodes = (
(461,0,l),
(475,87,l),
(161,87,l),
(196,48,l),
(297,651,l),
(249,614,l),
(554,614,l),
(568,700,l),
(127,700,l),
(10,0,l)
);
},
{
closed = 1;
nodes = (
(482,323,l),
(495,403,l),
(166,403,l),
(153,323,l)
);
}
);
userData = {
com.hugojourdan.ColorFlow = {
"0" = 0;
"1" = 0;
"10" = 0;
"11" = 0;
"2" = 0;
"3" = 0;
"4" = 0;
"5" = 0;
"6" = 0;
"7" = 0;
"8" = 0;
"9" = 0;
};
};
width = 527;
}
);
metricLeft = "=H";
metricRight = "=H*0.46";
note = E;
unicode = 69;
userData = {
KernOnName = E;
};
},
{
glyphname = F;
kernLeft = KO_H;
kernRight = KO_F;
layers = (
{
layerId = m01;
shapes = (
{
closed = 1;
nodes = (
(144,0,l),
(144,687,l),
(125,668,l),
(477,668,l),
(477,700,l),
(96,700,l),
(96,0,l)
);
},
{
closed = 1;
nodes = (
(440,343,l),
(440,373,l),
(120,373,l),
(120,343,l)
);
}
);
userData = {
com.hugojourdan.ColorFlow = {
"0" = 0;
"1" = 0;
"10" = 0;
"11" = 0;
"2" = 0;
"3" = 0;
"4" = 0;
"5" = 0;
"6" = 0;
"7" = 0;
"8" = 0;
"9" = 0;
};
};
width = 517;
},
{
layerId = "FF73925E-1E34-445B-881D-5A7CAAA8E8BE";
shapes = (
{
closed = 1;
nodes = (
(230,0,l),
(230,651,l),
(189,614,l),
(517,614,l),
(517,700,l),
(52,700,l),
(52,0,l)
);
},
{
closed = 1;
nodes = (
(473,325,l),
(473,405,l),
(141,405,l),
(141,325,l)
);
}
);
userData = {
com.hugojourdan.ColorFlow = {
"0" = 0;
"1" = 0;
"10" = 0;
"11" = 0;
"2" = 0;
"3" = 0;
"4" = 0;
"5" = 0;
"6" = 0;
"7" = 0;
"8" = 0;
"9" = 0;
};
};
width = 539;
},
{
layerId = "BF6BA5B2-0556-42F4-A103-614BEBF16A1A";
shapes = (
{
closed = 1;
nodes = (
(189,0,l),
(189,669,l),
(168,648,l),
(517,648,l),
(517,700,l),
(91,700,l),
(91,0,l)
);
},
{
closed = 1;
nodes = (
(478,337,l),
(478,385,l),
(139,385,l),
(139,337,l)
);
}
);
userData = {
com.hugojourdan.ColorFlow = {
"0" = 0;
"1" = 0;
"10" = 0;
"11" = 0;
"2" = 0;
"3" = 0;
"4" = 0;
"5" = 0;
"6" = 0;
"7" = 0;
"8" = 0;
"9" = 0;
};
};
width = 555;
},
{
layerId = "D2741A44-CB8E-4434-9CC9-735A9A127F4C";
shapes = (
{
closed = 1;
nodes = (
(104,0,l),
(219,687,l),
(197,668,l),
(549,668,l),
(554,700,l),
(173,700,l),
(56,0,l)
);
},
{
closed = 1;
nodes = (
(457,343,l),
(462,373,l),
(142,373,l),
(137,343,l)
);
}
);
userData = {
com.hugojourdan.ColorFlow = {
"0" = 0;
"1" = 0;
"10" = 0;
"11" = 0;
"2" = 0;
"3" = 0;
"4" = 0;
"5" = 0;
"6" = 0;
"7" = 0;
"8" = 0;
"9" = 0;
};
};
width = 517;
},
{
layerId = "0B63B416-D10E-4459-8DAA-360BF3D1BFD2";
shapes = (
{
closed = 1;
nodes = (
(135,0,l),
(247,669,l),
(222,648,l),
(553,648,l),
(562,700,l),
(154,700,l),
(37,0,l)
);
},
{
closed = 1;
nodes = (
(462,337,l),
(470,385,l),
(149,385,l),
(141,337,l)
);
}
);
userData = {
com.hugojourdan.ColorFlow = {
"0" = 0;
"1" = 0;
"10" = 0;
"11" = 0;
"2" = 0;
"3" = 0;
"4" = 0;
"5" = 0;
"6" = 0;
"7" = 0;
"8" = 0;
"9" = 0;
};
};
width = 519;
},
{
layerId = "EE3858F4-A475-4EBA-A8F4-31CE9F38567C";
shapes = (
{
closed = 1;
nodes = (
(188,0,l),
(297,651,l),
(249,614,l),
(560,614,l),
(574,700,l),
(127,700,l),
(10,0,l)
);
},
{
closed = 1;
nodes = (
(467,325,l),
(481,405,l),
(167,405,l),
(153,325,l)
);
}
);
userData = {
com.hugojourdan.ColorFlow = {
"0" = 0;
"1" = 0;
"10" = 0;
"11" = 0;
"2" = 0;
"3" = 0;
"4" = 0;
"5" = 0;
"6" = 0;
"7" = 0;
"8" = 0;
"9" = 0;
};
};
width = 521;
}
);
metricLeft = "=H";
metricRight = "=H*0.42";
note = F;
unicode = 70;
},
{
glyphname = G;
kernLeft = KO_O;
kernRight = KO_G;
layers = (
{
anchors = (
{
name = bottom;
pos = (351,0);
},
{
name = top;
pos = (351,700);
}
);
layerId = m01;
shapes = (
{
closed = 1;
nodes = (
(456,-10,o),
(533,45,o),
(550,138,c),
(533,138,l),
(533,0,l),
(571,0,l),
(571,344,l),
(356,344,l),
(356,312,l),
(552,307,l),
(523,334,l),
(523,187,ls),
(523,84,o),
(460,22,o),
(353,22,cs),
(209,22,o),
(128,141,o),
(128,350,cs),
(128,558,o),
(209,678,o),
(349,678,cs),
(421,678,o),
(486,648,o),
(515,602,c),
(548,637,l),
(501,684,o),
(430,710,o),
(350,710,cs),
(175,710,o),
(75,579,o),
(75,350,cs),
(75,123,o),
(174,-10,o),
(343,-10,cs)
);
}
);
userData = {
com.hugojourdan.ColorFlow = {
"0" = 0;
"1" = 0;
"10" = 0;
"11" = 0;
"2" = 0;
"3" = 0;
"4" = 0;
"5" = 0;
"6" = 0;
"7" = 0;
"8" = 0;
"9" = 0;
};
};
width = 654;
},
{
anchors = (
{
name = bottom;
pos = (354,0);
},
{
name = top;
pos = (354,700);
}
);
background = {
shapes = (
{
ref = C;
}
);
};
layerId = "FF73925E-1E34-445B-881D-5A7CAAA8E8BE";
shapes = (
{
closed = 1;
nodes = (
(460,-10,o),
(546,56,o),
(554,160,c),
(531,168,l),
(531,0,l),
(641,0,l),
(641,365,l),
(353,365,l),
(353,298,l),
(519,298,l),
(474,334,l),
(474,231,ls),
(474,146,o),
(437,84,o),
(366,84,cs),
(279,84,o),
(230,182,o),
(230,355,cs),
(230,522,o),
(275,616,o),
(356,616,cs),
(415,616,o),
(446,580,o),
(475,479,c),
(621,523,l),
(581,647,o),
(490,710,o),
(353,710,cs),
(155,710,o),
(42,579,o),
(42,348,cs),
(42,118,o),
(147,-10,o),
(334,-10,cs)
);
}
);
userData = {
com.hugojourdan.ColorFlow = {
"0" = 0;
"1" = 0;
"10" = 0;
"11" = 0;
"2" = 0;
"3" = 0;
"4" = 0;
"5" = 0;
"6" = 0;
"7" = 0;
"8" = 0;
"9" = 0;
};
};
width = 686;
},
{
anchors = (
{
name = bottom;
pos = (368,0);
},
{
name = top;
pos = (368,700);
}
);
background = {
shapes = (
{
ref = C;
}
);
};
layerId = "BF6BA5B2-0556-42F4-A103-614BEBF16A1A";
shapes = (
{
closed = 1;
nodes = (
(473,-10,o),
(547,39,o),
(570,131,c),
(553,135,l),
(553,0,l),
(625,0,l),
(625,352,l),
(363,352,l),
(363,292,l),
(568,292,l),
(531,344,l),
(531,208,ls),
(531,105,o),
(473,42,o),
(379,42,cs),
(244,42,o),
(172,149,o),
(172,347,cs),
(172,541,o),
(244,658,o),
(363,658,cs),
(444,658,o),
(492,614,o),
(520,512,c),
(613,540,l),
(577,650,o),
(488,710,o),
(362,710,cs),
(181,710,o),
(67,569,o),
(67,345,cs),
(67,128,o),
(184,-10,o),
(366,-10,cs)
);
}
);
userData = {
com.hugojourdan.ColorFlow = {
"0" = 0;
"1" = 0;
"10" = 0;
"11" = 0;
"2" = 0;
"3" = 0;
"4" = 0;
"5" = 0;
"6" = 0;
"7" = 0;
"8" = 0;
"9" = 0;
};
};
width = 703;
},
{
anchors = (
{
name = bottom;
pos = (308,0);
},
{
name = top;
pos = (426,700);
}
);
guides = (
{
angle = 80.5;
pos = (75,239);
},
{
angle = 80.5;
pos = (128,239);
},
{
angle = 80.5;
pos = (571,239);
},
{
angle = 80.5;
pos = (533,239);
},
{
angle = 80.5;
pos = (523,239);
},
{
angle = 80.5;
pos = (548,239);
},
{
angle = 80.5;
pos = (356,239);
}
);
layerId = "D2741A44-CB8E-4434-9CC9-735A9A127F4C";
shapes = (
{
closed = 1;
nodes = (
(428,-10,o),
(501,38,o),
(531,121,c),
(514,125,l),
(493,0,l),
(531,0,l),
(589,344,l),
(374,344,l),
(368,311,l),
(553,308,l),
(536,317,l),
(512,173,ls),
(496,77,o),
(433,22,o),
(341,22,cs),
(209,22,o),
(140,109,o),
(140,260,cs),
(140,406,o),
(204,678,o),
(405,678,cs),
(485,678,o),
(551,640,o),
(574,589,c),
(612,621,l),
(570,677,o),
(493,710,o),
(403,710,cs),
(161,710,o),
(88,429,o),
(88,264,cs),
(88,90,o),
(175,-10,o),
(331,-10,cs)
);
}
);
userData = {
com.hugojourdan.ColorFlow = {
"0" = 0;
"1" = 0;
"10" = 0;
"11" = 0;
"2" = 0;
"3" = 0;
"4" = 0;
"5" = 0;
"6" = 0;
"7" = 0;
"8" = 0;
"9" = 0;
};
};
width = 654;
},
{
anchors = (
{
name = bottom;
pos = (309,0);
},
{
name = top;
pos = (427,700);
}
);
guides = (
{
angle = 80.5;
pos = (58,245);
},
{
angle = 80.5;
pos = (598,245);
},
{
angle = 80.5;
pos = (578,245);
},
{
angle = 80.5;
pos = (163,245);
},
{
angle = 80.5;
pos = (504,245);
},
{
angle = 80.5;
pos = (343,245);
},
{
angle = 80.5;
pos = (539,245);
}
);
layerId = "0B63B416-D10E-4459-8DAA-360BF3D1BFD2";
shapes = (
{
closed = 1;
nodes = (
(422,-10,o),
(486,29,o),
(523,115,c),
(518,119,l),
(498,0,l),
(557,0,l),
(616,352,l),
(361,352,l),
(353,307,l),
(532,302,l),
(518,329,l),
(496,197,ls),
(480,100,o),
(423,42,o),
(340,42,cs),
(237,42,o),
(173,125,o),
(173,261,cs),
(173,392,o),
(234,658,o),
(404,658,cs),
(478,658,o),
(535,607,o),
(547,539,c),
(632,568,l),
(610,649,o),
(521,710,o),
(408,710,cs),
(186,710,o),
(72,481,o),
(72,286,cs),
(72,103,o),
(169,-10,o),
(328,-10,cs)
);
}
);
userData = {
com.hugojourdan.ColorFlow = {
"0" = 0;
"1" = 0;
"10" = 0;
"11" = 0;
"2" = 0;
"3" = 0;
"4" = 0;
"5" = 0;
"6" = 0;
"7" = 0;
"8" = 0;
"9" = 0;
};
};
width = 665;
},
{
anchors = (
{
name = bottom;
pos = (297,0);
},
{
name = top;
pos = (415,700);
}
);
layerId = "EE3858F4-A475-4EBA-A8F4-31CE9F38567C";
shapes = (
{
closed = 1;
nodes = (
(421,-10,o),
(493,47,o),
(519,146,c),
(512,155,l),
(486,0,l),
(579,0,l),
(640,365,l),
(352,365,l),
(342,303,l),
(504,298,l),
(467,329,l),
(444,191,ls),
(431,115,o),
(400,80,o),
(348,80,cs),
(278,80,o),
(239,142,o),
(239,249,cs),
(239,358,o),
(280,616,o),
(408,616,cs),
(463,616,o),
(499,568,o),
(509,481,c),
(661,520,l),
(638,649,o),
(533,710,o),
(404,710,cs),
(157,710,o),
(56,483,o),
(56,285,cs),
(56,71,o),
(174,-10,o),
(308,-10,cs)
);
}
);
userData = {
com.hugojourdan.ColorFlow = {
"0" = 0;
"1" = 0;
"10" = 0;
"11" = 0;
"2" = 0;
"3" = 0;
"4" = 0;
"5" = 0;
"6" = 0;
"7" = 0;
"8" = 0;
"9" = 0;
};
};
width = 666;
}
);
metricLeft = "=O";
metricRight = "=H*0.86";
note = G;
unicode = 71;
userData = {
KernOnName = G;
};
},
{
glyphname = H;
kernLeft = KO_H;
kernRight = KO_H;
layers = (
{
anchors = (
{
name = bar;
pos = (338,544);
},
{
name = bottom;
pos = (338,0);
},
{
name = top;
pos = (338,700);
}
);
layerId = m01;
shapes = (
{
closed = 1;
nodes = (
(579,0,l),
(579,700,l),
(531,700,l),
(531,0,l)
);
},
{
closed = 1;
nodes = (
(144,0,l),
(144,700,l),
(96,700,l),
(96,0,l)
);
},
{
closed = 1;
nodes = (
(539,340,l),
(539,372,l),
(136,372,l),
(136,340,l)
);
}
);
userData = {
com.hugojourdan.ColorFlow = {
"0" = 0;
"1" = 0;
"10" = 0;
"11" = 0;
"2" = 0;
"3" = 0;
"4" = 0;
"5" = 0;
"6" = 0;
"7" = 0;
"8" = 0;
"9" = 0;
};
};
width = 675;
},
{
anchors = (
{
name = bar;
pos = (348,568);
},
{
name = bottom;
pos = (348,0);
},
{
name = top;
pos = (348,700);
}
);
layerId = "FF73925E-1E34-445B-881D-5A7CAAA8E8BE";
shapes = (
{
closed = 1;
nodes = (
(644,0,l),
(644,700,l),
(466,700,l),
(466,0,l)
);
},
{
closed = 1;
nodes = (
(230,0,l),
(230,700,l),
(52,700,l),
(52,0,l)
);
},
{
closed = 1;
nodes = (
(482,310,l),
(482,400,l),
(214,400,l),
(214,310,l)
);
}
);
userData = {
com.hugojourdan.ColorFlow = {
"0" = 0;
"1" = 0;
"10" = 0;
"11" = 0;
"2" = 0;
"3" = 0;
"4" = 0;
"5" = 0;
"6" = 0;
"7" = 0;
"8" = 0;
"9" = 0;
};
};
width = 696;
},
{
anchors = (
{
name = bar;
pos = (359,544);
},
{
name = bottom;
pos = (359,0);
},
{
name = top;
pos = (359,700);
}
);
layerId = "BF6BA5B2-0556-42F4-A103-614BEBF16A1A";
shapes = (
{
closed = 1;
nodes = (
(627,0,l),
(627,700,l),
(549,700,ls),
(535,700,o),
(529,694,o),
(529,680,cs),
(529,0,l)
);
},
{
closed = 1;
nodes = (
(189,0,l),
(189,700,l),
(111,700,ls),
(97,700,o),
(91,694,o),
(91,680,cs),
(91,0,l)
);
},
{
closed = 1;
nodes = (
(543,329,l),
(543,381,l),
(175,381,l),
(175,329,l)
);
}
);
userData = {
com.hugojourdan.ColorFlow = {
"0" = 0;
"1" = 0;
"10" = 0;
"11" = 0;
"2" = 0;
"3" = 0;
"4" = 0;
"5" = 0;
"6" = 0;
"7" = 0;
"8" = 0;
"9" = 0;
};
};
width = 718;
},
{
anchors = (
{
name = bar;
pos = (388,544);
},
{
name = bottom;
pos = (297,0);
},
{
name = top;
pos = (415,700);
}
);
layerId = "D2741A44-CB8E-4434-9CC9-735A9A127F4C";
shapes = (
{
closed = 1;
nodes = (
(539,0,l),
(656,700,l),
(608,700,l),
(491,0,l)
);
},
{
closed = 1;
nodes = (
(104,0,l),
(221,700,l),
(173,700,l),
(56,0,l)
);
},
{
closed = 1;
nodes = (
(556,340,l),
(561,372,l),
(158,372,l),
(153,340,l)
);
}
);
userData = {
com.hugojourdan.ColorFlow = {
"0" = 0;
"1" = 0;
"10" = 0;
"11" = 0;
"2" = 0;
"3" = 0;
"4" = 0;
"5" = 0;
"6" = 0;
"7" = 0;
"8" = 0;
"9" = 0;
};
};
width = 675;
},
{
anchors = (
{
name = bar;
pos = (387,544);
},
{
name = bottom;
pos = (296,0);
},
{
name = top;
pos = (413,700);
}
);
layerId = "0B63B416-D10E-4459-8DAA-360BF3D1BFD2";
shapes = (
{
closed = 1;
nodes = (
(555,0,l),
(672,700,l),
(574,700,l),
(457,0,l)
);
},
{
closed = 1;
nodes = (
(135,0,l),
(252,700,l),
(154,700,l),
(37,0,l)
);
},
{
closed = 1;
nodes = (
(526,329,l),
(535,381,l),
(185,381,l),
(176,329,l)
);
}
);
userData = {
com.hugojourdan.ColorFlow = {
"0" = 0;
"1" = 0;
"10" = 0;
"11" = 0;
"2" = 0;
"3" = 0;
"4" = 0;
"5" = 0;
"6" = 0;
"7" = 0;
"8" = 0;
"9" = 0;
};
};
width = 674;
},
{
anchors = (
{
name = bar;
pos = (392,568);
},
{
name = bottom;
pos = (297,0);
},
{
name = top;
pos = (414,700);
}
);
layerId = "EE3858F4-A475-4EBA-A8F4-31CE9F38567C";
shapes = (
{
closed = 1;
nodes = (
(584,0,l),
(701,700,l),
(523,700,l),
(406,0,l)
);
},
{
closed = 1;
nodes = (
(188,0,l),
(305,700,l),
(127,700,l),
(10,0,l)
);
},
{
closed = 1;
nodes = (
(474,310,l),
(489,400,l),
(239,400,l),
(224,310,l)
);
}
);
userData = {
com.hugojourdan.ColorFlow = {
"0" = 0;
"1" = 0;
"10" = 0;
"11" = 0;
"2" = 0;
"3" = 0;
"4" = 0;
"5" = 0;
"6" = 0;
"7" = 0;
"8" = 0;
"9" = 0;
};
};
width = 678;
}
);
metricLeft = "=n+10*1.24";
metricRight = "=|";
note = H;
unicode = 72;
userData = {
KernOnName = H;
};
},
{
glyphname = I;
kernLeft = KO_H;
kernRight = KO_H;
layers = (
{
anchors = (
{
name = bottom;
pos = (120,0);
},
{
name = ogonek;
pos = (144,0);
},
{
name = top;
pos = (120,700);
}
);
layerId = m01;
shapes = (
{
closed = 1;
nodes = (
(144,0,l),
(144,700,l),
(96,700,l),
(96,0,l)
);
}
);
userData = {
com.hugojourdan.ColorFlow = {
"0" = 0;
"1" = 0;
"10" = 0;
"11" = 0;
"2" = 0;
"3" = 0;
"4" = 0;
"5" = 0;
"6" = 0;
"7" = 0;
"8" = 0;
"9" = 0;
};
};
width = 240;
},
{
anchors = (
{
name = bottom;
pos = (141,0);
},
{
name = ogonek;
pos = (230,0);
},
{
name = top;
pos = (141,700);
}
);
layerId = "FF73925E-1E34-445B-881D-5A7CAAA8E8BE";
shapes = (
{
closed = 1;
nodes = (
(230,0,l),
(230,700,l),
(52,700,l),
(52,0,l)
);
}
);
userData = {
com.hugojourdan.ColorFlow = {
"0" = 0;
"1" = 0;
"10" = 0;
"11" = 0;
"2" = 0;
"3" = 0;
"4" = 0;
"5" = 0;
"6" = 0;
"7" = 0;
"8" = 0;
"9" = 0;
};
};
width = 282;
},
{
anchors = (
{
name = bottom;
pos = (127,0);
},
{
name = ogonek;
pos = (176,0);
},
{
name = top;
pos = (127,700);
}
);
layerId = "BF6BA5B2-0556-42F4-A103-614BEBF16A1A";
shapes = (
{
closed = 1;
nodes = (
(176,0,l),
(176,700,l),
(98,700,ls),
(84,700,o),
(78,694,o),
(78,680,cs),
(78,0,l)
);
}
);
userData = {
com.hugojourdan.ColorFlow = {
"0" = 0;
"1" = 0;
"10" = 0;
"11" = 0;
"2" = 0;
"3" = 0;
"4" = 0;
"5" = 0;
"6" = 0;
"7" = 0;
"8" = 0;
"9" = 0;
};
};
width = 254;
},
{
anchors = (
{
name = bottom;
pos = (80,0);
},
{
name = ogonek;
pos = (104,0);
},
{
name = top;
pos = (197,700);
}
);
layerId = "D2741A44-CB8E-4434-9CC9-735A9A127F4C";
shapes = (
{
closed = 1;
nodes = (
(104,0,l),
(221,700,l),
(173,700,l),
(56,0,l)
);
}
);
userData = {
com.hugojourdan.ColorFlow = {
"0" = 0;
"1" = 0;
"10" = 0;
"11" = 0;
"2" = 0;
"3" = 0;
"4" = 0;
"5" = 0;
"6" = 0;
"7" = 0;
"8" = 0;
"9" = 0;
};
};
width = 240;
},
{
anchors = (
{
name = bottom;
pos = (86,0);
},
{
name = ogonek;
pos = (135,0);
},
{
name = top;
pos = (203,700);
}
);
layerId = "0B63B416-D10E-4459-8DAA-360BF3D1BFD2";
shapes = (
{
closed = 1;
nodes = (
(135,0,l),
(252,700,l),
(154,700,l),
(37,0,l)
);
}
);
userData = {
com.hugojourdan.ColorFlow = {
"0" = 0;
"1" = 0;
"10" = 0;
"11" = 0;
"2" = 0;
"3" = 0;
"4" = 0;
"5" = 0;
"6" = 0;
"7" = 0;
"8" = 0;
"9" = 0;
};
};
width = 254;
},
{
anchors = (
{
name = bottom;
pos = (99,0);
},
{
name = ogonek;
pos = (188,0);
},
{
name = top;
pos = (216,700);
}
);
layerId = "EE3858F4-A475-4EBA-A8F4-31CE9F38567C";
shapes = (
{
closed = 1;
nodes = (
(188,0,l),
(305,700,l),
(127,700,l),
(10,0,l)
);
}
);
userData = {
com.hugojourdan.ColorFlow = {
"0" = 0;
"1" = 0;
"10" = 0;
"11" = 0;
"2" = 0;
"3" = 0;
"4" = 0;
"5" = 0;
"6" = 0;
"7" = 0;
"8" = 0;
"9" = 0;
};
};
width = 282;
}
);
metricLeft = "=H";
metricRight = "=|";
note = I;
unicode = 73;
userData = {
KernOnName = I;
};
},
{
glyphname = J;
kernLeft = KO_J;
kernRight = KO_J;
layers = (
{
anchors = (
{
name = top;
pos = (378,700);
}
);
layerId = m01;
shapes = (
{
closed = 1;
nodes = (
(314,-10,o),
(402,55,o),
(402,177,cs),
(402,700,l),
(354,700,l),
(354,170,ls),
(354,78,o),
(289,24,o),
(216,24,cs),
(163,24,o),
(104,53,o),
(65,118,c),
(36,81,l),
(85,20,o),
(153,-10,o),
(218,-10,cs)
);
}
);
userData = {
com.hugojourdan.ColorFlow = {
"0" = 0;
"1" = 0;
"10" = 0;
"11" = 0;
"2" = 0;
"3" = 0;
"4" = 0;
"5" = 0;
"6" = 0;
"7" = 0;
"8" = 0;
"9" = 0;
};
};
width = 486;
},
{
anchors = (
{
name = top;
pos = (446,700);
}
);
layerId = "FF73925E-1E34-445B-881D-5A7CAAA8E8BE";
shapes = (
{
closed = 1;
nodes = (
(445,-10,o),
(535,79,o),
(535,239,cs),
(535,700,l),
(357,700,l),
(357,235,ls),
(357,134,o),
(329,80,o),
(277,80,cs),
(222,80,o),
(198,108,o),
(165,211,c),
(19,166,l),
(66,41,o),
(143,-10,o),
(283,-10,cs)
);
}
);
userData = {
com.hugojourdan.ColorFlow = {
"0" = 0;
"1" = 0;
"10" = 0;
"11" = 0;
"2" = 0;
"3" = 0;
"4" = 0;
"5" = 0;
"6" = 0;
"7" = 0;
"8" = 0;
"9" = 0;
};
};
width = 581;
},
{
anchors = (
{
name = top;
pos = (366,700);
}
);
layerId = "BF6BA5B2-0556-42F4-A103-614BEBF16A1A";
shapes = (
{
closed = 1;
nodes = (
(345,-10,o),
(414,60,o),
(414,183,cs),
(414,700,l),
(317,700,l),
(317,177,ls),
(317,90,o),
(286,41,o),
(230,41,cs),
(172,41,o),
(129,78,o),
(111,145,c),
(29,114,l),
(57,34,o),
(126,-10,o),
(226,-10,cs)
);
}
);
userData = {
com.hugojourdan.ColorFlow = {
"0" = 0;
"1" = 0;
"10" = 0;
"11" = 0;
"2" = 0;
"3" = 0;
"4" = 0;
"5" = 0;
"6" = 0;
"7" = 0;
"8" = 0;
"9" = 0;
};
};
width = 483;
},
{
anchors = (
{
name = top;
pos = (455,700);
}
);
guides = (
{
angle = 80.5;
pos = (354,239);
},
{
angle = 80.5;
pos = (402,239);
}
);
layerId = "D2741A44-CB8E-4434-9CC9-735A9A127F4C";
shapes = (
{
closed = 1;
nodes = (
(293,-10,o),
(372,58,o),
(389,161,cs),
(479,700,l),
(431,700,l),
(341,161,ls),
(327,80,o),
(266,24,o),
(192,24,cs),
(129,24,o),
(73,66,o),
(47,132,c),
(12,97,l),
(52,30,o),
(119,-10,o),
(195,-10,cs)
);
}
);
userData = {
com.hugojourdan.ColorFlow = {
"0" = 0;
"1" = 0;
"10" = 0;
"11" = 0;
"2" = 0;
"3" = 0;
"4" = 0;
"5" = 0;
"6" = 0;
"7" = 0;
"8" = 0;
"9" = 0;
};
};
width = 486;
},
{
anchors = (
{
name = top;
pos = (442,700);
}
);
guides = (
{
angle = 80.5;
pos = (317,245);
},
{
angle = 80.5;
pos = (414,245);
}
);
layerId = "0B63B416-D10E-4459-8DAA-360BF3D1BFD2";
shapes = (
{
closed = 1;
nodes = (
(314,-10,o),
(382,53,o),
(401,167,cs),
(490,700,l),
(393,700,l),
(304,167,ls),
(290,84,o),
(255,41,o),
(200,41,cs),
(143,41,o),
(101,88,o),
(96,155,c),
(10,131,l),
(24,44,o),
(96,-10,o),
(201,-10,cs)
);
}
);
userData = {
com.hugojourdan.ColorFlow = {
"0" = 0;
"1" = 0;
"10" = 0;
"11" = 0;
"2" = 0;
"3" = 0;
"4" = 0;
"5" = 0;
"6" = 0;
"7" = 0;
"8" = 0;
"9" = 0;
};
};
width = 483;
},
{
anchors = (
{
name = top;
pos = (521,700);
}
);
guides = (
{
angle = 80.5;
pos = (357,251);
},
{
angle = 80.5;
pos = (535,251);
}
);
layerId = "EE3858F4-A475-4EBA-A8F4-31CE9F38567C";
shapes = (
{
closed = 1;
nodes = (
(415,-10,o),
(505,69,o),
(529,215,cs),
(610,700,l),
(432,700,l),
(353,227,ls),
(337,131,o),
(304,80,o),
(258,80,cs),
(213,80,o),
(171,132,o),
(143,222,c),
(1,143,l),
(42,49,o),
(145,-10,o),
(270,-10,cs)
);
}
);
userData = {
com.hugojourdan.ColorFlow = {
"0" = 0;
"1" = 0;
"10" = 0;
"11" = 0;
"2" = 0;
"3" = 0;
"4" = 0;
"5" = 0;
"6" = 0;
"7" = 0;
"8" = 0;
"9" = 0;
};
};
width = 581;
}
);
metricLeft = "=T";
metricRight = "=U";
note = J;
unicode = 74;
},
{
glyphname = K;
kernLeft = KO_H;
kernRight = KO_K;
layers = (
{
anchors = (
{
name = bottom;
pos = (340,0);
}
);
layerId = m01;
shapes = (
{
closed = 1;
nodes = (
(258,334,l),
(258,334,l),
(572,700,l),
(526,700,l),
(246,379,l),
(137,362,l),
(137,334,l)
);
},
{
closed = 1;
nodes = (
(144,0,l),
(144,700,l),
(96,700,l),
(96,0,l)
);
},
{
closed = 1;
nodes = (
(597,0,l),
(273,376,l),
(225,367,l),
(536,0,l)
);
}
);
userData = {
com.hugojourdan.ColorFlow = {
"0" = 0;
"1" = 0;
"10" = 0;
"11" = 0;
"2" = 0;
"3" = 0;
"4" = 0;
"5" = 0;
"6" = 0;
"7" = 0;
"8" = 0;
"9" = 0;
};
};
width = 642;
},
{
anchors = (
{
name = bottom;
pos = (340,0);
}
);
layerId = "FF73925E-1E34-445B-881D-5A7CAAA8E8BE";
shapes = (
{
closed = 1;
nodes = (
(445,0,l),
(647,0,l),
(368,405,l),
(627,700,l),
(509,700,l),
(207,352,l)
);
},
{
closed = 1;
nodes = (
(230,0,l),
(230,700,l),
(52,700,l),
(52,0,l)
);
}
);
userData = {
com.hugojourdan.ColorFlow = {
"0" = 0;
"1" = 0;
"10" = 0;
"11" = 0;
"2" = 0;
"3" = 0;
"4" = 0;
"5" = 0;
"6" = 0;
"7" = 0;
"8" = 0;
"9" = 0;
};
};
width = 658;
},
{
anchors = (
{
name = bottom;
pos = (351,0);
}
);
layerId = "BF6BA5B2-0556-42F4-A103-614BEBF16A1A";
shapes = (
{
closed = 1;
nodes = (
(500,0,l),
(628,0,l),
(278,383,l),
(605,700,l),
(530,700,l),
(178,357,l)
);
},
{
closed = 1;
nodes = (
(188,0,l),
(188,700,l),
(91,700,l),
(91,0,l)
);
}
);
userData = {
com.hugojourdan.ColorFlow = {
"0" = 0;
"1" = 0;
"10" = 0;
"11" = 0;
"2" = 0;
"3" = 0;
"4" = 0;
"5" = 0;
"6" = 0;
"7" = 0;
"8" = 0;
"9" = 0;
};
};
width = 657;
},
{
anchors = (
{
name = bottom;
pos = (300,0);
}
);
layerId = "D2741A44-CB8E-4434-9CC9-735A9A127F4C";
shapes = (
{
closed = 1;
nodes = (
(274,334,l),
(274,334,l),
(649,700,l),
(603,700,l),
(269,379,l),
(158,362,l),
(153,334,l)
);
},
{
closed = 1;
nodes = (
(104,0,l),
(221,700,l),
(173,700,l),
(56,0,l)
);
},
{
closed = 1;
nodes = (
(557,0,l),
(296,376,l),
(246,367,l),
(496,0,l)
);
}
);
userData = {
com.hugojourdan.ColorFlow = {
"0" = 0;
"1" = 0;
"10" = 0;
"11" = 0;
"2" = 0;
"3" = 0;
"4" = 0;
"5" = 0;
"6" = 0;
"7" = 0;
"8" = 0;
"9" = 0;
};
};
width = 642;
},
{
anchors = (
{
name = bottom;
pos = (297,0);
}
);
layerId = "0B63B416-D10E-4459-8DAA-360BF3D1BFD2";
shapes = (
{
closed = 1;
nodes = (
(301,324,l),
(301,324,l),
(668,700,l),
(597,700,l),
(295,392,l),
(177,374,l),
(168,324,l)
);
},
{
closed = 1;
nodes = (
(134,0,l),
(251,700,l),
(154,700,l),
(37,0,l)
);
},
{
closed = 1;
nodes = (
(574,0,l),
(348,394,l),
(254,367,l),
(460,0,l)
);
}
);
userData = {
com.hugojourdan.ColorFlow = {
"0" = 0;
"1" = 0;
"10" = 0;
"11" = 0;
"2" = 0;
"3" = 0;
"4" = 0;
"5" = 0;
"6" = 0;
"7" = 0;
"8" = 0;
"9" = 0;
};
};
width = 644;
},
{
anchors = (
{
name = bottom;
pos = (298,0);
}
);
layerId = "EE3858F4-A475-4EBA-A8F4-31CE9F38567C";
shapes = (
{
closed = 1;
nodes = (
(370,322,l),
(370,322,l),
(702,700,l),
(592,700,l),
(343,417,l),
(240,404,l),
(226,322,l)
);
},
{
closed = 1;
nodes = (
(188,0,l),
(305,700,l),
(127,700,l),
(10,0,l)
);
},
{
closed = 1;
nodes = (
(605,0,l),
(436,418,l),
(279,365,l),
(408,0,l)
);
}
);
userData = {
com.hugojourdan.ColorFlow = {
"0" = 0;
"1" = 0;
"10" = 0;
"11" = 0;
"2" = 0;
"3" = 0;
"4" = 0;
"5" = 0;
"6" = 0;
"7" = 0;
"8" = 0;
"9" = 0;
};
};
width = 658;
}
);
metricLeft = "=H";
metricRight = "=V";
note = K;
unicode = 75;
},
{
glyphname = L;
kernLeft = KO_H;
kernRight = KO_L;
layers = (
{
anchors = (
{
name = Slash;
pos = (120,314);
},
{
name = bottom;
pos = (282,0);
},
{
name = caron;
pos = (341,700);
},
{
name = top;
pos = (120,700);
}
);
layerId = m01;
shapes = (
{
closed = 1;
nodes = (
(468,0,l),
(468,32,l),
(144,32,l),
(144,700,l),
(96,700,l),
(96,0,l)
);
}
);
userData = {
com.hugojourdan.ColorFlow = {
"0" = 0;
"1" = 0;
"10" = 0;
"11" = 0;
"2" = 0;
"3" = 0;
"4" = 0;
"5" = 0;
"6" = 0;
"7" = 0;
"8" = 0;
"9" = 0;
};
};
width = 507;
},
{
anchors = (
{
name = Slash;
pos = (141,314);
},
{
name = bottom;
pos = (275,0);
},
{
name = caron;
pos = (317,700);
},
{
name = top;
pos = (141,700);
}
);
layerId = "FF73925E-1E34-445B-881D-5A7CAAA8E8BE";
shapes = (
{
closed = 1;
nodes = (
(498,0,l),
(498,90,l),
(230,90,l),
(230,700,l),
(52,700,l),
(52,0,l)
);
}
);
userData = {
com.hugojourdan.ColorFlow = {
"0" = 0;
"1" = 0;
"10" = 0;
"11" = 0;
"2" = 0;
"3" = 0;
"4" = 0;
"5" = 0;
"6" = 0;
"7" = 0;
"8" = 0;
"9" = 0;
};
};
width = 519;
},
{
anchors = (
{
name = Slash;
pos = (127,314);
},
{
name = bottom;
pos = (276,0);
},
{
name = caron;
pos = (325,700);
},
{
name = top;
pos = (127,700);
}
);
layerId = "BF6BA5B2-0556-42F4-A103-614BEBF16A1A";
shapes = (
{
closed = 1;
nodes = (
(492,0,l),
(492,52,l),
(175,52,l),
(175,700,l),
(78,700,l),
(78,0,l)
);
}
);
userData = {
com.hugojourdan.ColorFlow = {
"0" = 0;
"1" = 0;
"10" = 0;
"11" = 0;
"2" = 0;
"3" = 0;
"4" = 0;
"5" = 0;
"6" = 0;
"7" = 0;
"8" = 0;
"9" = 0;
};
};
width = 524;
},
{
anchors = (
{
name = Slash;
pos = (132,314);
},
{
name = bottom;
pos = (242,0);
},
{
name = caron;
pos = (418,700);
},
{
name = top;
pos = (197,700);
}
);
layerId = "D2741A44-CB8E-4434-9CC9-735A9A127F4C";
shapes = (
{
closed = 1;
nodes = (
(428,0,l),
(433,32,l),
(109,32,l),
(221,700,l),
(173,700,l),
(56,0,l)
);
}
);
userData = {
com.hugojourdan.ColorFlow = {
"0" = 0;
"1" = 0;
"10" = 0;
"11" = 0;
"2" = 0;
"3" = 0;
"4" = 0;
"5" = 0;
"6" = 0;
"7" = 0;
"8" = 0;
"9" = 0;
};
};
width = 507;
},
{
anchors = (
{
name = Slash;
pos = (138,314);
},
{
name = bottom;
pos = (235,0);
},
{
name = caron;
pos = (401,700);
},
{
name = top;
pos = (203,700);
}
);
layerId = "0B63B416-D10E-4459-8DAA-360BF3D1BFD2";
shapes = (
{
closed = 1;
nodes = (
(433,0,l),
(442,52,l),
(143,52,l),
(251,700,l),
(154,700,l),
(37,0,l)
);
}
);
userData = {
com.hugojourdan.ColorFlow = {
"0" = 0;
"1" = 0;
"10" = 0;
"11" = 0;
"2" = 0;
"3" = 0;
"4" = 0;
"5" = 0;
"6" = 0;
"7" = 0;
"8" = 0;
"9" = 0;
};
};
width = 506;
},
{
anchors = (
{
name = Slash;
pos = (151,314);
},
{
name = bottom;
pos = (233,0);
},
{
name = caron;
pos = (392,700);
},
{
name = top;
pos = (216,700);
}
);
layerId = "EE3858F4-A475-4EBA-A8F4-31CE9F38567C";
shapes = (
{
closed = 1;
nodes = (
(456,0,l),
(471,90,l),
(203,90,l),
(305,700,l),
(127,700,l),
(10,0,l)
);
}
);
userData = {
com.hugojourdan.ColorFlow = {
"0" = 0;
"1" = 0;
"10" = 0;
"11" = 0;
"2" = 0;
"3" = 0;
"4" = 0;
"5" = 0;
"6" = 0;
"7" = 0;
"8" = 0;
"9" = 0;
};
};
width = 519;
}
);
metricLeft = "=H";
metricRight = "=H*0.41";
note = L;
unicode = 76;
userData = {
KernOnName = L;
};
},
{
glyphname = M;
kernLeft = KO_H;
kernRight = KO_H;
layers = (
{
anchors = (
{
name = bottom;
pos = (420,0);
}
);
layerId = m01;
shapes = (
{
closed = 1;
nodes = (
(133,0,l),
(133,673,l),
(115,669,l),
(403,0,l),
(433,0,l),
(717,671,l),
(699,675,l),
(699,0,l),
(748,0,l),
(748,700,l),
(690,700,l),
(408,36,l),
(444,36,l),
(157,700,l),
(96,700,l),
(96,0,l)
);
}
);
userData = {
com.hugojourdan.ColorFlow = {
"0" = 0;
"1" = 0;
"10" = 0;
"11" = 0;
"2" = 0;
"3" = 0;
"4" = 0;
"5" = 0;
"6" = 0;
"7" = 0;
"8" = 0;
"9" = 0;
};
};
width = 844;
},
{
anchors = (
{
name = bottom;
pos = (407,0);
}
);
layerId = "FF73925E-1E34-445B-881D-5A7CAAA8E8BE";
shapes = (
{
closed = 1;
nodes = (
(152,0,l),
(152,547,l),
(131,544,l),
(321,0,l),
(459,0,l),
(640,549,l),
(626,551,l),
(626,0,l),
(802,0,l),
(802,700,l),
(593,700,l),
(413,155,l),
(439,155,l),
(250,700,l),
(52,700,l),
(52,0,l)
);
}
);
userData = {
com.hugojourdan.ColorFlow = {
"0" = 0;
"1" = 0;
"10" = 0;
"11" = 0;
"2" = 0;
"3" = 0;
"4" = 0;
"5" = 0;
"6" = 0;
"7" = 0;
"8" = 0;
"9" = 0;
};
};
width = 854;
},
{
anchors = (
{
name = bottom;
pos = (421,0);
}
);
layerId = "BF6BA5B2-0556-42F4-A103-614BEBF16A1A";
shapes = (
{
closed = 1;
nodes = (
(138,0,l),
(138,624,l),
(121,621,l),
(380,0,l),
(446,0,l),
(699,628,l),
(683,631,l),
(683,0,l),
(781,0,l),
(781,700,l),
(663,700,l),
(417,78,l),
(450,78,l),
(193,700,l),
(78,700,l),
(78,0,l)
);
}
);
userData = {
com.hugojourdan.ColorFlow = {
"0" = 0;
"1" = 0;
"10" = 0;
"11" = 0;
"2" = 0;
"3" = 0;
"4" = 0;
"5" = 0;
"6" = 0;
"7" = 0;
"8" = 0;
"9" = 0;
};
};
width = 859;
},
{
anchors = (
{
name = bottom;
pos = (380,0);
}
);
layerId = "D2741A44-CB8E-4434-9CC9-735A9A127F4C";
shapes = (
{
closed = 1;
nodes = (
(93,0,l),
(206,673,l),
(186,668,l),
(363,0,l),
(393,0,l),
(789,671,l),
(772,675,l),
(659,0,l),
(708,0,l),
(825,700,l),
(767,700,l),
(374,36,l),
(410,36,l),
(234,700,l),
(173,700,l),
(56,0,l)
);
}
);
userData = {
com.hugojourdan.ColorFlow = {
"0" = 0;
"1" = 0;
"10" = 0;
"11" = 0;
"2" = 0;
"3" = 0;
"4" = 0;
"5" = 0;
"6" = 0;
"7" = 0;
"8" = 0;
"9" = 0;
};
};
width = 844;
},
{
anchors = (
{
name = bottom;
pos = (371,0);
}
);
layerId = "0B63B416-D10E-4459-8DAA-360BF3D1BFD2";
shapes = (
{
closed = 1;
nodes = (
(97,0,l),
(201,624,l),
(184,621,l),
(330,0,l),
(396,0,l),
(745,628,l),
(730,631,l),
(624,0,l),
(722,0,l),
(839,700,l),
(721,700,l),
(380,78,l),
(413,78,l),
(269,700,l),
(154,700,l),
(37,0,l)
);
}
);
userData = {
com.hugojourdan.ColorFlow = {
"0" = 0;
"1" = 0;
"10" = 0;
"11" = 0;
"2" = 0;
"3" = 0;
"4" = 0;
"5" = 0;
"6" = 0;
"7" = 0;
"8" = 0;
"9" = 0;
};
};
width = 841;
},
{
anchors = (
{
name = bottom;
pos = (365,0);
}
);
layerId = "EE3858F4-A475-4EBA-A8F4-31CE9F38567C";
shapes = (
{
closed = 1;
nodes = (
(104,0,l),
(196,547,l),
(183,544,l),
(279,0,l),
(417,0,l),
(690,549,l),
(676,551,l),
(584,0,l),
(760,0,l),
(877,700,l),
(674,700,l),
(403,155,l),
(420,155,l),
(325,700,l),
(127,700,l),
(10,0,l)
);
}
);
userData = {
com.hugojourdan.ColorFlow = {
"0" = 0;
"1" = 0;
"10" = 0;
"11" = 0;
"2" = 0;
"3" = 0;
"4" = 0;
"5" = 0;
"6" = 0;
"7" = 0;
"8" = 0;
"9" = 0;
};
};
width = 854;
}
);
metricLeft = "=H";
metricRight = "=|";
note = M;
unicode = 77;
},
{
glyphname = N;
kernLeft = KO_H;
kernRight = KO_H;
layers = (
{
anchors = (
{
name = bottom;
pos = (328,0);
},
{
name = top;
pos = (327,700);
}
);
layerId = m01;
shapes = (
{
closed = 1;
nodes = (
(133,0,l),
(133,650,l),
(107,643,l),
(526,0,l),
(558,0,l),
(558,700,l),
(521,700,l),
(521,55,l),
(543,62,l),
(126,700,l),
(96,700,l),
(96,0,l)
);
}
);
userData = {
com.hugojourdan.ColorFlow = {
"0" = 0;
"1" = 0;
"10" = 0;
"11" = 0;
"2" = 0;
"3" = 0;
"4" = 0;
"5" = 0;
"6" = 0;
"7" = 0;
"8" = 0;
"9" = 0;
};
};
width = 654;
},
{
anchors = (
{
name = bottom;
pos = (307,0);
},
{
name = top;
pos = (318,700);
}
);
layerId = "FF73925E-1E34-445B-881D-5A7CAAA8E8BE";
shapes = (
{
closed = 1;
nodes = (
(152,0,l),
(152,495,l),
(137,488,l),
(424,0,l),
(586,0,l),
(586,700,l),
(486,700,l),
(486,213,l),
(493,220,l),
(211,700,l),
(52,700,l),
(52,0,l)
);
}
);
userData = {
com.hugojourdan.ColorFlow = {
"0" = 0;
"1" = 0;
"10" = 0;
"11" = 0;
"2" = 0;
"3" = 0;
"4" = 0;
"5" = 0;
"6" = 0;
"7" = 0;
"8" = 0;
"9" = 0;
};
};
width = 638;
},
{
anchors = (
{
name = bottom;
pos = (341,0);
},
{
name = top;
pos = (345,700);
}
);
layerId = "BF6BA5B2-0556-42F4-A103-614BEBF16A1A";
shapes = (
{
closed = 1;
nodes = (
(150,0,l),
(150,590,l),
(138,583,l),
(511,0,l),
(599,0,l),
(599,700,l),
(555,700,ls),
(546,700,o),
(540,694,o),
(540,685,cs),
(540,115,l),
(548,122,l),
(177,700,l),
(106,700,ls),
(97,700,o),
(91,694,o),
(91,685,cs),
(91,0,l)
);
}
);
userData = {
com.hugojourdan.ColorFlow = {
"0" = 0;
"1" = 0;
"10" = 0;
"11" = 0;
"2" = 0;
"3" = 0;
"4" = 0;
"5" = 0;
"6" = 0;
"7" = 0;
"8" = 0;
"9" = 0;
};
};
width = 690;
},
{
anchors = (
{
name = bottom;
pos = (288,0);
},
{
name = top;
pos = (404,700);
}
);
layerId = "D2741A44-CB8E-4434-9CC9-735A9A127F4C";
shapes = (
{
closed = 1;
nodes = (
(93,0,l),
(202,650,l),
(175,643,l),
(486,0,l),
(518,0,l),
(635,700,l),
(598,700,l),
(490,55,l),
(513,62,l),
(203,700,l),
(173,700,l),
(56,0,l)
);
}
);
userData = {
com.hugojourdan.ColorFlow = {
"0" = 0;
"1" = 0;
"10" = 0;
"11" = 0;
"2" = 0;
"3" = 0;
"4" = 0;
"5" = 0;
"6" = 0;
"7" = 0;
"8" = 0;
"9" = 0;
};
};
width = 654;
},
{
anchors = (
{
name = bottom;
pos = (278,0);
},
{
name = top;
pos = (399,700);
}
);
layerId = "0B63B416-D10E-4459-8DAA-360BF3D1BFD2";
shapes = (
{
closed = 1;
nodes = (
(96,0,l),
(195,590,l),
(168,583,l),
(453,0,l),
(527,0,l),
(644,700,l),
(585,700,l),
(487,115,l),
(510,122,l),
(226,700,l),
(154,700,l),
(37,0,l)
);
}
);
userData = {
com.hugojourdan.ColorFlow = {
"0" = 0;
"1" = 0;
"10" = 0;
"11" = 0;
"2" = 0;
"3" = 0;
"4" = 0;
"5" = 0;
"6" = 0;
"7" = 0;
"8" = 0;
"9" = 0;
};
};
width = 646;
},
{
anchors = (
{
name = bottom;
pos = (265,0);
},
{
name = top;
pos = (393,700);
}
);
layerId = "EE3858F4-A475-4EBA-A8F4-31CE9F38567C";
shapes = (
{
closed = 1;
nodes = (
(104,0,l),
(187,495,l),
(157,488,l),
(402,0,l),
(544,0,l),
(661,700,l),
(567,700,l),
(486,213,l),
(508,220,l),
(266,700,l),
(127,700,l),
(10,0,l)
);
}
);
userData = {
com.hugojourdan.ColorFlow = {
"0" = 0;
"1" = 0;
"10" = 0;
"11" = 0;
"2" = 0;
"3" = 0;
"4" = 0;
"5" = 0;
"6" = 0;
"7" = 0;
"8" = 0;
"9" = 0;
};
};
width = 638;
}
);
metricLeft = "=H";
metricRight = "=|";
note = N;
unicode = 78;
},
{
glyphname = O;
kernLeft = KO_O;
kernRight = KO_O;
layers = (
{
anchors = (
{
name = bottom;
pos = (342,0);
},
{
name = center;
pos = (342,350);
},
{
name = ogonek;
pos = (419,0);
},
{
name = top;
pos = (342,700);
}
);
layerId = m01;
shapes = (
{
closed = 1;
nodes = (
(513,-10,o),
(609,119,o),
(609,350,cs),
(609,581,o),
(513,710,o),
(342,710,cs),
(171,710,o),
(75,581,o),
(75,350,cs),
(75,119,o),
(171,-10,o),
(342,-10,cs)
);
},
{
closed = 1;
nodes = (
(205,22,o),
(128,140,o),
(128,350,cs),
(128,560,o),
(205,678,o),
(342,678,cs),
(479,678,o),
(556,560,o),
(556,350,cs),
(556,140,o),
(479,22,o),
(342,22,cs)
);
}
);
userData = {
com.hugojourdan.ColorFlow = {
"0" = 0;
"1" = 0;
"10" = 0;
"11" = 0;
"2" = 0;
"3" = 0;
"4" = 0;
"5" = 0;
"6" = 0;
"7" = 0;
"8" = 0;
"9" = 0;
};
};
width = 684;
},
{
anchors = (
{
name = bottom;
pos = (352,0);
},
{
name = center;
pos = (350,350);
},
{
name = ogonek;
pos = (429,0);
},
{
name = top;
pos = (350,700);
}
);
layerId = "FF73925E-1E34-445B-881D-5A7CAAA8E8BE";
shapes = (
{
closed = 1;
nodes = (
(557,-10,o),
(658,109,o),
(658,350,cs),
(658,590,o),
(556,710,o),
(350,710,cs),
(145,710,o),
(42,590,o),
(42,351,cs),
(42,111,o),
(145,-10,o),
(351,-10,cs)
);
},
{
closed = 1;
nodes = (
(269,80,o),
(230,168,o),
(230,350,cs),
(230,532,o),
(269,620,o),
(350,620,cs),
(431,620,o),
(470,532,o),
(470,350,cs),
(470,166,o),
(432,80,o),
(350,80,cs)
);
}
);
userData = {
com.hugojourdan.ColorFlow = {
"0" = 0;
"1" = 0;
"10" = 0;
"11" = 0;
"2" = 0;
"3" = 0;
"4" = 0;
"5" = 0;
"6" = 0;
"7" = 0;
"8" = 0;
"9" = 0;
};
};
width = 700;
},
{
anchors = (
{
name = bottom;
pos = (356,0);
},
{
name = center;
pos = (356,350);
},
{
name = ogonek;
pos = (433,0);
},
{
name = top;
pos = (356,700);
}
);
layerId = "BF6BA5B2-0556-42F4-A103-614BEBF16A1A";
shapes = (
{
closed = 1;
nodes = (
(545,-10,o),
(645,111,o),
(645,350,cs),
(645,589,o),
(545,710,o),
(356,710,cs),
(167,710,o),
(67,585,o),
(67,350,cs),
(67,115,o),
(167,-10,o),
(356,-10,cs)
);
},
{
closed = 1;
nodes = (
(232,38,o),
(172,139,o),
(172,351,cs),
(172,562,o),
(232,662,o),
(356,662,cs),
(479,662,o),
(540,560,o),
(540,351,cs),
(540,141,o),
(479,38,o),
(356,38,cs)
);
}
);
userData = {
com.hugojourdan.ColorFlow = {
"0" = 0;
"1" = 0;
"10" = 0;
"11" = 0;
"2" = 0;
"3" = 0;
"4" = 0;
"5" = 0;
"6" = 0;
"7" = 0;
"8" = 0;
"9" = 0;
};
};
width = 712;
},
{
anchors = (
{
name = bottom;
pos = (302,0);
},
{
name = center;
pos = (360,350);
},
{
name = ogonek;
pos = (400,0);
},
{
name = top;
pos = (419,700);
}
);
background = {
shapes = (
{
closed = 1;
nodes = (
(483,-10,o),
(589,110,o),
(625,328,cs),
(632,368,o),
(635,405,o),
(635,439,cs),
(635,612,o),
(551,710,o),
(395,710,cs),
(239,710,o),
(133,590,o),
(97,372,cs),
(90,332,o),
(87,295,o),
(87,261,cs),
(87,88,o),
(171,-10,o),
(327,-10,cs)
);
},
{
closed = 1;
nodes = (
(204,22,o),
(139,105,o),
(139,254,cs),
(139,288,o),
(143,327,o),
(150,368,cs),
(182,568,o),
(271,678,o),
(397,678,cs),
(519,678,o),
(583,593,o),
(583,444,cs),
(583,410,o),
(580,372,o),
(573,332,cs),
(540,132,o),
(451,22,o),
(325,22,cs)
);
}
);
};
guides = (
{
angle = 80.5;
pos = (75,239);
},
{
angle = 80.5;
pos = (128,239);
},
{
angle = 80.5;
pos = (609,239);
},
{
angle = 80.5;
pos = (556,239);
}
);
layerId = "D2741A44-CB8E-4434-9CC9-735A9A127F4C";
shapes = (
{
closed = 1;
nodes = (
(563,-10,o),
(633,271,o),
(633,439,cs),
(633,612,o),
(550,710,o),
(394,710,cs),
(158,710,o),
(88,429,o),
(88,261,cs),
(88,88,o),
(171,-10,o),
(327,-10,cs)
);
},
{
closed = 1;
nodes = (
(204,22,o),
(139,105,o),
(139,254,cs),
(139,400,o),
(197,678,o),
(396,678,cs),
(517,678,o),
(582,595,o),
(582,446,cs),
(582,300,o),
(524,22,o),
(324,22,cs)
);
}
);
userData = {
com.hugojourdan.ColorFlow = {
"0" = 0;
"1" = 0;
"10" = 0;
"11" = 0;
"2" = 0;
"3" = 0;
"4" = 0;
"5" = 0;
"6" = 0;
"7" = 0;
"8" = 0;
"9" = 0;
};
};
width = 684;
},
{
anchors = (
{
name = bottom;
pos = (297,0);
},
{
name = center;
pos = (356,350);
},
{
name = ogonek;
pos = (398,0);
},
{
name = top;
pos = (415,700);
}
);
background = {
shapes = (
{
closed = 1;
nodes = (
(307,-10,o),
(317,-10,o),
(327,-10,cs),
(491,-10,o),
(595,103,o),
(633,327,cs),
(640,368,o),
(643,406,o),
(643,441,cs),
(643,606,o),
(566,697,o),
(416,709,cs),
(406,710,o),
(395,710,o),
(386,710,cs),
(221,710,o),
(115,594,o),
(79,373,cs),
(73,333,o),
(69,296,o),
(69,262,cs),
(69,97,o),
(146,3,o),
(296,-9,cs)
);
},
{
closed = 1;
nodes = (
(171,111,o),
(171,235,cs),
(171,272,o),
(175,316,o),
(183,365,cs),
(216,566,o),
(284,662,o),
(392,662,cs),
(490,662,o),
(541,597,o),
(541,465,cs),
(541,428,o),
(537,385,o),
(529,337,cs),
(497,137,o),
(427,38,o),
(320,38,cs),
(218,38,o)
);
}
);
};
guides = (
{
angle = 80.5;
pos = (58,245);
},
{
angle = 80.5;
pos = (618,245);
},
{
angle = 80.5;
pos = (163,245);
},
{
angle = 80.5;
pos = (513,245);
}
);
layerId = "0B63B416-D10E-4459-8DAA-360BF3D1BFD2";
shapes = (
{
closed = 1;
nodes = (
(574,-10,o),
(641,269,o),
(641,438,cs),
(641,615,o),
(554,710,o),
(386,710,cs),
(132,710,o),
(71,421,o),
(71,262,cs),
(71,82,o),
(163,-10,o),
(326,-10,cs)
);
},
{
closed = 1;
nodes = (
(219,38,o),
(173,111,o),
(173,235,cs),
(173,366,o),
(215,662,o),
(392,662,cs),
(493,662,o),
(539,589,o),
(539,465,cs),
(539,334,o),
(497,38,o),
(320,38,cs)
);
}
);
userData = {
com.hugojourdan.ColorFlow = {
"0" = 0;
"1" = 0;
"10" = 0;
"11" = 0;
"2" = 0;
"3" = 0;
"4" = 0;
"5" = 0;
"6" = 0;
"7" = 0;
"8" = 0;
"9" = 0;
};
};
width = 676;
},
{
anchors = (
{
name = bottom;
pos = (299,0);
},
{
name = center;
pos = (358,350);
},
{
name = ogonek;
pos = (398,0);
},
{
name = top;
pos = (417,700);
}
);
background = {
shapes = (
{
closed = 1;
nodes = (
(312,-9,o),
(325,-10,o),
(337,-10,cs),
(512,-10,o),
(616,101,o),
(653,325,cs),
(660,366,o),
(663,404,o),
(663,438,cs),
(663,604,o),
(583,694,o),
(419,708,cs),
(406,709,o),
(394,710,o),
(382,710,cs),
(206,710,o),
(100,598,o),
(63,376,cs),
(56,336,o),
(53,300,o),
(53,264,cs),
(53,98,o),
(137,6,o),
(300,-8,cs)
);
},
{
closed = 1;
nodes = (
(264,81,o),
(235,129,o),
(235,225,cs),
(235,262,o),
(239,307,o),
(248,359,cs),
(277,534,o),
(327,619,o),
(396,619,cs),
(453,619,o),
(481,572,o),
(481,477,cs),
(481,439,o),
(477,394,o),
(468,341,cs),
(439,166,o),
(390,81,o),
(322,81,cs)
);
}
);
};
layerId = "EE3858F4-A475-4EBA-A8F4-31CE9F38567C";
shapes = (
{
closed = 1;
nodes = (
(606,-10,o),
(661,277,o),
(661,435,cs),
(661,635,o),
(548,710,o),
(380,710,cs),
(109,710,o),
(54,423,o),
(54,265,cs),
(54,65,o),
(171,-10,o),
(335,-10,cs)
);
},
{
closed = 1;
nodes = (
(264,81,o),
(235,129,o),
(235,225,cs),
(235,327,o),
(273,619,o),
(397,619,cs),
(451,619,o),
(480,571,o),
(480,475,cs),
(480,373,o),
(442,81,o),
(318,81,cs)
);
}
);
userData = {
com.hugojourdan.ColorFlow = {
"0" = 0;
"1" = 0;
"10" = 0;
"11" = 0;
"2" = 0;
"3" = 0;
"4" = 0;
"5" = 0;
"6" = 0;
"7" = 0;
"8" = 0;
"9" = 0;
};
};
width = 682;
}
);
metricRight = "=|";
note = O;
unicode = 79;
userData = {
KernOnName = O;
};
},
{
glyphname = P;
kernLeft = KO_H;
kernRight = KO_P;
layers = (
{
layerId = m01;
shapes = (
{
closed = 1;
nodes = (
(144,0,l),
(144,687,l),
(125,668,l),
(248,668,ls),
(390,668,o),
(470,607,o),
(470,497,cs),
(470,387,o),
(390,325,o),
(248,325,cs),
(120,325,l),
(120,293,l),
(250,293,ls),
(424,293,o),
(522,366,o),
(522,497,cs),
(522,627,o),
(424,700,o),
(250,700,cs),
(96,700,l),
(96,0,l)
);
}
);
userData = {
com.hugojourdan.ColorFlow = {
"0" = 0;
"1" = 0;
"10" = 0;
"11" = 0;
"2" = 0;
"3" = 0;
"4" = 0;
"5" = 0;
"6" = 0;
"7" = 0;
"8" = 0;
"9" = 0;
};
};
width = 593;
},
{
layerId = "FF73925E-1E34-445B-881D-5A7CAAA8E8BE";
shapes = (
{
closed = 1;
nodes = (
(229,0,l),
(229,655,l),
(184,614,l),
(271,614,ls),
(360,614,o),
(409,567,o),
(409,481,cs),
(409,395,o),
(360,348,o),
(271,348,cs),
(141,348,l),
(141,263,l),
(281,263,ls),
(482,263,o),
(595,342,o),
(595,482,cs),
(595,622,o),
(482,700,o),
(281,700,cs),
(52,700,l),
(52,0,l)
);
}
);
userData = {
com.hugojourdan.ColorFlow = {
"0" = 0;
"1" = 0;
"10" = 0;
"11" = 0;
"2" = 0;
"3" = 0;
"4" = 0;
"5" = 0;
"6" = 0;
"7" = 0;
"8" = 0;
"9" = 0;
};
};
width = 634;
},
{
layerId = "BF6BA5B2-0556-42F4-A103-614BEBF16A1A";
shapes = (
{
closed = 1;
nodes = (
(176,0,l),
(176,669,l),
(157,650,l),
(266,650,ls),
(380,650,o),
(448,592,o),
(448,491,cs),
(448,389,o),
(381,331,o),
(266,331,cs),
(127,331,l),
(127,281,l),
(271,281,ls),
(451,281,o),
(553,357,o),
(553,491,cs),
(553,624,o),
(451,700,o),
(271,700,cs),
(78,700,l),
(78,0,l)
);
}
);
userData = {
com.hugojourdan.ColorFlow = {
"0" = 0;
"1" = 0;
"10" = 0;
"11" = 0;
"2" = 0;
"3" = 0;
"4" = 0;
"5" = 0;
"6" = 0;
"7" = 0;
"8" = 0;
"9" = 0;
};
};
width = 608;
},
{
background = {
shapes = (
{
closed = 0;
nodes = (
(564,515,ls),
(564,620,o),
(480,687,o),
(325,700,c)
);
},
{
closed = 0;
nodes = (
(319,668,l),
(444,657,o),
(513,602,o),
(513,513,cs)
);
}
);
};
guides = (
{
angle = 80.5;
pos = (96,239);
},
{
angle = 80.5;
pos = (144,239);
},
{
angle = 80.5;
pos = (522,239);
},
{
angle = 80.5;
pos = (470,239);
}
);
layerId = "D2741A44-CB8E-4434-9CC9-735A9A127F4C";
shapes = (
{
closed = 1;
nodes = (
(104,0,l),
(219,687,l),
(197,668,l),
(295,668,ls),
(433,668,o),
(513,611,o),
(513,513,cs),
(513,398,o),
(425,325,o),
(287,325,cs),
(135,325,l),
(130,293,l),
(293,293,ls),
(462,293,o),
(564,375,o),
(564,513,cs),
(564,631,o),
(464,700,o),
(293,700,cs),
(173,700,l),
(56,0,l)
);
}
);
userData = {
com.hugojourdan.ColorFlow = {
"0" = 0;
"1" = 0;
"10" = 0;
"11" = 0;
"2" = 0;
"3" = 0;
"4" = 0;
"5" = 0;
"6" = 0;
"7" = 0;
"8" = 0;
"9" = 0;
};
};
width = 593;
},
{
background = {
shapes = (
{
closed = 0;
nodes = (
(332,648,l),
(433,640,o),
(489,590,o),
(489,511,cs)
);
},
{
closed = 0;
nodes = (
(593,507,ls),
(593,617,o),
(506,687,o),
(345,700,c)
);
}
);
};
guides = (
{
angle = 80.5;
pos = (78,245);
},
{
angle = 80.5;
pos = (176,245);
},
{
angle = 80.5;
pos = (553,245);
},
{
angle = 80.5;
pos = (448,245);
}
);
layerId = "0B63B416-D10E-4459-8DAA-360BF3D1BFD2";
shapes = (
{
closed = 1;
nodes = (
(135,0,l),
(247,669,l),
(222,650,l),
(320,650,ls),
(428,650,o),
(489,598,o),
(489,505,cs),
(489,401,o),
(413,331,o),
(300,331,cs),
(141,331,l),
(133,281,l),
(314,281,ls),
(483,281,o),
(593,370,o),
(593,506,cs),
(593,632,o),
(497,700,o),
(320,700,cs),
(154,700,l),
(37,0,l)
);
}
);
userData = {
com.hugojourdan.ColorFlow = {
"0" = 0;
"1" = 0;
"10" = 0;
"11" = 0;
"2" = 0;
"3" = 0;
"4" = 0;
"5" = 0;
"6" = 0;
"7" = 0;
"8" = 0;
"9" = 0;
};
};
width = 608;
},
{
background = {
shapes = (
{
closed = 0;
nodes = (
(633,499,ls),
(633,614,o),
(534,686,o),
(354,700,c)
);
},
{
closed = 0;
nodes = (
(331,610,l),
(407,604,o),
(448,566,o),
(448,502,cs)
);
}
);
};
guides = (
{
angle = 80.5;
pos = (595,251);
},
{
angle = 80.5;
pos = (409,251);
},
{
angle = 80.5;
pos = (52,251);
},
{
angle = 80.5;
pos = (230,251);
}
);
layerId = "EE3858F4-A475-4EBA-A8F4-31CE9F38567C";
shapes = (
{
closed = 1;
nodes = (
(188,0,l),
(297,651,l),
(249,614,l),
(333,614,ls),
(410,614,o),
(448,576,o),
(448,499,cs),
(448,408,o),
(392,348,o),
(306,348,cs),
(157,348,l),
(143,263,l),
(339,263,ls),
(518,263,o),
(633,358,o),
(633,496,cs),
(633,630,o),
(523,700,o),
(326,700,cs),
(127,700,l),
(10,0,l)
);
}
);
userData = {
com.hugojourdan.ColorFlow = {
"0" = 0;
"1" = 0;
"10" = 0;
"11" = 0;
"2" = 0;
"3" = 0;
"4" = 0;
"5" = 0;
"6" = 0;
"7" = 0;
"8" = 0;
"9" = 0;
};
};
width = 634;
}
);
metricLeft = "=H";
metricRight = "=O*0.94";
note = P;
unicode = 80;
},
{
glyphname = Thorn;
kernLeft = KO_H;
layers = (
{
layerId = m01;
shapes = (
{
closed = 1;
nodes = (
(250,147,ls),
(424,147,o),
(522,220,o),
(522,351,cs),
(522,481,o),
(424,554,o),
(250,554,cs),
(120,554,l),
(120,522,l),
(248,522,ls),
(390,522,o),
(470,461,o),
(470,351,cs),
(470,241,o),
(390,179,o),
(248,179,cs),
(120,179,l),
(120,147,l)
);
},
{
closed = 1;
nodes = (
(144,0,l),
(144,700,l),
(96,700,l),
(96,0,l)
);
}
);
userData = {
com.hugojourdan.ColorFlow = {
"0" = 0;
"1" = 0;
"10" = 0;
"11" = 0;
"2" = 0;
"3" = 0;
"4" = 0;
"5" = 0;
"6" = 0;
"7" = 0;
"8" = 0;
"9" = 0;
};
};
width = 597;
},
{
layerId = "BF6BA5B2-0556-42F4-A103-614BEBF16A1A";
shapes = (
{
closed = 1;
nodes = (
(271,141,ls),
(451,141,o),
(553,217,o),
(553,351,cs),
(553,484,o),
(451,560,o),
(271,560,cs),
(130,560,l),
(130,512,l),
(266,512,ls),
(380,512,o),
(448,453,o),
(448,351,cs),
(448,248,o),
(381,189,o),
(266,189,cs),
(130,189,l),
(130,141,l)
);
},
{
closed = 1;
nodes = (
(176,0,l),
(176,700,l),
(78,700,l),
(78,0,l)
);
}
);
userData = {
com.hugojourdan.ColorFlow = {
"0" = 0;
"1" = 0;
"10" = 0;
"11" = 0;
"2" = 0;
"3" = 0;
"4" = 0;
"5" = 0;
"6" = 0;
"7" = 0;
"8" = 0;
"9" = 0;
};
};
width = 611;
},
{
layerId = "FF73925E-1E34-445B-881D-5A7CAAA8E8BE";
shapes = (
{
closed = 1;
nodes = (
(281,132,ls),
(482,132,o),
(595,211,o),
(595,351,cs),
(595,491,o),
(482,569,o),
(281,569,cs),
(141,569,l),
(141,483,l),
(271,483,ls),
(360,483,o),
(409,436,o),
(409,350,cs),
(409,264,o),
(360,217,o),
(271,217,cs),
(141,217,l),
(141,132,l)
);
},
{
closed = 1;
nodes = (
(229,0,l),
(229,700,l),
(52,700,l),
(52,0,l)
);
}
);
userData = {
com.hugojourdan.ColorFlow = {
"0" = 0;
"1" = 0;
"10" = 0;
"11" = 0;
"2" = 0;
"3" = 0;
"4" = 0;
"5" = 0;
"6" = 0;
"7" = 0;
"8" = 0;
"9" = 0;
};
};
width = 637;
},
{
layerId = "D2741A44-CB8E-4434-9CC9-735A9A127F4C";
shapes = (
{
closed = 1;
nodes = (
(269,147,ls),
(438,147,o),
(540,229,o),
(540,367,cs),
(540,485,o),
(440,554,o),
(269,554,cs),
(173,554,l),
(168,522,l),
(271,522,ls),
(409,522,o),
(489,465,o),
(489,367,cs),
(489,252,o),
(401,179,o),
(263,179,cs),
(110,179,l),
(105,147,l)
);
},
{
closed = 1;
nodes = (
(104,0,l),
(221,700,l),
(173,700,l),
(56,0,l)
);
}
);
userData = {
com.hugojourdan.ColorFlow = {
"0" = 0;
"1" = 0;
"10" = 0;
"11" = 0;
"2" = 0;
"3" = 0;
"4" = 0;
"5" = 0;
"6" = 0;
"7" = 0;
"8" = 0;
"9" = 0;
};
};
width = 597;
},
{
layerId = "0B63B416-D10E-4459-8DAA-360BF3D1BFD2";
shapes = (
{
closed = 1;
nodes = (
(291,141,ls),
(460,141,o),
(570,230,o),
(570,366,cs),
(570,492,o),
(474,560,o),
(297,560,cs),
(180,560,l),
(171,510,l),
(297,510,ls),
(405,510,o),
(466,458,o),
(466,365,cs),
(466,261,o),
(390,191,o),
(277,191,cs),
(118,191,l),
(110,141,l)
);
},
{
closed = 1;
nodes = (
(135,0,l),
(252,700,l),
(154,700,l),
(37,0,l)
);
}
);
userData = {
com.hugojourdan.ColorFlow = {
"0" = 0;
"1" = 0;
"10" = 0;
"11" = 0;
"2" = 0;
"3" = 0;
"4" = 0;
"5" = 0;
"6" = 0;
"7" = 0;
"8" = 0;
"9" = 0;
};
};
width = 611;
},
{
layerId = "EE3858F4-A475-4EBA-A8F4-31CE9F38567C";
shapes = (
{
closed = 1;
nodes = (
(317,132,ls),
(496,132,o),
(611,227,o),
(611,365,cs),
(611,499,o),
(501,569,o),
(304,569,cs),
(194,569,l),
(180,483,l),
(311,483,ls),
(388,483,o),
(426,445,o),
(426,368,cs),
(426,277,o),
(370,217,o),
(284,217,cs),
(135,217,l),
(121,132,l)
);
},
{
closed = 1;
nodes = (
(188,0,l),
(305,700,l),
(127,700,l),
(10,0,l)
);
}
);
userData = {
com.hugojourdan.ColorFlow = {
"0" = 0;
"1" = 0;
"10" = 0;
"11" = 0;
"2" = 0;
"3" = 0;
"4" = 0;
"5" = 0;
"6" = 0;
"7" = 0;
"8" = 0;
"9" = 0;
};
};
width = 637;
}
);
metricLeft = "=H";
metricRight = "=O";
unicode = 222;
},
{
glyphname = Q;
kernLeft = KO_O;
kernRight = KO_Q;
layers = (
{
layerId = m01;
shapes = (
{
closed = 1;
nodes = (
(513,-10,o),
(609,119,o),
(609,350,cs),
(609,581,o),
(513,710,o),
(342,710,cs),
(171,710,o),
(75,581,o),
(75,350,cs),
(75,119,o),
(171,-10,o),
(342,-10,cs)
);
},
{
closed = 1;
nodes = (
(607,-120,l),
(502,-27,o),
(416,76,o),
(351,189,c),
(326,170,l),
(387,54,o),
(469,-52,o),
(570,-148,c)
);
},
{
closed = 1;
nodes = (
(205,22,o),
(128,140,o),
(128,350,cs),
(128,560,o),
(205,678,o),
(342,678,cs),
(479,678,o),
(556,560,o),
(556,350,cs),
(556,140,o),
(479,22,o),
(342,22,cs)
);
}
);
userData = {
com.hugojourdan.ColorFlow = {
"0" = 0;
"1" = 0;
"10" = 0;
"11" = 0;
"2" = 0;
"3" = 0;
"4" = 0;
"5" = 0;
"6" = 0;
"7" = 0;
"8" = 0;
"9" = 0;
};
};
width = 684;
},
{
layerId = "FF73925E-1E34-445B-881D-5A7CAAA8E8BE";
shapes = (
{
closed = 1;
nodes = (
(557,-10,o),
(658,109,o),
(658,350,cs),
(658,591,o),
(557,710,o),
(351,710,cs),
(145,710,o),
(42,590,o),
(42,351,cs),
(42,111,o),
(146,-10,o),
(352,-10,cs)
);
},
{
closed = 1;
nodes = (
(682,-49,l),
(564,-7,o),
(481,50,o),
(433,118,c),
(391,86,l),
(426,8,o),
(496,-70,o),
(598,-148,c)
);
},
{
closed = 1;
nodes = (
(270,80,o),
(230,169,o),
(230,350,cs),
(230,531,o),
(270,620,o),
(351,620,cs),
(431,620,o),
(470,532,o),
(470,350,cs),
(470,169,o),
(431,80,o),
(351,80,cs)
);
}
);
userData = {
com.hugojourdan.ColorFlow = {
"0" = 0;
"1" = 0;
"10" = 0;
"11" = 0;
"2" = 0;
"3" = 0;
"4" = 0;
"5" = 0;
"6" = 0;
"7" = 0;
"8" = 0;
"9" = 0;
};
};
width = 691;
},
{
layerId = "BF6BA5B2-0556-42F4-A103-614BEBF16A1A";
shapes = (
{
closed = 1;
nodes = (
(542,-10,o),
(645,118,o),
(645,350,cs),
(645,586,o),
(545,710,o),
(356,710,cs),
(169,710,o),
(67,582,o),
(67,350,cs),
(67,113,o),
(165,-10,o),
(356,-10,cs)
);
},
{
closed = 1;
nodes = (
(645,-88,l),
(563,-51,o),
(502,2,o),
(460,70,c),
(429,46,l),
(464,-29,o),
(519,-93,o),
(598,-148,c)
);
},
{
closed = 1;
nodes = (
(232,38,o),
(172,139,o),
(172,351,cs),
(172,562,o),
(232,662,o),
(356,662,cs),
(479,662,o),
(540,560,o),
(540,351,cs),
(540,141,o),
(479,38,o),
(356,38,cs)
);
}
);
userData = {
com.hugojourdan.ColorFlow = {
"0" = 0;
"1" = 0;
"10" = 0;
"11" = 0;
"2" = 0;
"3" = 0;
"4" = 0;
"5" = 0;
"6" = 0;
"7" = 0;
"8" = 0;
"9" = 0;
};
};
width = 703;
},
{
layerId = "D2741A44-CB8E-4434-9CC9-735A9A127F4C";
shapes = (
{
closed = 1;
nodes = (
(563,-10,o),
(633,271,o),
(633,439,cs),
(633,612,o),
(550,710,o),
(394,710,cs),
(158,710,o),
(88,429,o),
(88,261,cs),
(88,88,o),
(171,-10,o),
(327,-10,cs)
);
},
{
closed = 1;
nodes = (
(546,-140,l),
(458,-38,o),
(390,72,o),
(344,190,c),
(316,173,l),
(356,52,o),
(416,-63,o),
(505,-164,c)
);
},
{
closed = 1;
nodes = (
(204,22,o),
(139,105,o),
(139,254,cs),
(139,400,o),
(197,678,o),
(396,678,cs),
(517,678,o),
(582,595,o),
(582,446,cs),
(582,300,o),
(524,22,o),
(324,22,cs)
);
}
);
userData = {
com.hugojourdan.ColorFlow = {
"0" = 0;
"1" = 0;
"10" = 0;
"11" = 0;
"2" = 0;
"3" = 0;
"4" = 0;
"5" = 0;
"6" = 0;
"7" = 0;
"8" = 0;
"9" = 0;
};
};
width = 684;
},
{
layerId = "0B63B416-D10E-4459-8DAA-360BF3D1BFD2";
shapes = (
{
closed = 1;
nodes = (
(574,-10,o),
(641,269,o),
(641,438,cs),
(641,615,o),
(554,710,o),
(386,710,cs),
(132,710,o),
(71,421,o),
(71,262,cs),
(71,82,o),
(163,-10,o),
(326,-10,cs)
);
},
{
closed = 1;
nodes = (
(568,-110,l),
(493,-67,o),
(441,-9,o),
(411,62,c),
(376,41,l),
(399,-37,o),
(442,-105,o),
(512,-166,c)
);
},
{
closed = 1;
nodes = (
(219,38,o),
(173,111,o),
(173,235,cs),
(173,366,o),
(215,662,o),
(392,662,cs),
(493,662,o),
(539,589,o),
(539,465,cs),
(539,334,o),
(497,38,o),
(320,38,cs)
);
}
);
userData = {
com.hugojourdan.ColorFlow = {
"0" = 0;
"1" = 0;
"10" = 0;
"11" = 0;
"2" = 0;
"3" = 0;
"4" = 0;
"5" = 0;
"6" = 0;
"7" = 0;
"8" = 0;
"9" = 0;
};
};
width = 676;
},
{
layerId = "EE3858F4-A475-4EBA-A8F4-31CE9F38567C";
shapes = (
{
closed = 1;
nodes = (
(606,-10,o),
(661,277,o),
(661,435,cs),
(661,635,o),
(548,710,o),
(380,710,cs),
(109,710,o),
(54,423,o),
(54,265,cs),
(54,65,o),
(171,-10,o),
(335,-10,cs)
);
},
{
closed = 1;
nodes = (
(619,-74,l),
(508,-22,o),
(435,41,o),
(399,113,c),
(353,85,l),
(374,4,o),
(430,-80,o),
(519,-166,c)
);
},
{
closed = 1;
nodes = (
(264,81,o),
(235,129,o),
(235,225,cs),
(235,327,o),
(273,619,o),
(397,619,cs),
(451,619,o),
(480,571,o),
(480,475,cs),
(480,373,o),
(442,81,o),
(318,81,cs)
);
}
);
userData = {
com.hugojourdan.ColorFlow = {
"0" = 0;
"1" = 0;
"10" = 0;
"11" = 0;
"2" = 0;
"3" = 0;
"4" = 0;
"5" = 0;
"6" = 0;
"7" = 0;
"8" = 0;
"9" = 0;
};
};
width = 682;
}
);
metricLeft = "=O";
metricRight = "=|";
note = Q;
unicode = 81;
userData = {
KernOnName = Q;
};
},
{
glyphname = R;
kernLeft = KO_H;
kernRight = KO_R;
layers = (
{
anchors = (
{
name = bottom;
pos = (320,0);
},
{
name = top;
pos = (249,700);
}
);
layerId = m01;
shapes = (
{
closed = 1;
nodes = (
(144,0,l),
(144,687,l),
(125,668,l),
(248,668,ls),
(390,668,o),
(470,612,o),
(470,512,cs),
(470,415,o),
(390,360,o),
(248,360,cs),
(136,360,l),
(136,328,l),
(250,328,ls),
(424,328,o),
(522,394,o),
(522,512,cs),
(522,633,o),
(425,700,o),
(250,700,cs),
(96,700,l),
(96,0,l)
);
},
{
closed = 1;
nodes = (
(556,0,l),
(289,347,l),
(233,347,l),
(496,0,l)
);
}
);
userData = {
com.hugojourdan.ColorFlow = {
"0" = 0;
"1" = 0;
"10" = 0;
"11" = 0;
"2" = 0;
"3" = 0;
"4" = 0;
"5" = 0;
"6" = 0;
"7" = 0;
"8" = 0;
"9" = 0;
};
};
width = 588;
},
{
anchors = (
{
name = bottom;
pos = (335,0);
},
{
name = top;
pos = (276,700);
}
);
layerId = "FF73925E-1E34-445B-881D-5A7CAAA8E8BE";
shapes = (
{
closed = 1;
nodes = (
(229,0,l),
(229,655,l),
(184,614,l),
(271,614,ls),
(361,614,o),
(410,572,o),
(410,496,cs),
(410,421,o),
(360,378,o),
(271,378,cs),
(141,378,l),
(141,293,l),
(281,293,ls),
(483,293,o),
(596,366,o),
(596,497,cs),
(596,627,o),
(483,700,o),
(281,700,cs),
(52,700,l),
(52,0,l)
);
},
{
closed = 1;
nodes = (
(631,0,l),
(433,344,l),
(262,344,l),
(441,0,l)
);
}
);
userData = {
com.hugojourdan.ColorFlow = {
"0" = 0;
"1" = 0;
"10" = 0;
"11" = 0;
"2" = 0;
"3" = 0;
"4" = 0;
"5" = 0;
"6" = 0;
"7" = 0;
"8" = 0;
"9" = 0;
};
};
width = 637;
},
{
anchors = (
{
name = bottom;
pos = (325,0);
},
{
name = top;
pos = (279,700);
}
);
layerId = "BF6BA5B2-0556-42F4-A103-614BEBF16A1A";
shapes = (
{
closed = 1;
nodes = (
(176,0,l),
(176,669,l),
(157,650,l),
(276,650,ls),
(384,650,o),
(442,603,o),
(442,508,cs),
(442,412,o),
(384,365,o),
(276,365,cs),
(164,365,l),
(164,315,l),
(281,315,ls),
(455,315,o),
(546,379,o),
(546,508,cs),
(546,636,o),
(455,700,o),
(281,700,cs),
(78,700,l),
(78,0,l)
);
},
{
closed = 1;
nodes = (
(584,0,l),
(353,332,l),
(248,332,l),
(473,0,l)
);
}
);
userData = {
com.hugojourdan.ColorFlow = {
"0" = 0;
"1" = 0;
"10" = 0;
"11" = 0;
"2" = 0;
"3" = 0;
"4" = 0;
"5" = 0;
"6" = 0;
"7" = 0;
"8" = 0;
"9" = 0;
};
};
width = 604;
},
{
anchors = (
{
name = bottom;
pos = (282,0);
},
{
name = top;
pos = (329,700);
}
);
background = {
shapes = (
{
closed = 0;
nodes = (
(173,700,l),
(56,0,l),
(104,0,l),
(219,687,l),
(197,668,l)
);
},
{
closed = 1;
nodes = (
(505,0,l),
(310,347,l),
(256,347,l),
(448,0,l)
);
},
{
closed = 0;
nodes = (
(315,328,ls),
(456,328,o),
(569,388,o),
(569,525,cs),
(569,625,o),
(484,687,o),
(328,700,c)
);
},
{
closed = 0;
nodes = (
(321,668,l),
(448,658,o),
(517,605,o),
(517,523,cs),
(517,414,o),
(428,360,o),
(307,360,cs)
);
}
);
};
guides = (
{
angle = 80.5;
pos = (96,239);
},
{
angle = 80.5;
pos = (144,239);
},
{
angle = 80.5;
pos = (556,239);
},
{
angle = 80.5;
pos = (522,239);
},
{
angle = 80.5;
pos = (470,239);
}
);
layerId = "D2741A44-CB8E-4434-9CC9-735A9A127F4C";
shapes = (
{
closed = 1;
nodes = (
(104,0,l),
(219,687,l),
(197,668,l),
(301,668,ls),
(437,668,o),
(514,613,o),
(514,516,cs),
(514,421,o),
(434,360,o),
(307,360,cs),
(140,360,l),
(135,328,l),
(315,328,ls),
(469,328,o),
(566,402,o),
(566,520,cs),
(566,637,o),
(471,700,o),
(294,700,cs),
(173,700,l),
(56,0,l)
);
},
{
closed = 1;
nodes = (
(516,0,l),
(321,347,l),
(267,347,l),
(459,0,l)
);
}
);
userData = {
com.hugojourdan.ColorFlow = {
"0" = 0;
"1" = 0;
"10" = 0;
"11" = 0;
"2" = 0;
"3" = 0;
"4" = 0;
"5" = 0;
"6" = 0;
"7" = 0;
"8" = 0;
"9" = 0;
};
};
width = 588;
},
{
anchors = (
{
name = bottom;
pos = (287,0);
},
{
name = top;
pos = (340,700);
}
);
background = {
shapes = (
{
closed = 0;
nodes = (
(343,315,ls),
(499,315,o),
(591,390,o),
(591,525,cs),
(591,629,o),
(512,687,o),
(357,700,c)
);
},
{
closed = 0;
nodes = (
(344,650,l),
(439,642,o),
(488,601,o),
(488,528,cs),
(488,435,o),
(436,365,o),
(324,365,cs)
);
}
);
};
guides = (
{
angle = 80.5;
pos = (78,245);
},
{
angle = 80.5;
pos = (176,245);
},
{
angle = 80.5;
pos = (546,245);
},
{
angle = 80.5;
pos = (442,245);
}
);
layerId = "0B63B416-D10E-4459-8DAA-360BF3D1BFD2";
shapes = (
{
closed = 1;
nodes = (
(135,0,l),
(247,669,l),
(222,650,l),
(328,650,ls),
(434,650,o),
(485,607,o),
(485,519,cs),
(485,425,o),
(422,365,o),
(324,365,cs),
(184,365,l),
(176,315,l),
(343,315,ls),
(496,315,o),
(588,391,o),
(588,518,cs),
(588,641,o),
(499,700,o),
(316,700,cs),
(154,700,l),
(37,0,l)
);
},
{
closed = 1;
nodes = (
(543,0,l),
(378,332,l),
(280,332,l),
(438,0,l)
);
}
);
userData = {
com.hugojourdan.ColorFlow = {
"0" = 0;
"1" = 0;
"10" = 0;
"11" = 0;
"2" = 0;
"3" = 0;
"4" = 0;
"5" = 0;
"6" = 0;
"7" = 0;
"8" = 0;
"9" = 0;
};
};
width = 604;
},
{
anchors = (
{
name = bottom;
pos = (298,0);
},
{
name = top;
pos = (378,700);
}
);
background = {
shapes = (
{
closed = 0;
nodes = (
(638,505,ls),
(638,615,o),
(539,685,o),
(357,700,c)
);
},
{
closed = 0;
nodes = (
(333,610,l),
(411,603,o),
(454,567,o),
(454,508,cs)
);
}
);
};
guides = (
{
angle = 80.5;
pos = (52,251);
},
{
angle = 80.5;
pos = (230,251);
},
{
angle = 80.5;
pos = (596,251);
},
{
angle = 80.5;
pos = (410,251);
}
);
layerId = "EE3858F4-A475-4EBA-A8F4-31CE9F38567C";
shapes = (
{
closed = 1;
nodes = (
(188,0,l),
(297,651,l),
(249,614,l),
(313,614,ls),
(403,614,o),
(451,577,o),
(451,508,cs),
(451,430,o),
(397,378,o),
(318,378,cs),
(163,378,l),
(149,293,l),
(349,293,ls),
(525,293,o),
(635,373,o),
(635,501,cs),
(635,629,o),
(521,700,o),
(315,700,cs),
(127,700,l),
(10,0,l)
);
},
{
closed = 1;
nodes = (
(589,0,l),
(456,344,l),
(292,344,l),
(407,0,l)
);
}
);
userData = {
com.hugojourdan.ColorFlow = {
"0" = 0;
"1" = 0;
"10" = 0;
"11" = 0;
"2" = 0;
"3" = 0;
"4" = 0;
"5" = 0;
"6" = 0;
"7" = 0;
"8" = 0;
"9" = 0;
};
};
width = 637;
}
);
metricLeft = "=H";
note = R;
unicode = 82;
},
{
glyphname = S;
kernLeft = KO_S;
kernRight = KO_S;
layers = (
{
anchors = (
{
name = bottom;
pos = (266,0);
},
{
name = top;
pos = (266,700);
}
);
layerId = m01;
shapes = (
{
closed = 1;
nodes = (
(384,-10,o),
(474,72,o),
(474,186,cs),
(474,268,o),
(420,326,o),
(295,378,cs),
(162,433,o),
(125,477,o),
(125,546,cs),
(125,625,o),
(185,678,o),
(273,678,cs),
(341,678,o),
(398,649,o),
(425,602,c),
(458,637,l),
(416,683,o),
(350,710,o),
(279,710,cs),
(161,710,o),
(76,637,o),
(76,535,cs),
(76,453,o),
(122,395,o),
(247,343,cs),
(380,288,o),
(425,244,o),
(425,175,cs),
(425,86,o),
(360,22,o),
(269,22,cs),
(192,22,o),
(130,61,o),
(94,133,c),
(59,81,l),
(103,25,o),
(181,-10,o),
(262,-10,cs)
);
}
);
userData = {
com.hugojourdan.ColorFlow = {
"0" = 0;
"1" = 0;
"10" = 0;
"11" = 0;
"2" = 0;
"3" = 0;
"4" = 0;
"5" = 0;
"6" = 0;
"7" = 0;
"8" = 0;
"9" = 0;
};
};
width = 545;
},
{
anchors = (
{
name = bottom;
pos = (317,0);
},
{
name = top;
pos = (317,700);
}
);
background = {
guides = (
{
angle = 90;
pos = (537,577);
}
);
shapes = (
{
pos = (-41,0);
ref = O;
}
);
};
guides = (
{
angle = 16.837;
pos = (113,152);
}
);
layerId = "BF6BA5B2-0556-42F4-A103-614BEBF16A1A";
shapes = (
{
closed = 1;
nodes = (
(461,-10,o),
(567,74,o),
(567,189,cs),
(567,303,o),
(509,364,o),
(345,404,cs),
(214,436,o),
(172,471,o),
(172,544,cs),
(172,624,o),
(227,664,o),
(308,664,cs),
(379,664,o),
(433,632,o),
(454,540,c),
(547,568,l),
(512,673,o),
(426,710,o),
(317,710,cs),
(176,710,o),
(79,635,o),
(79,526,cs),
(79,411,o),
(138,351,o),
(301,311,cs),
(432,279,o),
(474,244,o),
(474,171,cs),
(474,85,o),
(414,40,o),
(326,40,cs),
(251,40,o),
(184,61,o),
(147,186,c),
(52,157,l),
(97,34,o),
(204,-10,o),
(319,-10,cs)
);
}
);
userData = {
com.hugojourdan.ColorFlow = {
"0" = 0;
"1" = 0;
"10" = 0;
"11" = 0;
"2" = 0;
"3" = 0;
"4" = 0;
"5" = 0;
"6" = 0;
"7" = 0;
"8" = 0;
"9" = 0;
};
};
width = 630;
},
{
anchors = (
{
name = bottom;
pos = (316,0);
},
{
name = top;
pos = (316,700);
}
);
background = {
shapes = (
{
pos = (-33,0);
ref = O;
}
);
};
layerId = "FF73925E-1E34-445B-881D-5A7CAAA8E8BE";
name = Bold;
shapes = (
{
closed = 1;
nodes = (
(483,-10,o),
(597,80,o),
(597,213,cs),
(597,336,o),
(531,403,o),
(369,442,cs),
(264,467,o),
(225,493,o),
(225,543,cs),
(225,600,o),
(265,626,o),
(316,626,cs),
(374,626,o),
(411,596,o),
(436,517,c),
(582,563,l),
(529,681,o),
(420,710,o),
(316,710,cs),
(158,710,o),
(55,631,o),
(55,503,cs),
(55,380,o),
(119,313,o),
(281,274,cs),
(386,249,o),
(425,223,o),
(425,173,cs),
(425,106,o),
(382,76,o),
(327,76,cs),
(257,76,o),
(207,110,o),
(179,212,c),
(33,168,l),
(86,18,o),
(207,-10,o),
(324,-10,cs)
);
}
);
userData = {
com.hugojourdan.ColorFlow = {
"0" = 0;
"1" = 0;
"10" = 0;
"11" = 0;
"2" = 0;
"3" = 0;
"4" = 0;
"5" = 0;
"6" = 0;
"7" = 0;
"8" = 0;
"9" = 0;
};
};
width = 636;
},
{
anchors = (
{
name = bottom;
pos = (230,0);
},
{
name = top;
pos = (347,700);
}
);
background = {
guides = (
{
angle = 80.5;
pos = (58,239);
},
{
angle = 80.5;
pos = (473,239);
},
{
angle = 80.5;
pos = (75,239);
},
{
angle = 80.5;
pos = (457,239);
},
{
angle = 80.5;
pos = (424,239);
},
{
angle = 80.5;
pos = (124,239);
}
);
shapes = (
{
closed = 1;
nodes = (
(364,-10,o),
(464,83,o),
(464,196,cs),
(464,281,o),
(404,324,o),
(316,380,cs),
(208,449,o),
(177,477,o),
(177,541,cs),
(177,617,o),
(244,678,o),
(333,678,cs),
(402,678,o),
(463,641,o),
(482,589,c),
(521,621,l),
(484,676,o),
(413,710,o),
(334,710,cs),
(214,710,o),
(126,630,o),
(126,527,cs),
(126,442,o),
(178,399,o),
(266,343,cs),
(374,274,o),
(413,246,o),
(413,182,cs),
(413,95,o),
(340,22,o),
(243,22,cs),
(164,22,o),
(104,71,o),
(80,148,c),
(36,99,l),
(75,33,o),
(155,-10,o),
(241,-10,cs)
);
}
);
};
layerId = "D2741A44-CB8E-4434-9CC9-735A9A127F4C";
shapes = (
{
closed = 1;
nodes = (
(379,-10,o),
(463,89,o),
(463,191,cs),
(463,262,o),
(421,317,o),
(325,369,cs),
(217,427,o),
(175,462,o),
(175,532,cs),
(175,619,o),
(238,678,o),
(325,678,cs),
(403,678,o),
(461,642,o),
(482,589,c),
(521,621,l),
(484,675,o),
(413,710,o),
(335,710,cs),
(220,710,o),
(125,633,o),
(125,523,cs),
(125,452,o),
(167,397,o),
(263,345,cs),
(371,287,o),
(413,252,o),
(413,182,cs),
(413,99,o),
(352,22,o),
(248,22,cs),
(163,22,o),
(105,68,o),
(79,148,c),
(35,99,l),
(73,34,o),
(153,-10,o),
(241,-10,cs)
);
}
);
userData = {
com.hugojourdan.ColorFlow = {
"0" = 0;
"1" = 0;
"10" = 0;
"11" = 0;
"2" = 0;
"3" = 0;
"4" = 0;
"5" = 0;
"6" = 0;
"7" = 0;
"8" = 0;
"9" = 0;
};
};
width = 545;
},
{
anchors = (
{
name = bottom;
pos = (237,0);
},
{
name = top;
pos = (354,700);
}
);
guides = (
{
angle = 80.5;
pos = (45,245);
},
{
angle = 80.5;
pos = (509,245);
},
{
angle = 80.5;
pos = (489,245);
},
{
angle = 80.5;
pos = (66,245);
},
{
angle = 80.5;
pos = (159,245);
},
{
angle = 80.5;
pos = (416,245);
},
{
angle = -31.7116;
pos = (274,308);
}
);
layerId = "0B63B416-D10E-4459-8DAA-360BF3D1BFD2";
shapes = (
{
closed = 1;
nodes = (
(393,-10,o),
(499,83,o),
(499,199,cs),
(499,272,o),
(453,329,o),
(332,404,cs),
(234,465,o),
(211,498,o),
(211,548,cs),
(211,618,o),
(260,664,o),
(334,664,cs),
(404,664,o),
(450,624,o),
(481,536,c),
(546,586,l),
(506,666,o),
(434,710,o),
(341,710,cs),
(212,710,o),
(113,625,o),
(113,514,cs),
(113,441,o),
(153,384,o),
(274,309,cs),
(372,248,o),
(401,215,o),
(401,165,cs),
(401,91,o),
(345,38,o),
(266,38,cs),
(181,38,o),
(118,99,o),
(95,203,c),
(26,131,l),
(63,47,o),
(158,-10,o),
(261,-10,cs)
);
}
);
userData = {
com.hugojourdan.ColorFlow = {
"0" = 0;
"1" = 0;
"10" = 0;
"11" = 0;
"2" = 0;
"3" = 0;
"4" = 0;
"5" = 0;
"6" = 0;
"7" = 0;
"8" = 0;
"9" = 0;
};
};
width = 564;
},
{
anchors = (
{
name = bottom;
pos = (255,0);
},
{
name = top;
pos = (372,700);
}
);
guides = (
{
angle = 80.5;
pos = (33,251);
},
{
angle = 80.5;
pos = (556,251);
},
{
angle = 80.5;
pos = (541,251);
},
{
angle = 80.5;
pos = (53,251);
},
{
angle = 80.5;
pos = (227,251);
},
{
angle = 80.5;
pos = (380,251);
}
);
layerId = "EE3858F4-A475-4EBA-A8F4-31CE9F38567C";
name = Bold;
shapes = (
{
closed = 1;
nodes = (
(439,-10,o),
(546,89,o),
(546,210,cs),
(546,300,o),
(493,360,o),
(395,424,cs),
(311,479,o),
(280,517,o),
(280,560,cs),
(280,600,o),
(307,622,o),
(348,622,cs),
(407,622,o),
(456,579,o),
(485,494,c),
(596,579,l),
(523,682,o),
(433,710,o),
(343,710,cs),
(204,710,o),
(98,626,o),
(98,506,cs),
(98,416,o),
(148,355,o),
(246,292,cs),
(333,236,o),
(363,199,o),
(363,158,cs),
(363,108,o),
(331,80,o),
(289,80,cs),
(226,80,o),
(167,141,o),
(122,249,c),
(14,137,l),
(63,50,o),
(172,-10,o),
(290,-10,cs)
);
}
);
userData = {
com.hugojourdan.ColorFlow = {
"0" = 0;
"1" = 0;
"10" = 0;
"11" = 0;
"2" = 0;
"3" = 0;
"4" = 0;
"5" = 0;
"6" = 0;
"7" = 0;
"8" = 0;
"9" = 0;
};
};
width = 595;
}
);
metricLeft = "=O*0.78";
metricRight = "=O*0.94";
note = S;
unicode = 83;
},
{
glyphname = T;
kernLeft = KO_T;
kernRight = KO_T;
layers = (
{
anchors = (
{
name = bottom;
pos = (280,0);
},
{
name = top;
pos = (280,700);
}
);
layerId = m01;
shapes = (
{
closed = 1;
nodes = (
(304,0,l),
(304,668,l),
(524,668,l),
(524,700,l),
(36,700,l),
(36,668,l),
(256,668,l),
(256,0,l)
);
}
);
userData = {
com.hugojourdan.ColorFlow = {
"0" = 0;
"1" = 0;
"10" = 0;
"11" = 0;
"2" = 0;
"3" = 0;
"4" = 0;
"5" = 0;
"6" = 0;
"7" = 0;
"8" = 0;
"9" = 0;
};
};
width = 560;
},
{
anchors = (
{
name = bottom;
pos = (302,0);
},
{
name = top;
pos = (302,700);
}
);
layerId = "FF73925E-1E34-445B-881D-5A7CAAA8E8BE";
shapes = (
{
closed = 1;
nodes = (
(391,0,l),
(391,610,l),
(585,610,l),
(585,700,l),
(19,700,l),
(19,610,l),
(213,610,l),
(213,0,l)
);
}
);
userData = {
com.hugojourdan.ColorFlow = {
"0" = 0;
"1" = 0;
"10" = 0;
"11" = 0;
"2" = 0;
"3" = 0;
"4" = 0;
"5" = 0;
"6" = 0;
"7" = 0;
"8" = 0;
"9" = 0;
};
};
width = 604;
},
{
anchors = (
{
name = bottom;
pos = (298,0);
},
{
name = top;
pos = (298,700);
}
);
layerId = "BF6BA5B2-0556-42F4-A103-614BEBF16A1A";
shapes = (
{
closed = 1;
nodes = (
(347,0,l),
(347,648,l),
(562,648,l),
(562,700,l),
(34,700,l),
(34,648,l),
(249,648,l),
(249,0,l)
);
}
);
userData = {
com.hugojourdan.ColorFlow = {
"0" = 0;
"1" = 0;
"10" = 0;
"11" = 0;
"2" = 0;
"3" = 0;
"4" = 0;
"5" = 0;
"6" = 0;
"7" = 0;
"8" = 0;
"9" = 0;
};
};
width = 596;
},
{
anchors = (
{
name = bottom;
pos = (240,0);
},
{
name = top;
pos = (357,700);
}
);
layerId = "D2741A44-CB8E-4434-9CC9-735A9A127F4C";
shapes = (
{
closed = 1;
nodes = (
(264,0,l),
(376,668,l),
(596,668,l),
(601,700,l),
(113,700,l),
(108,668,l),
(328,668,l),
(216,0,l)
);
}
);
userData = {
com.hugojourdan.ColorFlow = {
"0" = 0;
"1" = 0;
"10" = 0;
"11" = 0;
"2" = 0;
"3" = 0;
"4" = 0;
"5" = 0;
"6" = 0;
"7" = 0;
"8" = 0;
"9" = 0;
};
};
width = 560;
},
{
anchors = (
{
name = bottom;
pos = (243,0);
},
{
name = top;
pos = (360,700);
}
);
layerId = "0B63B416-D10E-4459-8DAA-360BF3D1BFD2";
shapes = (
{
closed = 1;
nodes = (
(292,0,l),
(400,648,l),
(606,648,l),
(615,700,l),
(105,700,l),
(96,648,l),
(302,648,l),
(194,0,l)
);
}
);
userData = {
com.hugojourdan.ColorFlow = {
"0" = 0;
"1" = 0;
"10" = 0;
"11" = 0;
"2" = 0;
"3" = 0;
"4" = 0;
"5" = 0;
"6" = 0;
"7" = 0;
"8" = 0;
"9" = 0;
};
};
width = 568;
},
{
anchors = (
{
name = bottom;
pos = (251,0);
},
{
name = top;
pos = (368,700);
}
);
layerId = "EE3858F4-A475-4EBA-A8F4-31CE9F38567C";
shapes = (
{
closed = 1;
nodes = (
(340,0,l),
(442,610,l),
(627,610,l),
(642,700,l),
(94,700,l),
(79,610,l),
(264,610,l),
(162,0,l)
);
}
);
userData = {
com.hugojourdan.ColorFlow = {
"0" = 0;
"1" = 0;
"10" = 0;
"11" = 0;
"2" = 0;
"3" = 0;
"4" = 0;
"5" = 0;
"6" = 0;
"7" = 0;
"8" = 0;
"9" = 0;
};
};
width = 586;
}
);
metricLeft = "=H*0.37";
metricRight = "=|";
note = T;
unicode = 84;
userData = {
KernOnName = T;
};
},
{
glyphname = U;
kernLeft = KO_U;
kernRight = KO_U;
layers = (
{
anchors = (
{
name = bottom;
pos = (315,0);
},
{
name = ogonek;
pos = (383,0);
},
{
name = top;
pos = (311,700);
}
);
layerId = m01;
shapes = (
{
closed = 1;
nodes = (
(462,-10,o),
(535,81,o),
(535,280,cs),
(535,700,l),
(497,700,l),
(497,261,ls),
(497,97,o),
(438,22,o),
(309,22,cs),
(188,22,o),
(132,86,o),
(132,226,cs),
(132,700,l),
(84,700,l),
(84,250,ls),
(84,71,o),
(154,-10,o),
(303,-10,cs)
);
}
);
userData = {
com.hugojourdan.ColorFlow = {
"0" = 0;
"1" = 0;
"10" = 0;
"11" = 0;
"2" = 0;
"3" = 0;
"4" = 0;
"5" = 0;
"6" = 0;
"7" = 0;
"8" = 0;
"9" = 0;
};
};
width = 619;
},
{
anchors = (
{
name = bottom;
pos = (349,0);
},
{
name = ogonek;
pos = (410,0);
},
{
name = top;
pos = (334,700);
}
);
layerId = "FF73925E-1E34-445B-881D-5A7CAAA8E8BE";
shapes = (
{
closed = 1;
nodes = (
(504,-10,o),
(594,86,o),
(594,288,cs),
(594,700,l),
(473,700,l),
(473,244,ls),
(473,131,o),
(434,80,o),
(349,80,cs),
(266,80,o),
(224,129,o),
(224,224,cs),
(224,700,l),
(46,700,l),
(46,242,ls),
(46,74,o),
(136,-10,o),
(314,-10,cs)
);
}
);
userData = {
com.hugojourdan.ColorFlow = {
"0" = 0;
"1" = 0;
"10" = 0;
"11" = 0;
"2" = 0;
"3" = 0;
"4" = 0;
"5" = 0;
"6" = 0;
"7" = 0;
"8" = 0;
"9" = 0;
};
};
width = 640;
},
{
anchors = (
{
name = bottom;
pos = (335,0);
},
{
name = ogonek;
pos = (406,0);
},
{
name = top;
pos = (328,700);
}
);
layerId = "BF6BA5B2-0556-42F4-A103-614BEBF16A1A";
shapes = (
{
closed = 1;
nodes = (
(491,-10,o),
(573,84,o),
(573,283,cs),
(573,700,l),
(503,700,l),
(503,249,ls),
(503,104,o),
(450,38,o),
(333,38,cs),
(222,38,o),
(167,95,o),
(167,213,cs),
(167,700,l),
(69,700,l),
(69,241,ls),
(69,72,o),
(151,-10,o),
(317,-10,cs)
);
}
);
userData = {
com.hugojourdan.ColorFlow = {
"0" = 0;
"1" = 0;
"10" = 0;
"11" = 0;
"2" = 0;
"3" = 0;
"4" = 0;
"5" = 0;
"6" = 0;
"7" = 0;
"8" = 0;
"9" = 0;
};
};
width = 642;
},
{
anchors = (
{
name = bottom;
pos = (274,0);
},
{
name = ogonek;
pos = (362,0);
},
{
name = top;
pos = (393,700);
}
);
guides = (
{
angle = 80.5;
pos = (84,239);
},
{
angle = 80.5;
pos = (535,239);
},
{
angle = 80.5;
pos = (535,239);
},
{
angle = 80.5;
pos = (132,239);
},
{
angle = 80.5;
pos = (497,239);
}
);
layerId = "D2741A44-CB8E-4434-9CC9-735A9A127F4C";
shapes = (
{
closed = 1;
nodes = (
(429,-10,o),
(508,75,o),
(539,263,cs),
(612,700,l),
(574,700,l),
(499,251,ls),
(472,90,o),
(409,22,o),
(293,22,cs),
(167,22,o),
(109,102,o),
(133,245,cs),
(209,700,l),
(161,700,l),
(89,269,ls),
(59,92,o),
(131,-10,o),
(286,-10,cs)
);
}
);
userData = {
com.hugojourdan.ColorFlow = {
"0" = 0;
"1" = 0;
"10" = 0;
"11" = 0;
"2" = 0;
"3" = 0;
"4" = 0;
"5" = 0;
"6" = 0;
"7" = 0;
"8" = 0;
"9" = 0;
};
};
width = 619;
},
{
anchors = (
{
name = bottom;
pos = (293,0);
},
{
name = ogonek;
pos = (387,0);
},
{
name = top;
pos = (409,700);
}
);
guides = (
{
angle = 80.5;
pos = (69,245);
},
{
angle = 80.5;
pos = (573,245);
},
{
angle = 80.5;
pos = (503,245);
},
{
angle = 80.5;
pos = (166,245);
}
);
layerId = "0B63B416-D10E-4459-8DAA-360BF3D1BFD2";
shapes = (
{
closed = 1;
nodes = (
(460,-10,o),
(545,73,o),
(576,262,cs),
(648,700,l),
(578,700,l),
(501,233,ls),
(478,94,o),
(423,38,o),
(315,38,cs),
(201,38,o),
(142,101,o),
(163,227,cs),
(242,700,l),
(145,700,l),
(72,263,ls),
(42,83,o),
(130,-10,o),
(302,-10,cs)
);
}
);
userData = {
com.hugojourdan.ColorFlow = {
"0" = 0;
"1" = 0;
"10" = 0;
"11" = 0;
"2" = 0;
"3" = 0;
"4" = 0;
"5" = 0;
"6" = 0;
"7" = 0;
"8" = 0;
"9" = 0;
};
};
width = 642;
},
{
anchors = (
{
name = bottom;
pos = (306,0);
},
{
name = ogonek;
pos = (394,0);
},
{
name = top;
pos = (415,700);
}
);
guides = (
{
angle = 80.5;
pos = (46,251);
},
{
angle = 80.5;
pos = (594,251);
},
{
angle = 80.5;
pos = (473,251);
},
{
angle = 80.5;
pos = (224,251);
}
);
layerId = "EE3858F4-A475-4EBA-A8F4-31CE9F38567C";
shapes = (
{
closed = 1;
nodes = (
(479,-10,o),
(566,79,o),
(596,263,cs),
(668,700,l),
(547,700,l),
(470,233,ls),
(452,125,o),
(411,80,o),
(333,80,cs),
(245,80,o),
(205,136,o),
(221,233,cs),
(299,700,l),
(121,700,l),
(49,269,ls),
(19,87,o),
(116,-10,o),
(301,-10,cs)
);
}
);
userData = {
com.hugojourdan.ColorFlow = {
"0" = 0;
"1" = 0;
"10" = 0;
"11" = 0;
"2" = 0;
"3" = 0;
"4" = 0;
"5" = 0;
"6" = 0;
"7" = 0;
"8" = 0;
"9" = 0;
};
};
width = 640;
}
);
metricLeft = "=H*0.88";
metricRight = "=|";
note = U;
unicode = 85;
},
{
glyphname = V;
kernLeft = KO_V;
kernRight = KO_V;
layers = (
{
layerId = m01;
shapes = (
{
closed = 1;
nodes = (
(320,0,l),
(557,700,l),
(519,700,l),
(296,39,l),
(315,39,l),
(99,700,l),
(45,700,l),
(281,0,l)
);
}
);
userData = {
com.hugojourdan.ColorFlow = {
"0" = 0;
"1" = 0;
"10" = 0;
"11" = 0;
"2" = 0;
"3" = 0;
"4" = 0;
"5" = 0;
"6" = 0;
"7" = 0;
"8" = 0;
"9" = 0;
};
};
width = 602;
},
{
layerId = "FF73925E-1E34-445B-881D-5A7CAAA8E8BE";
shapes = (
{
closed = 1;
nodes = (
(405,0,l),
(601,700,l),
(501,700,l),
(341,121,l),
(355,121,l),
(206,700,l),
(11,700,l),
(208,0,l)
);
}
);
userData = {
com.hugojourdan.ColorFlow = {
"0" = 0;
"1" = 0;
"10" = 0;
"11" = 0;
"2" = 0;
"3" = 0;
"4" = 0;
"5" = 0;
"6" = 0;
"7" = 0;
"8" = 0;
"9" = 0;
};
};
width = 612;
},
{
layerId = "BF6BA5B2-0556-42F4-A103-614BEBF16A1A";
shapes = (
{
closed = 1;
nodes = (
(351,0,l),
(573,700,l),
(505,700,l),
(310,73,l),
(321,73,l),
(134,700,l),
(29,700,l),
(250,0,l)
);
}
);
userData = {
com.hugojourdan.ColorFlow = {
"0" = 0;
"1" = 0;
"10" = 0;
"11" = 0;
"2" = 0;
"3" = 0;
"4" = 0;
"5" = 0;
"6" = 0;
"7" = 0;
"8" = 0;
"9" = 0;
};
};
width = 602;
},
{
layerId = "D2741A44-CB8E-4434-9CC9-735A9A127F4C";
shapes = (
{
closed = 1;
nodes = (
(275,0,l),
(634,700,l),
(594,700,l),
(255,39,l),
(275,39,l),
(174,700,l),
(122,700,l),
(236,0,l)
);
}
);
userData = {
com.hugojourdan.ColorFlow = {
"0" = 0;
"1" = 0;
"10" = 0;
"11" = 0;
"2" = 0;
"3" = 0;
"4" = 0;
"5" = 0;
"6" = 0;
"7" = 0;
"8" = 0;
"9" = 0;
};
};
width = 602;
},
{
layerId = "0B63B416-D10E-4459-8DAA-360BF3D1BFD2";
shapes = (
{
closed = 1;
nodes = (
(305,0,l),
(649,700,l),
(579,700,l),
(275,73,l),
(287,73,l),
(207,700,l),
(105,700,l),
(204,0,l)
);
}
);
userData = {
com.hugojourdan.ColorFlow = {
"0" = 0;
"1" = 0;
"10" = 0;
"11" = 0;
"2" = 0;
"3" = 0;
"4" = 0;
"5" = 0;
"6" = 0;
"7" = 0;
"8" = 0;
"9" = 0;
};
};
width = 602;
},
{
layerId = "EE3858F4-A475-4EBA-A8F4-31CE9F38567C";
shapes = (
{
closed = 1;
nodes = (
(360,0,l),
(676,700,l),
(572,700,l),
(315,121,l),
(328,121,l),
(277,700,l),
(86,700,l),
(163,0,l)
);
}
);
userData = {
com.hugojourdan.ColorFlow = {
"0" = 0;
"1" = 0;
"10" = 0;
"11" = 0;
"2" = 0;
"3" = 0;
"4" = 0;
"5" = 0;
"6" = 0;
"7" = 0;
"8" = 0;
"9" = 0;
};
};
width = 612;
}
);
metricLeft = "=W*0.82";
metricRight = "=|";
note = V;
unicode = 86;
userData = {
KernOnName = V;
};
},
{
glyphname = W;
kernLeft = KO_W;
kernRight = KO_W;
layers = (
{
anchors = (
{
name = bottom;
pos = (436,0);
},
{
name = top;
pos = (443,700);
}
);
layerId = m01;
shapes = (
{
closed = 1;
nodes = (
(661,0,l),
(858,700,l),
(820,700,l),
(639,51,l),
(648,51,l),
(451,700,l),
(400,700,l),
(616,0,l)
);
},
{
closed = 1;
nodes = (
(256,0,l),
(467,636,l),
(430,636,l),
(236,51,l),
(247,51,l),
(96,700,l),
(44,700,l),
(211,0,l)
);
}
);
userData = {
com.hugojourdan.ColorFlow = {
"0" = 0;
"1" = 0;
"10" = 0;
"11" = 0;
"2" = 0;
"3" = 0;
"4" = 0;
"5" = 0;
"6" = 0;
"7" = 0;
"8" = 0;
"9" = 0;
};
};
width = 902;
},
{
anchors = (
{
name = bottom;
pos = (517,0);
},
{
name = top;
pos = (525,700);
}
);
layerId = "FF73925E-1E34-445B-881D-5A7CAAA8E8BE";
shapes = (
{
closed = 1;
nodes = (
(799,0,l),
(971,700,l),
(878,700,l),
(746,144,l),
(760,144,l),
(632,700,l),
(446,700,l),
(617,0,l)
);
},
{
closed = 1;
nodes = (
(367,0,l),
(539,700,l),
(446,700,l),
(314,144,l),
(328,144,l),
(200,700,l),
(14,700,l),
(185,0,l)
);
}
);
userData = {
com.hugojourdan.ColorFlow = {
"0" = 0;
"1" = 0;
"10" = 0;
"11" = 0;
"2" = 0;
"3" = 0;
"4" = 0;
"5" = 0;
"6" = 0;
"7" = 0;
"8" = 0;
"9" = 0;
};
};
width = 985;
},
{
anchors = (
{
name = bottom;
pos = (462,0);
},
{
name = top;
pos = (470,700);
}
);
layerId = "BF6BA5B2-0556-42F4-A103-614BEBF16A1A";
shapes = (
{
closed = 1;
nodes = (
(711,0,l),
(892,700,l),
(824,700,l),
(668,84,l),
(686,84,l),
(534,700,l),
(432,700,l),
(612,0,l)
);
},
{
closed = 1;
nodes = (
(320,0,l),
(500,700,l),
(432,700,l),
(277,84,l),
(295,84,l),
(142,700,l),
(40,700,l),
(221,0,l)
);
}
);
userData = {
com.hugojourdan.ColorFlow = {
"0" = 0;
"1" = 0;
"10" = 0;
"11" = 0;
"2" = 0;
"3" = 0;
"4" = 0;
"5" = 0;
"6" = 0;
"7" = 0;
"8" = 0;
"9" = 0;
};
};
width = 932;
},
{
associatedMasterId = "FF73925E-1E34-445B-881D-5A7CAAA8E8BE";
guides = (
{
angle = -75.4826;
pos = (484,351);
},
{
angle = -75.483;
pos = (651,423);
},
{
angle = 72.9283;
pos = (434,325);
},
{
angle = 72.928;
pos = (360,398);
}
);
layerId = "0D3E5DCB-CBFC-488A-BF71-9738605AEC1C";
name = "19 Jun 23 4.03 PM";
shapes = (
{
closed = 1;
nodes = (
(792,0,l),
(975,700,l),
(875,700,l),
(718,69,l),
(743,69,l),
(579,700,l),
(423,700,l),
(606,0,l)
);
},
{
closed = 1;
nodes = (
(388,0,l),
(559,656,l),
(467,656,l),
(314,69,l),
(339,69,l),
(175,700,l),
(19,700,l),
(202,0,l)
);
}
);
userData = {
com.hugojourdan.ColorFlow = {
"0" = 0;
"1" = 0;
"10" = 0;
"11" = 0;
"2" = 0;
"3" = 0;
"4" = 0;
"5" = 0;
"6" = 0;
"7" = 0;
"8" = 0;
"9" = 0;
};
};
width = 994;
},
{
anchors = (
{
name = bottom;
pos = (392,0);
},
{
name = top;
pos = (517,700);
}
);
layerId = "D2741A44-CB8E-4434-9CC9-735A9A127F4C";
shapes = (
{
closed = 1;
nodes = (
(616,0,l),
(935,700,l),
(897,700,l),
(602,51,l),
(611,51,l),
(525,700,l),
(474,700,l),
(570,0,l)
);
},
{
closed = 1;
nodes = (
(213,0,l),
(531,623,l),
(492,623,l),
(201,51,l),
(214,51,l),
(172,700,l),
(121,700,l),
(170,0,l)
);
}
);
userData = {
com.hugojourdan.ColorFlow = {
"0" = 0;
"1" = 0;
"10" = 0;
"11" = 0;
"2" = 0;
"3" = 0;
"4" = 0;
"5" = 0;
"6" = 0;
"7" = 0;
"8" = 0;
"9" = 0;
};
};
width = 902;
},
{
anchors = (
{
name = bottom;
pos = (411,0);
},
{
name = top;
pos = (539,700);
}
);
layerId = "0B63B416-D10E-4459-8DAA-360BF3D1BFD2";
shapes = (
{
closed = 1;
nodes = (
(676,0,l),
(963,700,l),
(901,700,l),
(647,84,l),
(659,84,l),
(567,700,l),
(465,700,l),
(573,0,l)
);
},
{
closed = 1;
nodes = (
(248,0,l),
(568,613,l),
(502,613,l),
(225,84,l),
(242,84,l),
(212,700,l),
(111,700,l),
(153,0,l)
);
}
);
userData = {
com.hugojourdan.ColorFlow = {
"0" = 0;
"1" = 0;
"10" = 0;
"11" = 0;
"2" = 0;
"3" = 0;
"4" = 0;
"5" = 0;
"6" = 0;
"7" = 0;
"8" = 0;
"9" = 0;
};
};
width = 922;
},
{
anchors = (
{
name = bottom;
pos = (402,0);
},
{
name = top;
pos = (549,700);
}
);
layerId = "EE3858F4-A475-4EBA-A8F4-31CE9F38567C";
shapes = (
{
closed = 1;
nodes = (
(718,0,l),
(991,700,l),
(892,700,l),
(671,145,l),
(688,145,l),
(636,700,l),
(451,700,l),
(524,0,l)
);
},
{
closed = 1;
nodes = (
(280,0,l),
(599,655,l),
(498,655,l),
(251,145,l),
(271,145,l),
(274,700,l),
(89,700,l),
(102,0,l)
);
}
);
userData = {
com.hugojourdan.ColorFlow = {
"0" = 0;
"1" = 0;
"10" = 0;
"11" = 0;
"2" = 0;
"3" = 0;
"4" = 0;
"5" = 0;
"6" = 0;
"7" = 0;
"8" = 0;
"9" = 0;
};
};
width = 930;
}
);
metricRight = "=|";
note = W;
unicode = 87;
},
{
glyphname = X;
kernLeft = KO_X;
kernRight = KO_X;
layers = (
{
layerId = m01;
shapes = (
{
closed = 1;
nodes = (
(558,0,l),
(336,351,l),
(549,700,l),
(508,700,l),
(290,341,l),
(502,0,l)
);
},
{
closed = 1;
nodes = (
(91,0,l),
(327,361,l),
(115,700,l),
(59,700,l),
(280,351,l),
(50,0,l)
);
}
);
userData = {
com.hugojourdan.ColorFlow = {
"0" = 0;
"1" = 0;
"10" = 0;
"11" = 0;
"2" = 0;
"3" = 0;
"4" = 0;
"5" = 0;
"6" = 0;
"7" = 0;
"8" = 0;
"9" = 0;
};
};
width = 608;
},
{
layerId = "FF73925E-1E34-445B-881D-5A7CAAA8E8BE";
shapes = (
{
closed = 1;
nodes = (
(591,0,l),
(394,381,l),
(596,700,l),
(489,700,l),
(245,314,l),
(391,0,l)
);
},
{
closed = 1;
nodes = (
(123,0,l),
(368,388,l),
(221,700,l),
(21,700,l),
(219,321,l),
(16,0,l)
);
}
);
userData = {
com.hugojourdan.ColorFlow = {
"0" = 0;
"1" = 0;
"10" = 0;
"11" = 0;
"2" = 0;
"3" = 0;
"4" = 0;
"5" = 0;
"6" = 0;
"7" = 0;
"8" = 0;
"9" = 0;
};
};
width = 612;
},
{
layerId = "BF6BA5B2-0556-42F4-A103-614BEBF16A1A";
shapes = (
{
closed = 1;
nodes = (
(561,0,l),
(355,364,l),
(569,700,l),
(502,700,l),
(267,332,l),
(450,0,l)
);
},
{
closed = 1;
nodes = (
(107,0,l),
(342,368,l),
(159,700,l),
(48,700,l),
(254,336,l),
(40,0,l)
);
}
);
userData = {
com.hugojourdan.ColorFlow = {
"0" = 0;
"1" = 0;
"10" = 0;
"11" = 0;
"2" = 0;
"3" = 0;
"4" = 0;
"5" = 0;
"6" = 0;
"7" = 0;
"8" = 0;
"9" = 0;
};
};
width = 609;
},
{
layerId = "D2741A44-CB8E-4434-9CC9-735A9A127F4C";
shapes = (
{
closed = 1;
nodes = (
(502,0,l),
(360,348,l),
(635,700,l),
(592,700,l),
(312,342,l),
(450,0,l)
);
},
{
closed = 1;
nodes = (
(54,0,l),
(353,359,l),
(215,700,l),
(162,700,l),
(304,353,l),
(10,0,l)
);
}
);
userData = {
com.hugojourdan.ColorFlow = {
"0" = 0;
"1" = 0;
"10" = 0;
"11" = 0;
"2" = 0;
"3" = 0;
"4" = 0;
"5" = 0;
"6" = 0;
"7" = 0;
"8" = 0;
"9" = 0;
};
};
width = 608;
},
{
layerId = "0B63B416-D10E-4459-8DAA-360BF3D1BFD2";
shapes = (
{
closed = 1;
nodes = (
(494,0,l),
(375,360,l),
(645,700,l),
(574,700,l),
(283,335,l),
(388,0,l)
);
},
{
closed = 1;
nodes = (
(70,0,l),
(362,365,l),
(256,700,l),
(150,700,l),
(270,340,l),
(-1,0,l)
);
}
);
userData = {
com.hugojourdan.ColorFlow = {
"0" = 0;
"1" = 0;
"10" = 0;
"11" = 0;
"2" = 0;
"3" = 0;
"4" = 0;
"5" = 0;
"6" = 0;
"7" = 0;
"8" = 0;
"9" = 0;
};
};
width = 609;
},
{
layerId = "EE3858F4-A475-4EBA-A8F4-31CE9F38567C";
shapes = (
{
closed = 1;
nodes = (
(521,0,l),
(415,374,l),
(671,700,l),
(557,700,l),
(257,319,l),
(330,0,l)
);
},
{
closed = 1;
nodes = (
(88,0,l),
(391,383,l),
(315,700,l),
(124,700,l),
(232,328,l),
(-26,0,l)
);
}
);
userData = {
com.hugojourdan.ColorFlow = {
"0" = 0;
"1" = 0;
"10" = 0;
"11" = 0;
"2" = 0;
"3" = 0;
"4" = 0;
"5" = 0;
"6" = 0;
"7" = 0;
"8" = 0;
"9" = 0;
};
};
width = 612;
}
);
metricLeft = "=W*1.14";
metricRight = "=|";
note = X;
unicode = 88;
},
{
glyphname = Y;
kernLeft = KO_Y;
kernRight = KO_Y;
layers = (
{
anchors = (
{
name = bottom;
pos = (286,0);
},
{
name = top;
pos = (300,700);
}
);
layerId = m01;
shapes = (
{
closed = 1;
nodes = (
(310,0,l),
(310,293,l),
(535,700,l),
(496,700,l),
(278,309,l),
(307,309,l),
(104,700,l),
(49,700,l),
(262,294,l),
(262,0,l)
);
}
);
userData = {
com.hugojourdan.ColorFlow = {
"0" = 0;
"1" = 0;
"10" = 0;
"11" = 0;
"2" = 0;
"3" = 0;
"4" = 0;
"5" = 0;
"6" = 0;
"7" = 0;
"8" = 0;
"9" = 0;
};
};
width = 584;
},
{
anchors = (
{
name = bottom;
pos = (291,0);
},
{
name = top;
pos = (344,700);
}
);
layerId = "FF73925E-1E34-445B-881D-5A7CAAA8E8BE";
shapes = (
{
closed = 1;
nodes = (
(380,0,l),
(380,268,l),
(582,700,l),
(475,700,l),
(314,328,l),
(356,328,l),
(212,700,l),
(12,700,l),
(202,269,l),
(202,0,l)
);
}
);
userData = {
com.hugojourdan.ColorFlow = {
"0" = 0;
"1" = 0;
"10" = 0;
"11" = 0;
"2" = 0;
"3" = 0;
"4" = 0;
"5" = 0;
"6" = 0;
"7" = 0;
"8" = 0;
"9" = 0;
};
};
width = 594;
},
{
anchors = (
{
name = bottom;
pos = (284,0);
},
{
name = top;
pos = (311,700);
}
);
layerId = "BF6BA5B2-0556-42F4-A103-614BEBF16A1A";
shapes = (
{
closed = 1;
nodes = (
(333,0,l),
(333,284,l),
(549,700,l),
(481,700,l),
(292,327,l),
(315,327,l),
(141,700,l),
(31,700,l),
(235,284,l),
(235,0,l)
);
}
);
userData = {
com.hugojourdan.ColorFlow = {
"0" = 0;
"1" = 0;
"10" = 0;
"11" = 0;
"2" = 0;
"3" = 0;
"4" = 0;
"5" = 0;
"6" = 0;
"7" = 0;
"8" = 0;
"9" = 0;
};
};
width = 580;
},
{
anchors = (
{
name = bottom;
pos = (246,0);
},
{
name = top;
pos = (377,700);
}
);
layerId = "D2741A44-CB8E-4434-9CC9-735A9A127F4C";
shapes = (
{
closed = 1;
nodes = (
(270,0,l),
(319,294,l),
(612,700,l),
(573,700,l),
(290,310,l),
(319,310,l),
(181,700,l),
(126,700,l),
(271,295,l),
(222,0,l)
);
}
);
userData = {
com.hugojourdan.ColorFlow = {
"0" = 0;
"1" = 0;
"10" = 0;
"11" = 0;
"2" = 0;
"3" = 0;
"4" = 0;
"5" = 0;
"6" = 0;
"7" = 0;
"8" = 0;
"9" = 0;
};
};
width = 584;
},
{
anchors = (
{
name = bottom;
pos = (243,0);
},
{
name = top;
pos = (387,700);
}
);
layerId = "0B63B416-D10E-4459-8DAA-360BF3D1BFD2";
shapes = (
{
closed = 1;
nodes = (
(292,0,l),
(340,285,l),
(625,700,l),
(557,700,l),
(306,328,l),
(329,328,l),
(217,700,l),
(107,700,l),
(242,285,l),
(194,0,l)
);
}
);
userData = {
com.hugojourdan.ColorFlow = {
"0" = 0;
"1" = 0;
"10" = 0;
"11" = 0;
"2" = 0;
"3" = 0;
"4" = 0;
"5" = 0;
"6" = 0;
"7" = 0;
"8" = 0;
"9" = 0;
};
};
width = 580;
},
{
anchors = (
{
name = bottom;
pos = (249,0);
},
{
name = top;
pos = (419,700);
}
);
layerId = "EE3858F4-A475-4EBA-A8F4-31CE9F38567C";
shapes = (
{
closed = 1;
nodes = (
(338,0,l),
(383,268,l),
(657,700,l),
(550,700,l),
(327,328,l),
(369,328,l),
(287,700,l),
(87,700,l),
(205,269,l),
(160,0,l)
);
}
);
userData = {
com.hugojourdan.ColorFlow = {
"0" = 0;
"1" = 0;
"10" = 0;
"11" = 0;
"2" = 0;
"3" = 0;
"4" = 0;
"5" = 0;
"6" = 0;
"7" = 0;
"8" = 0;
"9" = 0;
};
};
width = 594;
}
);
metricLeft = "=V*1.08";
metricRight = "=|";
note = Y;
unicode = 89;
},
{
glyphname = Z;
kernLeft = KO_Z;
kernRight = KO_Z;
layers = (
{
anchors = (
{
name = bottom;
pos = (271,0);
},
{
name = top;
pos = (281,700);
}
);
layerId = m01;
shapes = (
{
closed = 1;
nodes = (
(489,0,l),
(489,32,l),
(108,32,l),
(108,24,l),
(486,673,l),
(486,700,l),
(75,700,l),
(75,668,l),
(431,668,l),
(431,676,l),
(52,25,l),
(52,0,l)
);
}
);
userData = {
com.hugojourdan.ColorFlow = {
"0" = 0;
"1" = 0;
"10" = 0;
"11" = 0;
"2" = 0;
"3" = 0;
"4" = 0;
"5" = 0;
"6" = 0;
"7" = 0;
"8" = 0;
"9" = 0;
};
};
width = 544;
},
{
anchors = (
{
name = bottom;
pos = (279,0);
},
{
name = top;
pos = (293,700);
}
);
layerId = "FF73925E-1E34-445B-881D-5A7CAAA8E8BE";
shapes = (
{
closed = 1;
nodes = (
(527,0,l),
(527,88,l),
(194,88,l),
(218,44,l),
(529,627,l),
(529,700,l),
(56,700,l),
(56,612,l),
(370,612,l),
(346,656,l),
(30,70,l),
(30,0,l)
);
}
);
userData = {
com.hugojourdan.ColorFlow = {
"0" = 0;
"1" = 0;
"10" = 0;
"11" = 0;
"2" = 0;
"3" = 0;
"4" = 0;
"5" = 0;
"6" = 0;
"7" = 0;
"8" = 0;
"9" = 0;
};
};
width = 563;
},
{
anchors = (
{
name = bottom;
pos = (274,0);
},
{
name = top;
pos = (283,700);
}
);
layerId = "BF6BA5B2-0556-42F4-A103-614BEBF16A1A";
shapes = (
{
closed = 1;
nodes = (
(503,0,l),
(503,52,l),
(116,52,l),
(139,13,l),
(502,655,l),
(498,700,l),
(68,700,l),
(68,648,l),
(432,648,l),
(409,687,l),
(44,42,l),
(48,0,l)
);
}
);
userData = {
com.hugojourdan.ColorFlow = {
"0" = 0;
"1" = 0;
"10" = 0;
"11" = 0;
"2" = 0;
"3" = 0;
"4" = 0;
"5" = 0;
"6" = 0;
"7" = 0;
"8" = 0;
"9" = 0;
};
};
width = 551;
},
{
anchors = (
{
name = bottom;
pos = (231,0);
},
{
name = top;
pos = (351,700);
}
);
layerId = "D2741A44-CB8E-4434-9CC9-735A9A127F4C";
shapes = (
{
closed = 1;
nodes = (
(449,0,l),
(454,32,l),
(73,32,l),
(72,24,l),
(559,673,l),
(563,700,l),
(152,700,l),
(147,668,l),
(503,668,l),
(504,676,l),
(16,25,l),
(12,0,l)
);
}
);
userData = {
com.hugojourdan.ColorFlow = {
"0" = 0;
"1" = 0;
"10" = 0;
"11" = 0;
"2" = 0;
"3" = 0;
"4" = 0;
"5" = 0;
"6" = 0;
"7" = 0;
"8" = 0;
"9" = 0;
};
};
width = 544;
},
{
anchors = (
{
name = bottom;
pos = (233,0);
},
{
name = top;
pos = (359,700);
}
);
layerId = "0B63B416-D10E-4459-8DAA-360BF3D1BFD2";
shapes = (
{
closed = 1;
nodes = (
(462,0,l),
(471,52,l),
(84,52,l),
(100,13,l),
(571,655,l),
(574,700,l),
(144,700,l),
(135,648,l),
(499,648,l),
(483,687,l),
(10,42,l),
(7,0,l)
);
}
);
userData = {
com.hugojourdan.ColorFlow = {
"0" = 0;
"1" = 0;
"10" = 0;
"11" = 0;
"2" = 0;
"3" = 0;
"4" = 0;
"5" = 0;
"6" = 0;
"7" = 0;
"8" = 0;
"9" = 0;
};
};
width = 551;
},
{
anchors = (
{
name = bottom;
pos = (237,0);
},
{
name = top;
pos = (368,700);
}
);
layerId = "EE3858F4-A475-4EBA-A8F4-31CE9F38567C";
shapes = (
{
closed = 1;
nodes = (
(485,0,l),
(500,88,l),
(167,88,l),
(183,44,l),
(592,627,l),
(604,700,l),
(131,700,l),
(116,612,l),
(430,612,l),
(414,656,l),
(0,70,l),
(-12,0,l)
);
}
);
userData = {
com.hugojourdan.ColorFlow = {
"0" = 0;
"1" = 0;
"10" = 0;
"11" = 0;
"2" = 0;
"3" = 0;
"4" = 0;
"5" = 0;
"6" = 0;
"7" = 0;
"8" = 0;
"9" = 0;
};
};
width = 563;
}
);
note = Z;
unicode = 90;
},
{
export = 0;
glyphname = AE;
kernRight = KO_E;
layers = (
{
anchors = (
{
name = top;
pos = (482,700);
}
);
layerId = m01;
shapes = (
{
closed = 1;
nodes = (
(86,0,l),
(456,684,l),
(425,700,l),
(45,0,l)
);
},
{
closed = 1;
nodes = (
(442,202,l),
(442,232,l),
(180,232,l),
(180,202,l)
);
},
{
closed = 1;
nodes = (
(806,0,l),
(806,32,l),
(453,32,l),
(473,12,l),
(473,687,l),
(453,668,l),
(796,668,l),
(796,700,l),
(425,700,l),
(425,0,l)
);
},
{
closed = 1;
nodes = (
(773,347,l),
(773,377,l),
(449,377,l),
(449,347,l)
);
}
);
userData = {
com.hugojourdan.ColorFlow = {
"0" = 0;
"1" = 0;
"10" = 0;
"11" = 0;
"2" = 0;
"3" = 0;
"4" = 0;
"5" = 0;
"6" = 0;
"7" = 0;
"8" = 0;
"9" = 0;
};
};
width = 850;
},
{
anchors = (
{
name = top;
pos = (488,700);
}
);
layerId = "BF6BA5B2-0556-42F4-A103-614BEBF16A1A";
shapes = (
{
closed = 1;
nodes = (
(98,0,l),
(453,660,l),
(405,700,l),
(29,0,l)
);
},
{
closed = 1;
nodes = (
(454,191,l),
(454,241,l),
(181,241,l),
(181,191,l)
);
},
{
closed = 1;
nodes = (
(813,0,l),
(813,52,l),
(481,52,l),
(503,30,l),
(503,669,l),
(482,648,l),
(801,648,l),
(801,700,l),
(405,700,l),
(405,0,l)
);
},
{
closed = 1;
nodes = (
(780,341,l),
(780,389,l),
(453,389,l),
(453,341,l)
);
}
);
userData = {
com.hugojourdan.ColorFlow = {
"0" = 0;
"1" = 0;
"10" = 0;
"11" = 0;
"2" = 0;
"3" = 0;
"4" = 0;
"5" = 0;
"6" = 0;
"7" = 0;
"8" = 0;
"9" = 0;
};
};
width = 849;
},
{
anchors = (
{
name = top;
pos = (500,700);
}
);
layerId = "FF73925E-1E34-445B-881D-5A7CAAA8E8BE";
shapes = (
{
closed = 1;
nodes = (
(115,0,l),
(450,643,l),
(381,700,l),
(11,0,l)
);
},
{
closed = 1;
nodes = (
(470,173,l),
(470,253,l),
(172,253,l),
(172,173,l)
);
},
{
closed = 1;
nodes = (
(832,0,l),
(832,87,l),
(517,87,l),
(559,48,l),
(559,651,l),
(518,614,l),
(822,614,l),
(822,700,l),
(381,700,l),
(381,0,l)
);
},
{
closed = 1;
nodes = (
(799,323,l),
(799,403,l),
(470,403,l),
(470,323,l)
);
}
);
userData = {
com.hugojourdan.ColorFlow = {
"0" = 0;
"1" = 0;
"10" = 0;
"11" = 0;
"2" = 0;
"3" = 0;
"4" = 0;
"5" = 0;
"6" = 0;
"7" = 0;
"8" = 0;
"9" = 0;
};
};
width = 856;
},
{
anchors = (
{
name = top;
pos = (560,700);
}
);
layerId = "D2741A44-CB8E-4434-9CC9-735A9A127F4C";
shapes = (
{
closed = 1;
nodes = (
(48,0,l),
(529,680,l),
(501,700,l),
(5,0,l)
);
},
{
closed = 1;
nodes = (
(438,202,l),
(443,232,l),
(181,232,l),
(176,202,l)
);
},
{
closed = 1;
nodes = (
(766,0,l),
(771,32,l),
(418,32,l),
(435,12,l),
(548,687,l),
(526,668,l),
(868,668,l),
(873,700,l),
(502,700,l),
(385,0,l)
);
},
{
closed = 1;
nodes = (
(791,347,l),
(796,377,l),
(472,377,l),
(467,347,l)
);
}
);
userData = {
com.hugojourdan.ColorFlow = {
"0" = 0;
"1" = 0;
"10" = 0;
"11" = 0;
"2" = 0;
"3" = 0;
"4" = 0;
"5" = 0;
"6" = 0;
"7" = 0;
"8" = 0;
"9" = 0;
};
};
width = 850;
},
{
anchors = (
{
name = top;
pos = (564,700);
}
);
layerId = "0B63B416-D10E-4459-8DAA-360BF3D1BFD2";
shapes = (
{
closed = 1;
nodes = (
(57,0,l),
(522,660,l),
(481,700,l),
(-12,0,l)
);
},
{
closed = 1;
nodes = (
(445,191,l),
(453,241,l),
(180,241,l),
(172,191,l)
);
},
{
closed = 1;
nodes = (
(772,0,l),
(781,52,l),
(449,52,l),
(467,30,l),
(574,669,l),
(549,648,l),
(868,648,l),
(877,700,l),
(481,700,l),
(364,0,l)
);
},
{
closed = 1;
nodes = (
(796,341,l),
(804,389,l),
(477,389,l),
(469,341,l)
);
}
);
userData = {
com.hugojourdan.ColorFlow = {
"0" = 0;
"1" = 0;
"10" = 0;
"11" = 0;
"2" = 0;
"3" = 0;
"4" = 0;
"5" = 0;
"6" = 0;
"7" = 0;
"8" = 0;
"9" = 0;
};
};
width = 849;
},
{
anchors = (
{
name = top;
pos = (575,700);
}
);
layerId = "EE3858F4-A475-4EBA-A8F4-31CE9F38567C";
shapes = (
{
closed = 1;
nodes = (
(73,0,l),
(516,643,l),
(456,700,l),
(-31,0,l)
);
},
{
closed = 1;
nodes = (
(457,173,l),
(470,253,l),
(172,253,l),
(159,173,l)
);
},
{
closed = 1;
nodes = (
(790,0,l),
(804,87,l),
(490,87,l),
(525,48,l),
(626,651,l),
(578,614,l),
(883,614,l),
(897,700,l),
(456,700,l),
(339,0,l)
);
},
{
closed = 1;
nodes = (
(811,323,l),
(824,403,l),
(495,403,l),
(482,323,l)
);
}
);
userData = {
com.hugojourdan.ColorFlow = {
"0" = 0;
"1" = 0;
"10" = 0;
"11" = 0;
"2" = 0;
"3" = 0;
"4" = 0;
"5" = 0;
"6" = 0;
"7" = 0;
"8" = 0;
"9" = 0;
};
};
width = 856;
}
);
metricLeft = "=A";
metricRight = "=E";
unicode = 198;
},
{
export = 0;
glyphname = Eng;
layers = (
{
guides = (
{
angle = 90;
pos = (558,350);
},
{
angle = 270;
pos = (521,378);
}
);
layerId = m01;
shapes = (
{
closed = 1;
nodes = (
(531,-185,o),
(558,-146,o),
(558,-75,cs),
(558,700,l),
(521,700,l),
(521,54,l),
(543,62,l),
(126,700,l),
(96,700,l),
(96,0,l),
(133,0,l),
(133,651,l),
(107,643,l),
(526,0,l),
(521,26,l),
(521,-81,ls),
(521,-129,o),
(504,-157,o),
(474,-157,cs),
(453,-157,o),
(425,-140,o),
(402,-111,c),
(386,-158,l),
(423,-177,o),
(457,-185,o),
(480,-185,cs)
);
}
);
userData = {
com.hugojourdan.ColorFlow = {
"0" = 0;
"1" = 0;
"10" = 0;
"11" = 0;
"2" = 0;
"3" = 0;
"4" = 0;
"5" = 0;
"6" = 0;
"7" = 0;
"8" = 0;
"9" = 0;
};
};
width = 654;
},
{
background = {
shapes = (
{
closed = 0;
nodes = (
(483,-74,ls),
(483,-116,o),
(466,-141,o),
(441,-141,cs),
(415,-141,o),
(390,-124,o),
(360,-84,c),
(340,-149,l),
(379,-174,o),
(415,-185,o),
(458,-185,cs),
(534,-185,o),
(576,-142,o),
(576,-65,cs)
);
}
);
};
guides = (
{
angle = -56.6972;
pos = (119,583);
}
);
layerId = "BF6BA5B2-0556-42F4-A103-614BEBF16A1A";
shapes = (
{
closed = 1;
nodes = (
(534,-185,o),
(576,-142,o),
(576,-68,cs),
(576,700,l),
(517,700,l),
(517,115,l),
(546,122,l),
(148,700,l),
(86,700,l),
(86,0,l),
(145,0,l),
(145,592,l),
(112,583,l),
(533,-32,l),
(517,18,l),
(517,-72,ls),
(517,-117,o),
(497,-139,o),
(456,-139,cs),
(424,-139,o),
(398,-125,o),
(360,-84,c),
(340,-149,l),
(376,-173,o),
(415,-185,o),
(456,-185,cs)
);
}
);
userData = {
com.hugojourdan.ColorFlow = {
"0" = 0;
"1" = 0;
"10" = 0;
"11" = 0;
"2" = 0;
"3" = 0;
"4" = 0;
"5" = 0;
"6" = 0;
"7" = 0;
"8" = 0;
"9" = 0;
};
};
width = 662;
},
{
layerId = "FF73925E-1E34-445B-881D-5A7CAAA8E8BE";
shapes = (
{
closed = 1;
nodes = (
(522,-185,o),
(586,-125,o),
(586,-30,cs),
(586,700,l),
(492,700,l),
(492,215,l),
(513,220,l),
(191,700,l),
(52,700,l),
(52,0,l),
(146,0,l),
(146,496,l),
(117,488,l),
(456,-18,l),
(444,36,l),
(444,-42,ls),
(444,-88,o),
(423,-112,o),
(382,-112,cs),
(361,-112,o),
(335,-93,o),
(314,-61,c),
(262,-131,l),
(298,-164,o),
(359,-185,o),
(419,-185,cs)
);
}
);
userData = {
com.hugojourdan.ColorFlow = {
"0" = 0;
"1" = 0;
"10" = 0;
"11" = 0;
"2" = 0;
"3" = 0;
"4" = 0;
"5" = 0;
"6" = 0;
"7" = 0;
"8" = 0;
"9" = 0;
};
};
width = 638;
},
{
guides = (
{
angle = 80.5;
pos = (558,239);
},
{
angle = 80.5;
pos = (521,239);
},
{
angle = 80.5;
pos = (133,239);
},
{
angle = 80.5;
pos = (96,239);
}
);
layerId = "D2741A44-CB8E-4434-9CC9-735A9A127F4C";
shapes = (
{
closed = 1;
nodes = (
(464,-185,o),
(493,-151,o),
(504,-84,cs),
(635,700,l),
(598,700,l),
(490,54,l),
(508,62,l),
(203,700,l),
(173,700,l),
(56,0,l),
(93,0,l),
(202,651,l),
(178,643,l),
(486,0,l),
(485,24,l),
(467,-84,ls),
(459,-131,o),
(439,-157,o),
(411,-157,cs),
(389,-157,o),
(363,-137,o),
(344,-105,c),
(320,-151,l),
(354,-173,o),
(389,-185,o),
(418,-185,cs)
);
}
);
userData = {
com.hugojourdan.ColorFlow = {
"0" = 0;
"1" = 0;
"10" = 0;
"11" = 0;
"2" = 0;
"3" = 0;
"4" = 0;
"5" = 0;
"6" = 0;
"7" = 0;
"8" = 0;
"9" = 0;
};
};
width = 654;
},
{
background = {
shapes = (
{
closed = 0;
nodes = (
(477,14,l),
(463,-77,ls),
(456,-119,o),
(434,-139,o),
(398,-139,cs),
(363,-139,o),
(339,-124,o),
(305,-76,c),
(274,-139,l),
(310,-170,o),
(353,-185,o),
(401,-185,cs),
(467,-185,o),
(510,-146,o),
(522,-78,cs)
);
}
);
};
guides = (
{
angle = 80.5;
pos = (86,245);
},
{
angle = 80.5;
pos = (576,245);
},
{
angle = 80.5;
pos = (517,245);
},
{
angle = 80.5;
pos = (145,245);
}
);
layerId = "0B63B416-D10E-4459-8DAA-360BF3D1BFD2";
shapes = (
{
closed = 1;
nodes = (
(462,-185,o),
(511,-142,o),
(524,-66,cs),
(652,700,l),
(593,700,l),
(495,115,l),
(521,122,l),
(220,700,l),
(162,700,l),
(45,0,l),
(104,0,l),
(203,592,l),
(172,583,l),
(492,-32,l),
(479,18,l),
(464,-72,ls),
(457,-117,o),
(433,-139,o),
(392,-139,cs),
(360,-139,o),
(336,-125,o),
(305,-84,c),
(274,-149,l),
(306,-173,o),
(343,-185,o),
(384,-185,cs)
);
}
);
userData = {
com.hugojourdan.ColorFlow = {
"0" = 0;
"1" = 0;
"10" = 0;
"11" = 0;
"2" = 0;
"3" = 0;
"4" = 0;
"5" = 0;
"6" = 0;
"7" = 0;
"8" = 0;
"9" = 0;
};
};
width = 662;
},
{
guides = (
{
angle = 80.5;
pos = (52,251);
},
{
angle = 80.5;
pos = (586,251);
},
{
angle = 80.5;
pos = (146,251);
},
{
angle = 80.5;
pos = (492,251);
},
{
angle = 80.5;
pos = (444,251);
}
);
layerId = "EE3858F4-A475-4EBA-A8F4-31CE9F38567C";
shapes = (
{
closed = 1;
nodes = (
(457,-185,o),
(522,-132,o),
(537,-42,cs),
(661,700,l),
(567,700,l),
(486,215,l),
(501,220,l),
(259,700,l),
(127,700,l),
(10,0,l),
(104,0,l),
(187,496,l),
(164,488,l),
(418,-18,l),
(408,36,l),
(395,-42,ls),
(387,-89,o),
(367,-112,o),
(334,-112,cs),
(304,-112,o),
(281,-92,o),
(263,-52,c),
(200,-117,l),
(235,-158,o),
(302,-185,o),
(367,-185,cs)
);
}
);
userData = {
com.hugojourdan.ColorFlow = {
"0" = 0;
"1" = 0;
"10" = 0;
"11" = 0;
"2" = 0;
"3" = 0;
"4" = 0;
"5" = 0;
"6" = 0;
"7" = 0;
"8" = 0;
"9" = 0;
};
};
width = 638;
}
);
unicode = 330;
},
{
export = 0;
glyphname = OE;
kernLeft = KO_O;
kernRight = KO_E;
layers = (
{
layerId = m01;
shapes = (
{
closed = 1;
nodes = (
(508,-10,o),
(604,119,o),
(604,350,cs),
(604,581,o),
(510,710,o),
(342,710,cs),
(171,710,o),
(75,581,o),
(75,350,cs),
(75,119,o),
(170,-10,o),
(337,-10,cs)
);
},
{
closed = 1;
nodes = (
(205,22,o),
(128,140,o),
(128,350,cs),
(128,560,o),
(205,678,o),
(342,678,cs),
(479,678,o),
(556,560,o),
(556,350,cs),
(556,140,o),
(479,22,o),
(342,22,cs)
);
},
{
closed = 1;
nodes = (
(937,0,l),
(937,32,l),
(580,32,l),
(604,8,l),
(604,692,l),
(580,668,l),
(924,668,l),
(924,700,l),
(556,700,l),
(556,0,l)
);
},
{
closed = 1;
nodes = (
(904,348,l),
(904,378,l),
(580,378,l),
(580,348,l)
);
}
);
userData = {
com.hugojourdan.ColorFlow = {
"0" = 0;
"1" = 0;
"10" = 0;
"11" = 0;
"2" = 0;
"3" = 0;
"4" = 0;
"5" = 0;
"6" = 0;
"7" = 0;
"8" = 0;
"9" = 0;
};
};
width = 981;
},
{
layerId = "BF6BA5B2-0556-42F4-A103-614BEBF16A1A";
shapes = (
{
closed = 1;
nodes = (
(505,-10,o),
(598,116,o),
(598,350,cs),
(598,587,o),
(507,710,o),
(333,710,cs),
(157,710,o),
(58,581,o),
(58,350,cs),
(58,114,o),
(153,-10,o),
(333,-10,cs)
);
},
{
closed = 1;
nodes = (
(220,41,o),
(163,141,o),
(163,351,cs),
(163,560,o),
(220,659,o),
(339,659,cs),
(457,659,o),
(515,558,o),
(515,351,cs),
(515,143,o),
(457,41,o),
(339,41,cs)
);
},
{
closed = 1;
nodes = (
(918,0,l),
(918,52,l),
(573,52,l),
(612,13,l),
(612,687,l),
(573,648,l),
(906,648,l),
(906,700,l),
(515,700,l),
(515,0,l)
);
},
{
closed = 1;
nodes = (
(885,339,l),
(885,387,l),
(563,387,l),
(563,339,l)
);
}
);
userData = {
com.hugojourdan.ColorFlow = {
"0" = 0;
"1" = 0;
"10" = 0;
"11" = 0;
"2" = 0;
"3" = 0;
"4" = 0;
"5" = 0;
"6" = 0;
"7" = 0;
"8" = 0;
"9" = 0;
};
};
width = 954;
},
{
layerId = "FF73925E-1E34-445B-881D-5A7CAAA8E8BE";
shapes = (
{
closed = 1;
nodes = (
(461,-10,o),
(550,125,o),
(550,350,cs),
(550,576,o),
(461,710,o),
(312,710,cs),
(136,710,o),
(42,585,o),
(42,350,cs),
(42,116,o),
(137,-10,o),
(312,-10,cs)
);
},
{
closed = 1;
nodes = (
(267,84,o),
(230,172,o),
(230,350,cs),
(230,528,o),
(267,616,o),
(342,616,cs),
(416,616,o),
(452,529,o),
(452,350,cs),
(452,172,o),
(416,84,o),
(342,84,cs)
);
},
{
closed = 1;
nodes = (
(903,0,l),
(903,87,l),
(588,87,l),
(630,48,l),
(630,651,l),
(589,614,l),
(893,614,l),
(893,700,l),
(452,700,l),
(452,0,l)
);
},
{
closed = 1;
nodes = (
(870,323,l),
(870,403,l),
(541,403,l),
(541,323,l)
);
}
);
userData = {
com.hugojourdan.ColorFlow = {
"0" = 0;
"1" = 0;
"10" = 0;
"11" = 0;
"2" = 0;
"3" = 0;
"4" = 0;
"5" = 0;
"6" = 0;
"7" = 0;
"8" = 0;
"9" = 0;
};
};
width = 927;
},
{
layerId = "D2741A44-CB8E-4434-9CC9-735A9A127F4C";
shapes = (
{
closed = 1;
nodes = (
(559,-10,o),
(628,271,o),
(628,439,cs),
(628,612,o),
(547,710,o),
(394,710,cs),
(158,710,o),
(88,429,o),
(88,261,cs),
(88,88,o),
(171,-10,o),
(327,-10,cs)
);
},
{
closed = 1;
nodes = (
(204,22,o),
(139,105,o),
(139,254,cs),
(139,400,o),
(197,678,o),
(396,678,cs),
(517,678,o),
(582,595,o),
(582,446,cs),
(582,300,o),
(524,22,o),
(324,22,cs)
);
},
{
closed = 1;
nodes = (
(897,0,l),
(902,32,l),
(549,32,l),
(566,12,l),
(679,687,l),
(657,668,l),
(999,668,l),
(1004,700,l),
(633,700,l),
(516,0,l)
);
},
{
closed = 1;
nodes = (
(922,347,l),
(927,377,l),
(603,377,l),
(598,347,l)
);
}
);
userData = {
com.hugojourdan.ColorFlow = {
"0" = 0;
"1" = 0;
"10" = 0;
"11" = 0;
"2" = 0;
"3" = 0;
"4" = 0;
"5" = 0;
"6" = 0;
"7" = 0;
"8" = 0;
"9" = 0;
};
};
width = 981;
},
{
layerId = "0B63B416-D10E-4459-8DAA-360BF3D1BFD2";
shapes = (
{
closed = 1;
nodes = (
(554,-10,o),
(616,269,o),
(616,438,cs),
(616,615,o),
(537,710,o),
(384,710,cs),
(132,710,o),
(71,421,o),
(71,262,cs),
(71,82,o),
(162,-10,o),
(324,-10,cs)
);
},
{
closed = 1;
nodes = (
(218,38,o),
(173,111,o),
(173,235,cs),
(173,366,o),
(215,662,o),
(390,662,cs),
(490,662,o),
(535,589,o),
(535,465,cs),
(535,334,o),
(493,38,o),
(318,38,cs)
);
},
{
closed = 1;
nodes = (
(877,0,l),
(886,52,l),
(554,52,l),
(572,30,l),
(679,669,l),
(654,648,l),
(973,648,l),
(982,700,l),
(586,700,l),
(469,0,l)
);
},
{
closed = 1;
nodes = (
(901,341,l),
(909,389,l),
(582,389,l),
(574,341,l)
);
}
);
userData = {
com.hugojourdan.ColorFlow = {
"0" = 0;
"1" = 0;
"10" = 0;
"11" = 0;
"2" = 0;
"3" = 0;
"4" = 0;
"5" = 0;
"6" = 0;
"7" = 0;
"8" = 0;
"9" = 0;
};
};
width = 954;
},
{
layerId = "EE3858F4-A475-4EBA-A8F4-31CE9F38567C";
shapes = (
{
closed = 1;
nodes = (
(502,-10,o),
(577,280,o),
(577,448,cs),
(577,608,o),
(508,710,o),
(357,710,cs),
(115,710,o),
(53,418,o),
(53,258,cs),
(53,85,o),
(143,-10,o),
(285,-10,cs)
);
},
{
closed = 1;
nodes = (
(264,81,o),
(235,129,o),
(235,225,cs),
(235,327,o),
(273,619,o),
(396,619,cs),
(449,619,o),
(478,571,o),
(478,475,cs),
(478,373,o),
(440,81,o),
(317,81,cs)
);
},
{
closed = 1;
nodes = (
(861,0,l),
(875,87,l),
(561,87,l),
(596,48,l),
(697,651,l),
(649,614,l),
(954,614,l),
(968,700,l),
(527,700,l),
(410,0,l)
);
},
{
closed = 1;
nodes = (
(882,323,l),
(895,403,l),
(566,403,l),
(553,323,l)
);
}
);
userData = {
com.hugojourdan.ColorFlow = {
"0" = 0;
"1" = 0;
"10" = 0;
"11" = 0;
"2" = 0;
"3" = 0;
"4" = 0;
"5" = 0;
"6" = 0;
"7" = 0;
"8" = 0;
"9" = 0;
};
};
width = 927;
}
);
metricLeft = "=O";
metricRight = "=E";
unicode = 338;
},
{
export = 0;
glyphname = Germandbls;
layers = (
{
layerId = m01;
shapes = (
{
closed = 1;
nodes = (
(467,-10,o),
(558,63,o),
(558,207,cs),
(558,330,o),
(488,405,o),
(371,408,c),
(376,400,l),
(538,673,l),
(538,700,l),
(304,700,ls),
(167,700,o),
(96,624,o),
(96,478,cs),
(96,0,l),
(144,0,l),
(144,472,ls),
(144,612,o),
(192,668,o),
(310,668,cs),
(510,668,l),
(490,676,l),
(333,411,l),
(343,379,l),
(357,379,ls),
(448,379,o),
(505,312,o),
(505,205,cs),
(505,81,o),
(435,22,o),
(286,22,c),
(286,-10,l)
);
}
);
userData = {
com.hugojourdan.ColorFlow = {
"0" = 0;
"1" = 0;
"10" = 0;
"11" = 0;
"2" = 0;
"3" = 0;
"4" = 0;
"5" = 0;
"6" = 0;
"7" = 0;
"8" = 0;
"9" = 0;
};
};
width = 636;
},
{
layerId = "BF6BA5B2-0556-42F4-A103-614BEBF16A1A";
shapes = (
{
closed = 1;
nodes = (
(474,-10,o),
(570,62,o),
(570,208,cs),
(570,330,o),
(500,405,o),
(388,403,c),
(399,392,l),
(555,655,l),
(555,700,l),
(313,700,ls),
(160,700,o),
(78,619,o),
(78,467,cs),
(78,0,l),
(177,0,l),
(177,493,ls),
(177,603,o),
(217,648,o),
(316,648,cs),
(494,648,l),
(472,670,l),
(311,399,l),
(324,357,l),
(347,357,ls),
(422,357,o),
(466,305,o),
(466,209,cs),
(466,95,o),
(405,42,o),
(279,42,c),
(279,-10,l)
);
}
);
userData = {
com.hugojourdan.ColorFlow = {
"0" = 0;
"1" = 0;
"10" = 0;
"11" = 0;
"2" = 0;
"3" = 0;
"4" = 0;
"5" = 0;
"6" = 0;
"7" = 0;
"8" = 0;
"9" = 0;
};
};
width = 628;
},
{
layerId = "FF73925E-1E34-445B-881D-5A7CAAA8E8BE";
shapes = (
{
closed = 1;
nodes = (
(498,-10,o),
(600,62,o),
(600,205,cs),
(600,318,o),
(519,386,o),
(387,384,c),
(434,355,l),
(595,627,l),
(595,700,l),
(328,700,ls),
(151,700,o),
(52,610,o),
(52,450,cs),
(52,0,l),
(230,0,l),
(230,508,ls),
(230,581,o),
(259,612,o),
(327,612,cs),
(473,612,l),
(449,652,l),
(288,380,l),
(306,322,l),
(324,322,ls),
(391,322,o),
(417,290,o),
(417,206,cs),
(417,121,o),
(380,81,o),
(296,78,c),
(296,-10,l)
);
}
);
userData = {
com.hugojourdan.ColorFlow = {
"0" = 0;
"1" = 0;
"10" = 0;
"11" = 0;
"2" = 0;
"3" = 0;
"4" = 0;
"5" = 0;
"6" = 0;
"7" = 0;
"8" = 0;
"9" = 0;
};
};
width = 645;
},
{
layerId = "D2741A44-CB8E-4434-9CC9-735A9A127F4C";
shapes = (
{
closed = 1;
nodes = (
(411,-26,o),
(553,44,o),
(553,238,cs),
(553,334,o),
(498,397,o),
(397,406,c),
(400,398,l),
(609,673,l),
(615,700,l),
(374,700,ls),
(235,700,o),
(161,630,o),
(139,496,cs),
(56,0,l),
(104,0,l),
(185,484,ls),
(206,610,o),
(259,668,o),
(373,668,cs),
(575,668,l),
(557,673,l),
(359,412,l),
(364,380,l),
(378,379,ls),
(454,372,o),
(500,317,o),
(500,234,cs),
(500,60,o),
(379,6,o),
(240,25,c),
(235,-7,l)
);
}
);
userData = {
com.hugojourdan.ColorFlow = {
"0" = 0;
"1" = 0;
"10" = 0;
"11" = 0;
"2" = 0;
"3" = 0;
"4" = 0;
"5" = 0;
"6" = 0;
"7" = 0;
"8" = 0;
"9" = 0;
};
};
width = 636;
},
{
layerId = "0B63B416-D10E-4459-8DAA-360BF3D1BFD2";
shapes = (
{
closed = 1;
nodes = (
(439,-29,o),
(563,59,o),
(563,226,cs),
(563,326,o),
(514,382,o),
(415,394,c),
(413,371,l),
(624,657,l),
(631,700,l),
(369,700,ls),
(225,700,o),
(141,624,o),
(118,484,cs),
(37,0,l),
(135,0,l),
(215,478,ls),
(235,597,o),
(275,648,o),
(377,648,cs),
(540,648,l),
(526,659,l),
(337,399,l),
(343,357,l),
(358,356,ls),
(425,351,o),
(458,306,o),
(458,223,cs),
(458,88,o),
(385,27,o),
(245,46,c),
(237,-6,l)
);
}
);
userData = {
com.hugojourdan.ColorFlow = {
"0" = 0;
"1" = 0;
"10" = 0;
"11" = 0;
"2" = 0;
"3" = 0;
"4" = 0;
"5" = 0;
"6" = 0;
"7" = 0;
"8" = 0;
"9" = 0;
};
};
width = 628;
},
{
layerId = "EE3858F4-A475-4EBA-A8F4-31CE9F38567C";
shapes = (
{
closed = 1;
nodes = (
(457,-30,o),
(591,60,o),
(591,220,cs),
(591,315,o),
(543,368,o),
(447,381,c),
(452,350,l),
(658,627,l),
(670,700,l),
(375,700,ls),
(214,700,o),
(114,621,o),
(89,472,cs),
(10,0,l),
(188,0,l),
(266,466,ls),
(284,569,o),
(310,612,o),
(384,612,cs),
(491,612,l),
(486,621,l),
(309,383,l),
(316,325,l),
(334,324,ls),
(396,321,o),
(408,289,o),
(408,227,cs),
(408,119,o),
(353,62,o),
(267,81,c),
(253,-7,l)
);
}
);
userData = {
com.hugojourdan.ColorFlow = {
"0" = 0;
"1" = 0;
"10" = 0;
"11" = 0;
"2" = 0;
"3" = 0;
"4" = 0;
"5" = 0;
"6" = 0;
"7" = 0;
"8" = 0;
"9" = 0;
};
};
width = 645;
}
);
metricLeft = "=I";
metricRight = "=eight";
unicode = 7838;
},
{
glyphname = a;
kernLeft = KO_a;
kernRight = KO_a;
layers = (
{
anchors = (
{
name = bottom;
pos = (220,0);
},
{
name = ogonek;
pos = (391,0);
},
{
name = top;
pos = (237,478);
}
);
layerId = m01;
shapes = (
{
closed = 1;
nodes = (
(277,-10,o),
(337,38,o),
(359,116,c),
(353,120,l),
(353,51,o),
(354,35,o),
(363,0,c),
(401,0,l),
(392,35,o),
(391,51,o),
(391,120,cs),
(391,316,ls),
(391,429,o),
(338,488,o),
(237,488,cs),
(170,488,o),
(117,464,o),
(68,412,c),
(107,375,l),
(135,431,o),
(179,460,o),
(236,460,cs),
(307,460,o),
(346,411,o),
(346,322,cs),
(346,187,ls),
(346,89,o),
(287,18,o),
(207,18,cs),
(147,18,o),
(107,59,o),
(107,121,cs),
(107,207,o),
(178,249,o),
(359,269,c),
(359,293,l),
(144,272,o),
(59,224,o),
(59,124,cs),
(59,44,o),
(115,-10,o),
(199,-10,cs)
);
}
);
userData = {
com.hugojourdan.ColorFlow = {
"0" = 0;
"1" = 0;
"10" = 0;
"11" = 0;
"2" = 0;
"3" = 0;
"4" = 0;
"5" = 0;
"6" = 0;
"7" = 0;
"8" = 0;
"9" = 0;
};
};
width = 472;
},
{
anchors = (
{
name = bottom;
pos = (249,0);
},
{
name = ogonek;
pos = (496,0);
},
{
name = top;
pos = (277,502);
}
);
guides = (
{
angle = -16.837;
pos = (97,365);
}
);
layerId = "FF73925E-1E34-445B-881D-5A7CAAA8E8BE";
shapes = (
{
closed = 1;
nodes = (
(273,-10,o),
(342,32,o),
(375,102,c),
(347,112,l),
(357,0,l),
(496,0,l),
(496,294,ls),
(496,442,o),
(419,512,o),
(269,512,cs),
(159,512,o),
(77,464,o),
(44,381,c),
(162,345,l),
(187,412,o),
(215,438,o),
(261,438,cs),
(304,438,o),
(327,412,o),
(327,364,cs),
(327,185,ls),
(327,119,o),
(299,78,o),
(254,78,cs),
(215,78,o),
(194,100,o),
(194,139,cs),
(194,233,o),
(331,200,o),
(373,270,c),
(327,359,l),
(327,258,o),
(28,312,o),
(28,134,cs),
(28,49,o),
(96,-10,o),
(192,-10,cs)
);
}
);
userData = {
com.hugojourdan.ColorFlow = {
"0" = 0;
"1" = 0;
"10" = 0;
"11" = 0;
"2" = 0;
"3" = 0;
"4" = 0;
"5" = 0;
"6" = 0;
"7" = 0;
"8" = 0;
"9" = 0;
};
};
width = 533;
},
{
anchors = (
{
name = bottom;
pos = (253,0);
},
{
name = ogonek;
pos = (455,0);
},
{
name = top;
pos = (269,490);
}
);
background = {
shapes = (
{
pos = (-11,0);
ref = n;
}
);
};
layerId = "BF6BA5B2-0556-42F4-A103-614BEBF16A1A";
shapes = (
{
closed = 1;
nodes = (
(282,-10,o),
(363,32,o),
(384,118,c),
(377,123,l),
(387,0,l),
(455,0,l),
(455,311,ls),
(455,436,o),
(389,500,o),
(272,500,cs),
(172,500,o),
(97,453,o),
(72,375,c),
(148,352,l),
(167,418,o),
(201,455,o),
(265,455,cs),
(333,455,o),
(362,408,o),
(362,331,cs),
(362,190,ls),
(362,89,o),
(291,35,o),
(231,35,cs),
(185,35,o),
(145,66,o),
(145,129,cs),
(145,259,o),
(367,211,o),
(378,295,c),
(362,331,l),
(362,247,o),
(52,295,o),
(52,123,cs),
(52,34,o),
(126,-10,o),
(205,-10,cs)
);
}
);
userData = {
com.hugojourdan.ColorFlow = {
"0" = 0;
"1" = 0;
"10" = 0;
"11" = 0;
"2" = 0;
"3" = 0;
"4" = 0;
"5" = 0;
"6" = 0;
"7" = 0;
"8" = 0;
"9" = 0;
};
};
width = 520;
},
{
anchors = (
{
name = bottom;
pos = (177,0);
},
{
name = ogonek;
pos = (351,0);
},
{
name = top;
pos = (257,478);
}
);
guides = (
{
angle = 80.5;
pos = (391,239);
},
{
angle = 80.5;
pos = (59,239);
},
{
angle = 80.5;
pos = (346,239);
},
{
angle = 80.5;
pos = (68,239);
},
{
angle = 80.5;
pos = (107,239);
}
);
layerId = "D2741A44-CB8E-4434-9CC9-735A9A127F4C";
shapes = (
{
closed = 1;
nodes = (
(242,-10,o),
(304,34,o),
(337,106,c),
(333,120,l),
(324,66,o),
(322,46,o),
(323,0,c),
(361,0,l),
(360,45,o),
(362,66,o),
(371,120,cs),
(402,305,ls),
(416,382,o),
(403,488,o),
(258,488,cs),
(200,488,o),
(150,468,o),
(99,425,c),
(132,388,l),
(166,436,o),
(208,460,o),
(260,460,cs),
(361,460,o),
(369,376,o),
(358,311,cs),
(336,179,ls),
(320,86,o),
(256,18,o),
(181,18,cs),
(122,18,o),
(87,55,o),
(87,110,cs),
(87,236,o),
(225,249,o),
(361,258,c),
(365,282,l),
(206,273,o),
(40,262,o),
(40,112,cs),
(40,41,o),
(90,-10,o),
(170,-10,cs)
);
}
);
userData = {
com.hugojourdan.ColorFlow = {
"0" = 0;
"1" = 0;
"10" = 0;
"11" = 0;
"2" = 0;
"3" = 0;
"4" = 0;
"5" = 0;
"6" = 0;
"7" = 0;
"8" = 0;
"9" = 0;
};
};
width = 472;
},
{
anchors = (
{
name = bottom;
pos = (176,0);
},
{
name = ogonek;
pos = (382,0);
},
{
name = top;
pos = (265,490);
}
);
layerId = "0B63B416-D10E-4459-8DAA-360BF3D1BFD2";
shapes = (
{
closed = 1;
nodes = (
(240,-10,o),
(301,37,o),
(329,105,c),
(325,126,l),
(314,60,o),
(312,31,o),
(314,0,c),
(392,0,l),
(390,31,o),
(392,58,o),
(403,126,cs),
(431,293,ls),
(448,395,o),
(428,500,o),
(263,500,cs),
(195,500,o),
(140,476,o),
(89,424,c),
(137,371,l),
(164,426,o),
(206,456,o),
(260,456,cs),
(338,456,o),
(354,392,o),
(342,317,cs),
(319,179,ls),
(305,95,o),
(245,35,o),
(186,35,cs),
(145,35,o),
(118,64,o),
(118,116,cs),
(118,228,o),
(242,239,o),
(347,254,c),
(354,291,l),
(126,277,o),
(25,221,o),
(25,113,cs),
(25,31,o),
(85,-10,o),
(160,-10,cs)
);
}
);
userData = {
com.hugojourdan.ColorFlow = {
"0" = 0;
"1" = 0;
"10" = 0;
"11" = 0;
"2" = 0;
"3" = 0;
"4" = 0;
"5" = 0;
"6" = 0;
"7" = 0;
"8" = 0;
"9" = 0;
};
};
width = 488;
},
{
anchors = (
{
name = bottom;
pos = (183,0);
},
{
name = ogonek;
pos = (434,0);
},
{
name = top;
pos = (300,502);
}
);
layerId = "EE3858F4-A475-4EBA-A8F4-31CE9F38567C";
shapes = (
{
closed = 1;
nodes = (
(231,-10,o),
(281,24,o),
(322,89,c),
(304,114,l),
(295,61,o),
(292,27,o),
(295,0,c),
(444,0,l),
(441,27,o),
(444,59,o),
(453,114,cs),
(479,269,ls),
(502,406,o),
(463,512,o),
(270,512,cs),
(193,512,o),
(128,488,o),
(65,438,c),
(131,357,l),
(164,410,o),
(208,438,o),
(252,438,cs),
(308,438,o),
(332,400,o),
(323,346,cs),
(296,185,ls),
(283,104,o),
(255,78,o),
(222,78,cs),
(196,78,o),
(176,95,o),
(176,131,cs),
(176,188,o),
(204,229,o),
(321,242,c),
(330,295,l),
(175,283,o),
(7,262,o),
(7,113,cs),
(7,41,o),
(64,-10,o),
(159,-10,cs)
);
}
);
userData = {
com.hugojourdan.ColorFlow = {
"0" = 0;
"1" = 0;
"10" = 0;
"11" = 0;
"2" = 0;
"3" = 0;
"4" = 0;
"5" = 0;
"6" = 0;
"7" = 0;
"8" = 0;
"9" = 0;
};
};
width = 513;
}
);
metricLeft = "=o*0.98";
metricRight = "=n-10";
note = a;
unicode = 97;
userData = {
KernOnName = a;
};
},
{
glyphname = b;
kernLeft = KO_b;
kernRight = KO_p;
layers = (
{
background = {
shapes = (
{
pos = (33,0);
ref = o;
}
);
};
layerId = m01;
shapes = (
{
closed = 1;
nodes = (
(422,-10,o),
(495,83,o),
(495,239,cs),
(495,395,o),
(422,488,o),
(298,488,cs),
(216,488,o),
(158,445,o),
(134,367,c),
(143,365,l),
(143,700,l),
(98,700,l),
(98,120,ls),
(98,51,o),
(97,35,o),
(88,0,c),
(126,0,l),
(135,35,o),
(136,51,o),
(136,120,c),
(129,119,l),
(154,36,o),
(213,-10,o),
(298,-10,cs)
);
},
{
closed = 1;
nodes = (
(205,18,o),
(143,90,o),
(143,196,cs),
(143,282,ls),
(143,388,o),
(205,460,o),
(295,460,cs),
(391,460,o),
(447,379,o),
(447,239,cs),
(447,99,o),
(391,18,o),
(295,18,cs)
);
}
);
userData = {
com.hugojourdan.ColorFlow = {
"0" = 0;
"1" = 0;
"10" = 0;
"11" = 0;
"2" = 0;
"3" = 0;
"4" = 0;
"5" = 0;
"6" = 0;
"7" = 0;
"8" = 0;
"9" = 0;
};
};
width = 555;
},
{
background = {
shapes = (
{
pos = (9,0);
ref = o;
}
);
};
layerId = "FF73925E-1E34-445B-881D-5A7CAAA8E8BE";
shapes = (
{
closed = 1;
nodes = (
(504,-10,o),
(581,88,o),
(581,253,cs),
(581,416,o),
(505,512,o),
(358,512,cs),
(276,512,o),
(231,491,o),
(204,449,c),
(223,427,l),
(223,700,l),
(54,700,l),
(54,0,l),
(193,0,l),
(203,112,l),
(185,85,l),
(208,22,o),
(259,-10,o),
(356,-10,cs)
);
},
{
closed = 1;
nodes = (
(249,64,o),
(223,128,o),
(223,252,cs),
(223,376,o),
(249,438,o),
(315,438,cs),
(381,438,o),
(407,376,o),
(407,252,cs),
(407,128,o),
(381,64,o),
(315,64,cs)
);
}
);
userData = {
com.hugojourdan.ColorFlow = {
"0" = 0;
"1" = 0;
"10" = 0;
"11" = 0;
"2" = 0;
"3" = 0;
"4" = 0;
"5" = 0;
"6" = 0;
"7" = 0;
"8" = 0;
"9" = 0;
};
};
width = 610;
},
{
background = {
shapes = (
{
pos = (14,0);
ref = o;
}
);
};
layerId = "BF6BA5B2-0556-42F4-A103-614BEBF16A1A";
shapes = (
{
closed = 1;
nodes = (
(454,-10,o),
(532,84,o),
(532,245,cs),
(532,406,o),
(454,500,o),
(321,500,cs),
(237,500,o),
(175,464,o),
(151,400,c),
(164,390,l),
(164,700,l),
(71,700,l),
(71,0,l),
(139,0,l),
(149,125,l),
(140,107,l),
(164,33,o),
(230,-10,o),
(320,-10,cs)
);
},
{
closed = 1;
nodes = (
(221,34,o),
(164,97,o),
(164,245,cs),
(164,394,o),
(221,456,o),
(301,456,cs),
(388,456,o),
(436,381,o),
(436,245,cs),
(436,109,o),
(389,34,o),
(302,34,cs)
);
}
);
userData = {
com.hugojourdan.ColorFlow = {
"0" = 0;
"1" = 0;
"10" = 0;
"11" = 0;
"2" = 0;
"3" = 0;
"4" = 0;
"5" = 0;
"6" = 0;
"7" = 0;
"8" = 0;
"9" = 0;
};
};
width = 568;
},
{
background = {
shapes = (
{
closed = 1;
nodes = (
(387,-10,o),
(467,76,o),
(492,223,cs),
(496,246,o),
(497,268,o),
(497,289,cs),
(497,412,o),
(434,488,o),
(318,488,cs),
(246,488,o),
(189,450,o),
(155,380,c),
(163,377,l),
(219,711,l),
(174,715,l),
(78,137,ls),
(67,68,o),
(63,52,o),
(48,18,c),
(86,15,l),
(101,49,o),
(104,65,o),
(116,134,c),
(109,133,l),
(121,41,o),
(179,-10,o),
(275,-10,cs)
);
},
{
closed = 1;
nodes = (
(184,18,o),
(132,79,o),
(132,168,cs),
(132,181,o),
(133,195,o),
(135,209,cs),
(150,295,ls),
(166,394,o),
(233,460,o),
(316,460,cs),
(403,460,o),
(450,399,o),
(450,294,cs),
(450,273,o),
(448,250,o),
(444,226,cs),
(421,94,o),
(358,18,o),
(270,18,cs)
);
}
);
};
guides = (
{
angle = 80.5;
pos = (97,239);
},
{
angle = 80.5;
pos = (142,239);
},
{
angle = 80.5;
pos = (135,239);
},
{
angle = 80.5;
pos = (126,239);
},
{
angle = 80.5;
pos = (87,239);
},
{
angle = 80.5;
pos = (494,239);
}
);
layerId = "D2741A44-CB8E-4434-9CC9-735A9A127F4C";
shapes = (
{
closed = 1;
nodes = (
(426,-10,o),
(497,146,o),
(497,289,cs),
(497,412,o),
(434,488,o),
(318,488,cs),
(246,488,o),
(189,450,o),
(155,380,c),
(162,359,l),
(219,700,l),
(174,700,l),
(77,120,ls),
(68,66,o),
(64,42,o),
(48,0,c),
(86,0,l),
(102,42,o),
(106,66,o),
(115,120,c),
(109,133,l),
(121,41,o),
(179,-10,o),
(275,-10,cs)
);
},
{
closed = 1;
nodes = (
(167,18,o),
(119,104,o),
(137,209,cs),
(151,293,ls),
(169,400,o),
(234,460,o),
(316,460,cs),
(403,460,o),
(450,399,o),
(450,294,cs),
(450,200,o),
(408,18,o),
(270,18,cs)
);
}
);
userData = {
com.hugojourdan.ColorFlow = {
"0" = 0;
"1" = 0;
"10" = 0;
"11" = 0;
"2" = 0;
"3" = 0;
"4" = 0;
"5" = 0;
"6" = 0;
"7" = 0;
"8" = 0;
"9" = 0;
};
};
width = 555;
},
{
background = {
guides = (
{
angle = 80.5;
pos = (81,245);
},
{
angle = 80.5;
pos = (174,245);
},
{
angle = 80.5;
pos = (159,245);
},
{
angle = 80.5;
pos = (135,245);
},
{
angle = 80.5;
pos = (71,245);
},
{
angle = 80.5;
pos = (522,245);
}
);
shapes = (
{
closed = 1;
nodes = (
(205,34,o),
(163,84,o),
(163,160,cs),
(163,172,o),
(164,184,o),
(166,196,cs),
(186,315,ls),
(201,401,o),
(255,456,o),
(323,456,cs),
(394,456,o),
(433,404,o),
(433,311,cs),
(433,288,o),
(431,263,o),
(426,235,cs),
(404,104,o),
(351,34,o),
(275,34,cs)
);
},
{
closed = 1;
nodes = (
(250,700,l),
(157,700,l),
(61,125,ls),
(53,78,o),
(45,42,o),
(30,0,c),
(108,0,l),
(123,42,o),
(131,78,o),
(139,125,c),
(130,121,l),
(142,37,o),
(202,-10,o),
(297,-10,cs),
(412,-10,o),
(494,77,o),
(519,229,cs),
(523,253,o),
(525,276,o),
(525,298,cs),
(525,423,o),
(459,500,o),
(341,500,cs),
(335,500,o),
(330,500,o),
(325,499,cs),
(266,495,o),
(218,465,o),
(189,412,c),
(200,400,l)
);
}
);
};
guides = (
{
angle = 80.5;
pos = (81,245);
},
{
angle = 80.5;
pos = (174,245);
},
{
angle = 80.5;
pos = (159,245);
},
{
angle = 80.5;
pos = (135,245);
},
{
angle = 80.5;
pos = (71,245);
},
{
angle = 80.5;
pos = (522,245);
},
{
angle = 80.5;
pos = (426,245);
}
);
layerId = "0B63B416-D10E-4459-8DAA-360BF3D1BFD2";
shapes = (
{
closed = 1;
nodes = (
(454,-10,o),
(525,153,o),
(525,298,cs),
(525,423,o),
(459,500,o),
(341,500,cs),
(287,500,o),
(225,478,o),
(189,412,c),
(200,400,l),
(250,700,l),
(157,700,l),
(61,125,ls),
(53,78,o),
(45,42,o),
(30,0,c),
(108,0,l),
(123,42,o),
(131,78,o),
(139,125,c),
(130,121,l),
(142,37,o),
(202,-10,o),
(297,-10,cs)
);
},
{
closed = 1;
nodes = (
(185,34,o),
(152,114,o),
(166,197,cs),
(186,317,ls),
(200,401,o),
(255,456,o),
(323,456,cs),
(393,456,o),
(431,407,o),
(431,311,cs),
(431,227,o),
(402,34,o),
(275,34,cs)
);
}
);
userData = {
com.hugojourdan.ColorFlow = {
"0" = 0;
"1" = 0;
"10" = 0;
"11" = 0;
"2" = 0;
"3" = 0;
"4" = 0;
"5" = 0;
"6" = 0;
"7" = 0;
"8" = 0;
"9" = 0;
};
};
width = 568;
},
{
background = {
guides = (
{
angle = 80.5;
pos = (54,251);
},
{
angle = 80.5;
pos = (223,251);
},
{
angle = 80.5;
pos = (44,251);
},
{
angle = 80.5;
pos = (203,251);
},
{
angle = 80.5;
pos = (182,251);
},
{
angle = 80.5;
pos = (541,251);
},
{
angle = 80.5;
pos = (367,251);
}
);
shapes = (
{
closed = 1;
nodes = (
(429,-10,o),
(512,80,o),
(538,236,cs),
(542,261,o),
(544,285,o),
(544,308,cs),
(544,436,o),
(478,512,o),
(362,512,cs),
(310,512,o),
(268,494,o),
(239,459,c),
(254,435,l),
(300,708,l),
(132,722,l),
(35,136,ls),
(27,91,o),
(18,55,o),
(6,25,c),
(154,12,l),
(165,43,o),
(174,78,o),
(182,123,c),
(160,98,l),
(173,27,o),
(226,-10,o),
(313,-10,cs)
);
},
{
closed = 1;
nodes = (
(213,67,o),
(203,131,o),
(209,167,cs),
(240,352,ls),
(249,408,o),
(280,441,o),
(318,441,cs),
(356,441,o),
(376,408,o),
(376,342,cs),
(376,315,o),
(373,284,o),
(367,248,cs),
(348,129,o),
(313,67,o),
(266,67,cs)
);
}
);
};
guides = (
{
angle = 80.5;
pos = (54,251);
},
{
angle = 80.5;
pos = (223,251);
},
{
angle = 80.5;
pos = (44,251);
},
{
angle = 80.5;
pos = (203,251);
},
{
angle = 80.5;
pos = (182,251);
},
{
angle = 80.5;
pos = (541,251);
},
{
angle = 80.5;
pos = (367,251);
}
);
layerId = "EE3858F4-A475-4EBA-A8F4-31CE9F38567C";
shapes = (
{
closed = 1;
nodes = (
(449,-10,o),
(543,123,o),
(543,305,cs),
(543,439,o),
(476,512,o),
(362,512,cs),
(310,512,o),
(268,493,o),
(239,459,c),
(252,424,l),
(298,700,l),
(129,700,l),
(31,114,ls),
(23,66,o),
(14,30,o),
(2,0,c),
(151,0,l),
(163,30,o),
(172,66,o),
(180,114,c),
(160,98,l),
(174,27,o),
(226,-10,o),
(313,-10,cs)
);
},
{
closed = 1;
nodes = (
(213,67,o),
(203,131,o),
(209,167,cs),
(240,352,ls),
(249,408,o),
(280,441,o),
(318,441,cs),
(356,441,o),
(376,408,o),
(376,342,cs),
(376,278,o),
(351,67,o),
(266,67,cs)
);
}
);
userData = {
com.hugojourdan.ColorFlow = {
"0" = 0;
"1" = 0;
"10" = 0;
"11" = 0;
"2" = 0;
"3" = 0;
"4" = 0;
"5" = 0;
"6" = 0;
"7" = 0;
"8" = 0;
"9" = 0;
};
};
width = 570;
}
);
metricLeft = "=l";
metricRight = "=o";
note = b;
unicode = 98;
userData = {
KernOnName = b;
};
},
{
glyphname = c;
kernLeft = KO_o;
kernRight = KO_c;
layers = (
{
anchors = (
{
name = bottom;
pos = (257,0);
},
{
name = top;
pos = (257,478);
}
);
layerId = m01;
metricRight = "=|*0.7";
shapes = (
{
closed = 1;
nodes = (
(320,-10,o),
(377,19,o),
(422,75,c),
(378,108,l),
(350,49,o),
(308,18,o),
(257,18,cs),
(163,18,o),
(108,100,o),
(108,239,cs),
(108,378,o),
(163,460,o),
(257,460,cs),
(307,460,o),
(348,431,o),
(376,375,c),
(415,412,l),
(371,462,o),
(317,488,o),
(256,488,cs),
(132,488,o),
(60,396,o),
(60,239,cs),
(60,82,o),
(132,-10,o),
(256,-10,cs)
);
}
);
userData = {
com.hugojourdan.ColorFlow = {
"0" = 0;
"1" = 0;
"10" = 0;
"11" = 0;
"2" = 0;
"3" = 0;
"4" = 0;
"5" = 0;
"6" = 0;
"7" = 0;
"8" = 0;
"9" = 0;
};
};
width = 464;
},
{
anchors = (
{
name = bottom;
pos = (289,0);
},
{
name = top;
pos = (296,502);
}
);
guides = (
{
angle = 161.4131;
pos = (452,140);
}
);
layerId = "FF73925E-1E34-445B-881D-5A7CAAA8E8BE";
metricRight = "=|*0.24";
shapes = (
{
closed = 1;
nodes = (
(29,383,o),
(29,253,cs),
(29,122,o),
(118,-10,o),
(298,-10,cs),
(390,-10,o),
(479,32,o),
(520,117,c),
(410,154,l),
(387,94,o),
(356,64,o),
(308,64,cs),
(239,64,o),
(203,136,o),
(203,253,cs),
(203,368,o),
(238,438,o),
(306,438,cs),
(352,438,o),
(382,410,o),
(403,356,c),
(513,393,l),
(478,469,o),
(385,512,o),
(291,512,cs),
(116,512,o)
);
}
);
userData = {
com.hugojourdan.ColorFlow = {
"0" = 0;
"1" = 0;
"10" = 0;
"11" = 0;
"2" = 0;
"3" = 0;
"4" = 0;
"5" = 0;
"6" = 0;
"7" = 0;
"8" = 0;
"9" = 0;
};
};
width = 527;
},
{
anchors = (
{
name = bottom;
pos = (286,0);
},
{
name = top;
pos = (286,488);
}
);
background = {
shapes = (
{
pos = (13,0);
ref = o;
}
);
};
layerId = "BF6BA5B2-0556-42F4-A103-614BEBF16A1A";
shapes = (
{
closed = 1;
nodes = (
(382,-10,o),
(460,39,o),
(482,114,c),
(411,130,l),
(393,71,o),
(351,34,o),
(291,34,cs),
(200,34,o),
(149,116,o),
(149,246,cs),
(149,375,o),
(200,456,o),
(291,456,cs),
(351,456,o),
(393,419,o),
(411,360,c),
(479,385,l),
(455,454,o),
(378,500,o),
(281,500,cs),
(137,500,o),
(53,402,o),
(53,246,cs),
(53,89,o),
(137,-10,o),
(281,-10,cs)
);
}
);
userData = {
com.hugojourdan.ColorFlow = {
"0" = 0;
"1" = 0;
"10" = 0;
"11" = 0;
"2" = 0;
"3" = 0;
"4" = 0;
"5" = 0;
"6" = 0;
"7" = 0;
"8" = 0;
"9" = 0;
};
};
width = 519;
},
{
anchors = (
{
name = bottom;
pos = (284,0);
}
);
associatedMasterId = "FF73925E-1E34-445B-881D-5A7CAAA8E8BE";
background = {
shapes = (
{
pos = (-1,0);
ref = e;
}
);
};
guides = (
{
angle = 146.8024;
pos = (446,120);
}
);
layerId = "C737E8C0-69C2-47E5-B794-154320ECB742";
name = "12 Jun 23 1.22 PM";
shapes = (
{
closed = 1;
nodes = (
(368,-10,o),
(427,19,o),
(486,94,c),
(400,150,l),
(373,94,o),
(344,64,o),
(306,64,cs),
(244,64,o),
(207,135,o),
(207,254,cs),
(207,366,o),
(243,436,o),
(300,436,cs),
(348,436,o),
(389,404,o),
(405,354,c),
(475,420,l),
(425,475,o),
(344,510,o),
(266,510,cs),
(123,510,o),
(33,410,o),
(33,250,cs),
(33,88,o),
(125,-10,o),
(275,-10,cs)
);
}
);
userData = {
com.hugojourdan.ColorFlow = {
"0" = 0;
"1" = 0;
"10" = 0;
"11" = 0;
"2" = 0;
"3" = 0;
"4" = 0;
"5" = 0;
"6" = 0;
"7" = 0;
"8" = 0;
"9" = 0;
};
};
width = 509;
},
{
anchors = (
{
name = bottom;
pos = (253,0);
}
);
associatedMasterId = m01;
layerId = "707BF090-8F86-4750-80EF-9DF17BCC4308";
name = "14 Jun 23 1.50 PM";
shapes = (
{
closed = 1;
nodes = (
(314,-10,o),
(370,19,o),
(414,75,c),
(370,108,l),
(343,49,o),
(302,18,o),
(253,18,cs),
(162,18,o),
(108,100,o),
(108,240,cs),
(108,380,o),
(162,462,o),
(253,462,cs),
(301,462,o),
(341,432,o),
(368,377,c),
(407,414,l),
(364,464,o),
(311,490,o),
(252,490,cs),
(131,490,o),
(60,398,o),
(60,240,cs),
(60,82,o),
(131,-10,o),
(252,-10,cs)
);
}
);
userData = {
com.hugojourdan.ColorFlow = {
"0" = 0;
"1" = 0;
"10" = 0;
"11" = 0;
"2" = 0;
"3" = 0;
"4" = 0;
"5" = 0;
"6" = 0;
"7" = 0;
"8" = 0;
"9" = 0;
};
};
width = 456;
},
{
anchors = (
{
name = bottom;
pos = (265,0);
}
);
associatedMasterId = "BF6BA5B2-0556-42F4-A103-614BEBF16A1A";
layerId = "CB13906D-9790-4CB6-860E-371883AE97F9";
name = "14 Jun 23 1.50 PM";
shapes = (
{
closed = 1;
nodes = (
(337,-10,o),
(403,28,o),
(433,88,c),
(372,130,l),
(355,71,o),
(316,34,o),
(270,34,cs),
(194,34,o),
(146,116,o),
(146,246,cs),
(146,375,o),
(194,456,o),
(270,456,cs),
(316,456,o),
(355,419,o),
(372,360,c),
(429,410,l),
(398,465,o),
(332,500,o),
(260,500,cs),
(131,500,o),
(50,402,o),
(50,246,cs),
(50,89,o),
(131,-10,o),
(260,-10,cs)
);
}
);
userData = {
com.hugojourdan.ColorFlow = {
"0" = 0;
"1" = 0;
"10" = 0;
"11" = 0;
"2" = 0;
"3" = 0;
"4" = 0;
"5" = 0;
"6" = 0;
"7" = 0;
"8" = 0;
"9" = 0;
};
};
width = 468;
},
{
anchors = (
{
name = bottom;
pos = (284,0);
}
);
associatedMasterId = "FF73925E-1E34-445B-881D-5A7CAAA8E8BE";
layerId = "15E4DCAD-7ECB-4811-9CB4-597CA402E569";
name = "14 Jun 23 1.50 PM";
shapes = (
{
closed = 1;
nodes = (
(350,-10,o),
(435,30,o),
(486,93,c),
(395,153,l),
(384,97,o),
(351,64,o),
(305,64,cs),
(244,64,o),
(207,135,o),
(207,254,cs),
(207,366,o),
(243,436,o),
(300,436,cs),
(348,436,o),
(389,404,o),
(405,354,c),
(475,420,l),
(425,475,o),
(344,510,o),
(266,510,cs),
(123,510,o),
(33,410,o),
(33,250,cs),
(33,90,o),
(123,-10,o),
(267,-10,cs)
);
}
);
userData = {
com.hugojourdan.ColorFlow = {
"0" = 0;
"1" = 0;
"10" = 0;
"11" = 0;
"2" = 0;
"3" = 0;
"4" = 0;
"5" = 0;
"6" = 0;
"7" = 0;
"8" = 0;
"9" = 0;
};
};
width = 509;
},
{
anchors = (
{
name = bottom;
pos = (205,0);
},
{
name = top;
pos = (280,478);
}
);
background = {
anchors = (
{
name = bottom;
pos = (237,0);
}
);
shapes = (
{
closed = 1;
nodes = (
(290,-10,o),
(343,14,o),
(392,61,c),
(354,97,l),
(318,46,o),
(276,18,o),
(229,18,cs),
(148,18,o),
(104,83,o),
(104,179,cs),
(104,201,o),
(106,225,o),
(110,250,cs),
(132,383,o),
(195,460,o),
(280,460,cs),
(337,460,o),
(377,427,o),
(396,363,c),
(441,397,l),
(401,456,o),
(347,488,o),
(278,488,cs),
(166,488,o),
(88,403,o),
(63,254,cs),
(59,229,o),
(57,205,o),
(57,183,cs),
(57,63,o),
(120,-10,o),
(233,-10,cs)
);
}
);
};
guides = (
{
angle = 80.5;
pos = (60,239);
},
{
angle = 80.5;
pos = (108,239);
}
);
layerId = "D2741A44-CB8E-4434-9CC9-735A9A127F4C";
shapes = (
{
closed = 1;
nodes = (
(290,-10,o),
(343,14,o),
(392,61,c),
(354,97,l),
(318,46,o),
(276,18,o),
(229,18,cs),
(148,18,o),
(104,83,o),
(104,179,cs),
(104,278,o),
(146,460,o),
(280,460,cs),
(337,460,o),
(377,427,o),
(396,363,c),
(441,397,l),
(401,456,o),
(347,488,o),
(278,488,cs),
(110,488,o),
(57,300,o),
(57,183,cs),
(57,63,o),
(120,-10,o),
(233,-10,cs)
);
}
);
userData = {
com.hugojourdan.ColorFlow = {
"0" = 0;
"1" = 0;
"10" = 0;
"11" = 0;
"2" = 0;
"3" = 0;
"4" = 0;
"5" = 0;
"6" = 0;
"7" = 0;
"8" = 0;
"9" = 0;
};
};
width = 464;
},
{
anchors = (
{
name = bottom;
pos = (220,0);
},
{
name = top;
pos = (293,488);
}
);
background = {
shapes = (
{
closed = 1;
nodes = (
(313,-10,o),
(378,22,o),
(416,73,c),
(363,120,l),
(336,67,o),
(292,34,o),
(246,34,cs),
(176,34,o),
(137,97,o),
(137,188,cs),
(137,209,o),
(139,232,o),
(143,256,cs),
(164,380,o),
(223,456,o),
(298,456,cs),
(352,456,o),
(392,414,o),
(401,349,c),
(466,394,l),
(441,457,o),
(369,500,o),
(284,500,cs),
(163,500,o),
(74,411,o),
(49,264,cs),
(45,241,o),
(43,220,o),
(43,199,cs),
(43,73,o),
(115,-10,o),
(240,-10,cs)
);
}
);
};
guides = (
{
angle = 80.5;
pos = (46,245);
},
{
angle = 80.5;
pos = (142,245);
},
{
angle = 80.5;
pos = (445,245);
},
{
angle = 80.5;
pos = (441,245);
}
);
layerId = "0B63B416-D10E-4459-8DAA-360BF3D1BFD2";
shapes = (
{
closed = 1;
nodes = (
(313,-10,o),
(378,22,o),
(416,73,c),
(363,120,l),
(336,67,o),
(292,34,o),
(246,34,cs),
(176,34,o),
(137,97,o),
(137,188,cs),
(137,277,o),
(179,456,o),
(298,456,cs),
(352,456,o),
(392,414,o),
(401,349,c),
(466,394,l),
(441,457,o),
(369,500,o),
(284,500,cs),
(123,500,o),
(44,347,o),
(44,199,cs),
(44,70,o),
(116,-10,o),
(240,-10,cs)
);
}
);
userData = {
com.hugojourdan.ColorFlow = {
"0" = 0;
"1" = 0;
"10" = 0;
"11" = 0;
"2" = 0;
"3" = 0;
"4" = 0;
"5" = 0;
"6" = 0;
"7" = 0;
"8" = 0;
"9" = 0;
};
};
width = 477;
},
{
anchors = (
{
name = bottom;
pos = (236,0);
},
{
name = top;
pos = (311,502);
}
);
background = {
shapes = (
{
closed = 1;
nodes = (
(333,-10,o),
(391,16,o),
(453,75,c),
(373,143,l),
(342,90,o),
(308,64,o),
(272,64,cs),
(223,64,o),
(197,110,o),
(197,186,cs),
(197,207,o),
(199,231,o),
(203,257,cs),
(222,370,o),
(266,438,o),
(320,438,cs),
(359,438,o),
(386,407,o),
(399,345,c),
(497,404,l),
(451,477,o),
(385,512,o),
(292,512,cs),
(158,512,o),
(57,420,o),
(32,269,cs),
(28,248,o),
(27,228,o),
(27,209,cs),
(27,76,o),
(114,-10,o),
(260,-10,cs)
);
}
);
};
layerId = "EE3858F4-A475-4EBA-A8F4-31CE9F38567C";
metricRight = "=|*0.24";
shapes = (
{
closed = 1;
nodes = (
(333,-10,o),
(391,16,o),
(453,75,c),
(373,143,l),
(342,90,o),
(308,64,o),
(272,64,cs),
(223,64,o),
(197,110,o),
(197,186,cs),
(197,255,o),
(227,438,o),
(320,438,cs),
(359,438,o),
(386,407,o),
(399,345,c),
(497,404,l),
(451,477,o),
(385,512,o),
(292,512,cs),
(121,512,o),
(27,364,o),
(27,209,cs),
(27,76,o),
(114,-10,o),
(260,-10,cs)
);
}
);
userData = {
com.hugojourdan.ColorFlow = {
"0" = 0;
"1" = 0;
"10" = 0;
"11" = 0;
"2" = 0;
"3" = 0;
"4" = 0;
"5" = 0;
"6" = 0;
"7" = 0;
"8" = 0;
"9" = 0;
};
};
width = 489;
}
);
metricLeft = "=o";
metricRight = "=|*0.7";
note = c;
unicode = 99;
userData = {
KernOnName = c;
};
},
{
glyphname = d;
kernLeft = KO_d;
kernRight = KO_d;
layers = (
{
anchors = (
{
name = bar;
pos = (435,595);
},
{
name = bottom;
pos = (261,0);
},
{
name = caron;
pos = (549,700);
}
);
layerId = m01;
shapes = (
{
closed = 1;
nodes = (
(342,-10,o),
(401,36,o),
(426,119,c),
(419,120,l),
(419,51,o),
(420,35,o),
(429,0,c),
(467,0,l),
(458,35,o),
(457,51,o),
(457,120,cs),
(457,700,l),
(412,700,l),
(412,365,l),
(421,367,l),
(397,445,o),
(339,488,o),
(257,488,cs),
(133,488,o),
(60,395,o),
(60,239,cs),
(60,83,o),
(133,-10,o),
(257,-10,cs)
);
},
{
closed = 1;
nodes = (
(164,18,o),
(108,99,o),
(108,239,cs),
(108,379,o),
(164,460,o),
(260,460,cs),
(350,460,o),
(412,388,o),
(412,282,cs),
(412,196,ls),
(412,90,o),
(350,18,o),
(260,18,cs)
);
}
);
userData = {
com.hugojourdan.ColorFlow = {
"0" = 0;
"1" = 0;
"10" = 0;
"11" = 0;
"2" = 0;
"3" = 0;
"4" = 0;
"5" = 0;
"6" = 0;
"7" = 0;
"8" = 0;
"9" = 0;
};
};
width = 555;
},
{
anchors = (
{
name = bar;
pos = (472,598);
},
{
name = bottom;
pos = (293,0);
},
{
name = caron;
pos = (643,700);
}
);
layerId = "FF73925E-1E34-445B-881D-5A7CAAA8E8BE";
shapes = (
{
closed = 1;
nodes = (
(351,-10,o),
(402,22,o),
(425,85,c),
(407,112,l),
(417,0,l),
(556,0,l),
(556,700,l),
(387,700,l),
(387,427,l),
(406,449,l),
(379,491,o),
(334,512,o),
(252,512,cs),
(105,512,o),
(29,416,o),
(29,253,cs),
(29,88,o),
(106,-10,o),
(254,-10,cs)
);
},
{
closed = 1;
nodes = (
(229,64,o),
(203,128,o),
(203,252,cs),
(203,376,o),
(229,438,o),
(295,438,cs),
(361,438,o),
(387,376,o),
(387,252,cs),
(387,128,o),
(361,64,o),
(295,64,cs)
);
}
);
userData = {
com.hugojourdan.ColorFlow = {
"0" = 0;
"1" = 0;
"10" = 0;
"11" = 0;
"2" = 0;
"3" = 0;
"4" = 0;
"5" = 0;
"6" = 0;
"7" = 0;
"8" = 0;
"9" = 0;
};
};
width = 600;
},
{
anchors = (
{
name = bar;
pos = (468,597);
},
{
name = bottom;
pos = (284,0);
},
{
name = caron;
pos = (608,700);
}
);
layerId = "BF6BA5B2-0556-42F4-A103-614BEBF16A1A";
shapes = (
{
closed = 1;
nodes = (
(355,-10,o),
(421,33,o),
(445,107,c),
(436,125,l),
(446,0,l),
(514,0,l),
(514,700,l),
(421,700,l),
(421,390,l),
(434,400,l),
(410,464,o),
(348,500,o),
(264,500,cs),
(131,500,o),
(53,406,o),
(53,245,cs),
(53,84,o),
(131,-10,o),
(265,-10,cs)
);
},
{
closed = 1;
nodes = (
(196,34,o),
(149,109,o),
(149,245,cs),
(149,381,o),
(197,456,o),
(284,456,cs),
(364,456,o),
(421,394,o),
(421,245,cs),
(421,97,o),
(364,34,o),
(283,34,cs)
);
}
);
userData = {
com.hugojourdan.ColorFlow = {
"0" = 0;
"1" = 0;
"10" = 0;
"11" = 0;
"2" = 0;
"3" = 0;
"4" = 0;
"5" = 0;
"6" = 0;
"7" = 0;
"8" = 0;
"9" = 0;
};
};
width = 585;
},
{
associatedMasterId = "FF73925E-1E34-445B-881D-5A7CAAA8E8BE";
layerId = "37B75A61-6AC9-4492-B793-26D46BEBBD36";
name = "13 Jun 23 12.08 PM";
shapes = (
{
closed = 1;
nodes = (
(291,-10,o),
(345,24,o),
(369,87,c),
(352,87,l),
(355,60,o),
(357,30,o),
(363,0,c),
(512,0,l),
(505,39,o),
(502,76,o),
(502,112,cs),
(502,740,l),
(333,740,l),
(333,468,l),
(305,496,o),
(267,510,o),
(222,510,cs),
(101,510,o),
(33,417,o),
(33,250,cs),
(33,83,o),
(101,-10,o),
(222,-10,cs)
);
},
{
closed = 1;
nodes = (
(227,64,o),
(204,131,o),
(204,250,cs),
(204,369,o),
(227,436,o),
(277,436,cs),
(309,436,o),
(333,408,o),
(333,356,cs),
(333,144,ls),
(333,92,o),
(309,64,o),
(277,64,cs)
);
}
);
userData = {
com.hugojourdan.ColorFlow = {
"0" = 0;
"1" = 0;
"10" = 0;
"11" = 0;
"2" = 0;
"3" = 0;
"4" = 0;
"5" = 0;
"6" = 0;
"7" = 0;
"8" = 0;
"9" = 0;
};
};
width = 550;
},
{
associatedMasterId = "BF6BA5B2-0556-42F4-A103-614BEBF16A1A";
layerId = "09E2CD4A-1A0D-4F92-B478-829F2C89EA22";
name = "13 Jun 23 12.09 PM";
shapes = (
{
closed = 1;
nodes = (
(318,-10,o),
(386,47,o),
(386,107,c),
(381,107,l),
(379,71,o),
(381,36,o),
(385,0,c),
(463,0,l),
(458,42,o),
(458,85,o),
(458,127,cs),
(458,740,l),
(365,740,l),
(365,438,l),
(340,474,o),
(297,500,o),
(233,500,cs),
(115,500,o),
(50,411,o),
(50,246,cs),
(50,80,o),
(115,-10,o),
(233,-10,cs)
);
},
{
closed = 1;
nodes = (
(185,34,o),
(145,102,o),
(145,246,cs),
(145,389,o),
(185,456,o),
(264,456,cs),
(317,456,o),
(365,405,o),
(365,351,cs),
(365,140,ls),
(365,86,o),
(317,34,o),
(264,34,cs)
);
}
);
userData = {
com.hugojourdan.ColorFlow = {
"0" = 0;
"1" = 0;
"10" = 0;
"11" = 0;
"2" = 0;
"3" = 0;
"4" = 0;
"5" = 0;
"6" = 0;
"7" = 0;
"8" = 0;
"9" = 0;
};
};
width = 529;
},
{
anchors = (
{
name = bar;
pos = (495,595);
},
{
name = bottom;
pos = (217,0);
},
{
name = caron;
pos = (627,700);
}
);
guides = (
{
angle = 260.5;
pos = (457,239);
},
{
angle = 260.5;
pos = (412,239);
},
{
angle = 260.5;
pos = (420,239);
},
{
angle = 260.5;
pos = (429,239);
},
{
angle = 260.5;
pos = (468,239);
},
{
angle = 260.5;
pos = (61,239);
},
{
angle = 260.5;
pos = (109,239);
}
);
layerId = "D2741A44-CB8E-4434-9CC9-735A9A127F4C";
shapes = (
{
closed = 1;
nodes = (
(309,-10,o),
(366,28,o),
(400,98,c),
(399,120,l),
(390,66,o),
(388,46,o),
(389,0,c),
(427,0,l),
(426,45,o),
(428,66,o),
(437,120,cs),
(535,700,l),
(490,700,l),
(432,352,l),
(446,345,l),
(434,437,o),
(376,488,o),
(280,488,cs),
(129,488,o),
(58,332,o),
(58,189,cs),
(58,66,o),
(121,-10,o),
(237,-10,cs)
);
},
{
closed = 1;
nodes = (
(152,18,o),
(105,79,o),
(105,184,cs),
(105,278,o),
(147,460,o),
(285,460,cs),
(387,460,o),
(435,374,o),
(417,269,cs),
(403,185,ls),
(385,78,o),
(321,18,o),
(239,18,cs)
);
}
);
userData = {
com.hugojourdan.ColorFlow = {
"0" = 0;
"1" = 0;
"10" = 0;
"11" = 0;
"2" = 0;
"3" = 0;
"4" = 0;
"5" = 0;
"6" = 0;
"7" = 0;
"8" = 0;
"9" = 0;
};
};
width = 555;
},
{
anchors = (
{
name = bar;
pos = (499,597);
},
{
name = bottom;
pos = (219,0);
},
{
name = caron;
pos = (657,700);
}
);
guides = (
{
angle = 260.5;
pos = (487,245);
},
{
angle = 260.5;
pos = (394,245);
},
{
angle = 260.5;
pos = (409,245);
},
{
angle = 260.5;
pos = (433,245);
},
{
angle = 260.5;
pos = (497,245);
},
{
angle = 260.5;
pos = (46,245);
},
{
angle = 260.5;
pos = (142,245);
}
);
layerId = "0B63B416-D10E-4459-8DAA-360BF3D1BFD2";
shapes = (
{
closed = 1;
nodes = (
(289,-10,o),
(361,19,o),
(393,111,c),
(389,126,l),
(378,60,o),
(376,31,o),
(378,0,c),
(456,0,l),
(454,31,o),
(456,60,o),
(467,126,cs),
(563,700,l),
(470,700,l),
(418,388,l),
(438,369,l),
(426,453,o),
(366,500,o),
(271,500,cs),
(114,500,o),
(43,337,o),
(43,192,cs),
(43,67,o),
(109,-10,o),
(227,-10,cs)
);
},
{
closed = 1;
nodes = (
(175,34,o),
(137,83,o),
(137,179,cs),
(137,263,o),
(166,456,o),
(293,456,cs),
(383,456,o),
(416,376,o),
(402,293,cs),
(382,173,ls),
(368,89,o),
(313,34,o),
(245,34,cs)
);
}
);
userData = {
com.hugojourdan.ColorFlow = {
"0" = 0;
"1" = 0;
"10" = 0;
"11" = 0;
"2" = 0;
"3" = 0;
"4" = 0;
"5" = 0;
"6" = 0;
"7" = 0;
"8" = 0;
"9" = 0;
};
};
width = 568;
},
{
anchors = (
{
name = bar;
pos = (489,598);
},
{
name = bottom;
pos = (210,0);
},
{
name = caron;
pos = (678,700);
}
);
layerId = "EE3858F4-A475-4EBA-A8F4-31CE9F38567C";
shapes = (
{
closed = 1;
nodes = (
(277,-10,o),
(328,23,o),
(355,81,c),
(344,114,l),
(335,61,o),
(332,27,o),
(335,0,c),
(484,0,l),
(481,27,o),
(484,61,o),
(493,114,cs),
(591,700,l),
(422,700,l),
(369,383,l),
(410,404,l),
(396,475,o),
(344,512,o),
(257,512,cs),
(121,512,o),
(27,379,o),
(27,197,cs),
(27,63,o),
(94,-10,o),
(208,-10,cs)
);
},
{
closed = 1;
nodes = (
(214,61,o),
(194,94,o),
(194,160,cs),
(194,224,o),
(219,435,o),
(304,435,cs),
(357,435,o),
(367,371,o),
(361,335,cs),
(330,150,ls),
(321,94,o),
(290,61,o),
(252,61,cs)
);
}
);
userData = {
com.hugojourdan.ColorFlow = {
"0" = 0;
"1" = 0;
"10" = 0;
"11" = 0;
"2" = 0;
"3" = 0;
"4" = 0;
"5" = 0;
"6" = 0;
"7" = 0;
"8" = 0;
"9" = 0;
};
};
width = 570;
}
);
metricLeft = "=o";
metricRight = "=l";
note = d;
unicode = 100;
userData = {
KernOnName = d;
};
},
{
glyphname = eth;
kernLeft = KO_o;
layers = (
{
background = {
shapes = (
{
closed = 0;
nodes = (
(459,261,l),
(459,426,o),
(379,583,o),
(235,700,c),
(195,700,l),
(339,583,o),
(419,426,o),
(419,261,c)
);
}
);
};
layerId = m01;
shapes = (
{
closed = 1;
nodes = (
(387,-10,o),
(459,87,o),
(459,261,cs),
(459,426,o),
(365,583,o),
(195,700,c),
(155,700,l),
(296,603,o),
(381,484,o),
(412,345,c),
(421,349,l),
(396,425,o),
(336,470,o),
(258,470,cs),
(131,470,o),
(60,384,o),
(60,230,cs),
(60,76,o),
(131,-10,o),
(258,-10,cs)
);
},
{
closed = 1;
nodes = (
(164,18,o),
(108,96,o),
(108,230,cs),
(108,364,o),
(164,442,o),
(260,442,cs),
(350,442,o),
(412,374,o),
(412,273,cs),
(412,187,ls),
(412,86,o),
(350,18,o),
(260,18,cs)
);
},
{
closed = 1;
nodes = (
(401,677,l),
(387,700,l),
(190,583,l),
(204,560,l)
);
}
);
userData = {
com.hugojourdan.ColorFlow = {
"0" = 0;
"1" = 0;
"10" = 0;
"11" = 0;
"2" = 0;
"3" = 0;
"4" = 0;
"5" = 0;
"6" = 0;
"7" = 0;
"8" = 0;
"9" = 0;
};
};
width = 519;
},
{
layerId = "BF6BA5B2-0556-42F4-A103-614BEBF16A1A";
shapes = (
{
closed = 1;
nodes = (
(403,-10,o),
(479,91,o),
(479,276,cs),
(479,430,o),
(393,578,o),
(232,700,c),
(145,700,l),
(275,601,o),
(356,486,o),
(395,364,c),
(398,379,l),
(371,443,o),
(318,478,o),
(246,478,cs),
(119,478,o),
(46,389,o),
(46,234,cs),
(46,80,o),
(127,-10,o),
(262,-10,cs)
);
},
{
closed = 1;
nodes = (
(187,36,o),
(143,107,o),
(143,234,cs),
(143,361,o),
(187,432,o),
(266,432,cs),
(337,432,o),
(385,376,o),
(385,292,cs),
(385,176,ls),
(385,93,o),
(336,36,o),
(265,36,cs)
);
},
{
closed = 1;
nodes = (
(426,663,l),
(404,700,l),
(195,576,l),
(218,539,l)
);
}
);
userData = {
com.hugojourdan.ColorFlow = {
"0" = 0;
"1" = 0;
"10" = 0;
"11" = 0;
"2" = 0;
"3" = 0;
"4" = 0;
"5" = 0;
"6" = 0;
"7" = 0;
"8" = 0;
"9" = 0;
};
};
width = 525;
},
{
layerId = "FF73925E-1E34-445B-881D-5A7CAAA8E8BE";
shapes = (
{
closed = 1;
nodes = (
(432,-10,o),
(516,97,o),
(516,300,cs),
(516,437,o),
(443,571,o),
(296,700,c),
(145,700,l),
(256,603,o),
(327,503,o),
(354,401,c),
(366,427,l),
(335,471,o),
(293,490,o),
(232,490,cs),
(105,490,o),
(29,396,o),
(29,240,cs),
(29,87,o),
(124,-10,o),
(273,-10,cs)
);
},
{
closed = 1;
nodes = (
(229,64,o),
(203,125,o),
(203,241,cs),
(203,357,o),
(229,416,o),
(279,416,cs),
(320,416,o),
(347,378,o),
(347,322,cs),
(347,158,ls),
(347,103,o),
(319,64,o),
(278,64,cs)
);
},
{
closed = 1;
nodes = (
(461,640,l),
(424,700,l),
(197,565,l),
(234,505,l)
);
}
);
userData = {
com.hugojourdan.ColorFlow = {
"0" = 0;
"1" = 0;
"10" = 0;
"11" = 0;
"2" = 0;
"3" = 0;
"4" = 0;
"5" = 0;
"6" = 0;
"7" = 0;
"8" = 0;
"9" = 0;
};
};
width = 545;
},
{
background = {
shapes = (
{
closed = 1;
nodes = (
(223,-10,o),
(230,-10,o),
(236,-10,cs),
(353,-10,o),
(433,80,o),
(460,245,cs),
(465,274,o),
(467,302,o),
(467,331,cs),
(467,465,o),
(413,595,o),
(311,701,c),
(272,704,l),
(374,598,o),
(425,473,o),
(428,332,c),
(438,336,l),
(424,420,o),
(364,471,o),
(275,471,cs),
(162,471,o),
(85,391,o),
(61,247,cs),
(57,222,o),
(55,199,o),
(55,178,cs),
(55,66,o),
(111,0,o),
(217,-9,cs)
);
},
{
closed = 1;
nodes = (
(156,18,o),
(103,78,o),
(103,189,cs),
(103,320,o),
(165,443,o),
(278,443,cs),
(374,443,o),
(435,362,o),
(417,261,cs),
(402,175,ls),
(385,77,o),
(321,18,o),
(235,18,cs)
);
},
{
closed = 1;
nodes = (
(482,663,l),
(472,687,l),
(258,587,l),
(268,563,l)
);
}
);
};
layerId = "D2741A44-CB8E-4434-9CC9-735A9A127F4C";
shapes = (
{
closed = 1;
nodes = (
(420,-10,o),
(467,211,o),
(466,331,cs),
(466,465,o),
(402,594,o),
(272,700,c),
(232,700,l),
(362,594,o),
(432,467,o),
(434,332,c),
(438,336,l),
(424,422,o),
(363,471,o),
(273,471,cs),
(106,471,o),
(56,293,o),
(56,186,cs),
(56,37,o),
(150,-10,o),
(238,-10,cs)
);
},
{
closed = 1;
nodes = (
(156,18,o),
(103,78,o),
(103,189,cs),
(103,320,o),
(165,443,o),
(278,443,cs),
(374,443,o),
(435,362,o),
(417,261,cs),
(402,175,ls),
(385,77,o),
(321,18,o),
(235,18,cs)
);
},
{
closed = 1;
nodes = (
(472,663,l),
(462,687,l),
(248,587,l),
(258,563,l)
);
}
);
userData = {
com.hugojourdan.ColorFlow = {
"0" = 0;
"1" = 0;
"10" = 0;
"11" = 0;
"2" = 0;
"3" = 0;
"4" = 0;
"5" = 0;
"6" = 0;
"7" = 0;
"8" = 0;
"9" = 0;
};
};
width = 519;
},
{
background = {
shapes = (
{
closed = 1;
nodes = (
(369,-10,o),
(453,84,o),
(482,258,cs),
(486,285,o),
(489,312,o),
(489,339,cs),
(489,465,o),
(441,589,o),
(347,698,c),
(262,705,l),
(353,598,o),
(401,477,o),
(413,353,c),
(419,368,l),
(402,439,o),
(347,478,o),
(265,478,cs),
(151,478,o),
(70,397,o),
(47,252,cs),
(43,230,o),
(41,209,o),
(41,189,cs),
(41,66,o),
(113,-10,o),
(242,-10,cs)
);
},
{
closed = 1;
nodes = (
(171,36,o),
(137,87,o),
(137,187,cs),
(137,299,o),
(180,432,o),
(289,432,cs),
(364,432,o),
(403,371,o),
(390,282,cs),
(373,166,ls),
(362,89,o),
(307,36,o),
(238,36,cs)
);
},
{
closed = 1;
nodes = (
(504,648,l),
(488,686,l),
(260,580,l),
(277,541,l)
);
}
);
};
layerId = "0B63B416-D10E-4459-8DAA-360BF3D1BFD2";
shapes = (
{
closed = 1;
nodes = (
(434,-10,o),
(488,210,o),
(488,339,cs),
(488,466,o),
(425,590,o),
(305,700,c),
(218,700,l),
(341,595,o),
(408,471,o),
(413,334,c),
(424,338,l),
(418,425,o),
(358,478,o),
(264,478,cs),
(110,478,o),
(44,333,o),
(44,197,cs),
(44,74,o),
(116,-10,o),
(243,-10,cs)
);
},
{
closed = 1;
nodes = (
(171,36,o),
(137,87,o),
(137,187,cs),
(137,299,o),
(180,432,o),
(289,432,cs),
(364,432,o),
(403,371,o),
(390,282,cs),
(373,166,ls),
(362,89,o),
(307,36,o),
(238,36,cs)
);
},
{
closed = 1;
nodes = (
(494,647,l),
(477,686,l),
(249,580,l),
(266,541,l)
);
}
);
userData = {
com.hugojourdan.ColorFlow = {
"0" = 0;
"1" = 0;
"10" = 0;
"11" = 0;
"2" = 0;
"3" = 0;
"4" = 0;
"5" = 0;
"6" = 0;
"7" = 0;
"8" = 0;
"9" = 0;
};
};
width = 525;
},
{
layerId = "EE3858F4-A475-4EBA-A8F4-31CE9F38567C";
shapes = (
{
closed = 1;
nodes = (
(459,-10,o),
(526,202,o),
(526,360,cs),
(526,483,o),
(468,586,o),
(354,700,c),
(217,700,l),
(325,585,o),
(379,471,o),
(387,357,c),
(401,357,l),
(386,448,o),
(343,490,o),
(254,490,cs),
(106,490,o),
(26,345,o),
(26,205,cs),
(26,75,o),
(111,-10,o),
(257,-10,cs)
);
},
{
closed = 1;
nodes = (
(216,64,o),
(196,98,o),
(196,163,cs),
(196,293,o),
(248,416,o),
(303,416,cs),
(344,416,o),
(368,375,o),
(360,316,cs),
(333,152,ls),
(323,99,o),
(291,64,o),
(253,64,cs)
);
},
{
closed = 1;
nodes = (
(524,622,l),
(496,685,l),
(251,571,l),
(279,508,l)
);
}
);
userData = {
com.hugojourdan.ColorFlow = {
"0" = 0;
"1" = 0;
"10" = 0;
"11" = 0;
"2" = 0;
"3" = 0;
"4" = 0;
"5" = 0;
"6" = 0;
"7" = 0;
"8" = 0;
"9" = 0;
};
};
width = 545;
}
);
metricLeft = "=o";
metricRight = "=|";
unicode = 240;
userData = {
KernOnName = eth;
};
},
{
glyphname = e;
kernLeft = KO_o;
kernRight = KO_e;
layers = (
{
anchors = (
{
name = bottom;
pos = (265,0);
},
{
name = ogonek;
pos = (330,0);
},
{
name = top;
pos = (273,478);
}
);
layerId = m01;
shapes = (
{
closed = 1;
nodes = (
(332,-10,o),
(389,19,o),
(438,79,c),
(394,112,l),
(364,49,o),
(320,18,o),
(262,18,cs),
(165,18,o),
(108,101,o),
(108,242,cs),
(108,248,ls),
(108,384,o),
(168,460,o),
(269,460,cs),
(352,460,o),
(405,408,o),
(405,325,cs),
(405,305,o),
(402,279,o),
(394,248,c),
(437,276,l),
(92,255,l),
(92,230,l),
(441,237,l),
(446,268,o),
(449,294,o),
(449,317,cs),
(449,423,o),
(383,488,o),
(268,488,cs),
(135,488,o),
(60,402,o),
(60,240,cs),
(60,80,o),
(133,-10,o),
(260,-10,cs)
);
}
);
userData = {
com.hugojourdan.ColorFlow = {
"0" = 0;
"1" = 0;
"10" = 0;
"11" = 0;
"2" = 0;
"3" = 0;
"4" = 0;
"5" = 0;
"6" = 0;
"7" = 0;
"8" = 0;
"9" = 0;
};
};
width = 509;
},
{
anchors = (
{
name = bottom;
pos = (281,0);
},
{
name = ogonek;
pos = (354,0);
},
{
name = top;
pos = (282,490);
}
);
background = {
shapes = (
{
pos = (3,0);
ref = o;
}
);
};
guides = (
{
angle = 145.4516;
pos = (431,109);
}
);
layerId = "BF6BA5B2-0556-42F4-A103-614BEBF16A1A";
shapes = (
{
closed = 1;
nodes = (
(394,-10,o),
(459,34,o),
(488,116,c),
(415,130,l),
(398,73,o),
(353,34,o),
(293,34,cs),
(204,34,o),
(147,122,o),
(147,246,cs),
(147,252,ls),
(147,381,o),
(202,458,o),
(291,458,cs),
(394,458,o),
(409,355,o),
(409,280,cs),
(409,267,o),
(409,254,o),
(408,243,c),
(443,281,l),
(105,281,l),
(105,227,l),
(485,227,l),
(487,242,o),
(488,261,o),
(488,278,cs),
(488,374,o),
(455,500,o),
(289,500,cs),
(142,500,o),
(53,400,o),
(53,236,cs),
(53,77,o),
(137,-10,o),
(287,-10,cs)
);
}
);
userData = {
com.hugojourdan.ColorFlow = {
"0" = 0;
"1" = 0;
"10" = 0;
"11" = 0;
"2" = 0;
"3" = 0;
"4" = 0;
"5" = 0;
"6" = 0;
"7" = 0;
"8" = 0;
"9" = 0;
};
};
width = 541;
},
{
anchors = (
{
name = top;
pos = (271,500);
}
);
associatedMasterId = "FF73925E-1E34-445B-881D-5A7CAAA8E8BE";
layerId = "7BB96231-CDA0-4CDC-B115-3163B4645357";
name = "12 Jun 23 1.21 PM";
shapes = (
{
closed = 1;
nodes = (
(183,219,l),
(465,225,l),
(471,252,o),
(476,283,o),
(476,316,cs),
(476,410,o),
(436,510,o),
(270,510,cs),
(124,510,o),
(33,410,o),
(33,250,cs),
(33,81,o),
(115,-10,o),
(267,-10,cs),
(358,-10,o),
(430,24,o),
(486,93,c),
(405,146,l),
(389,97,o),
(345,64,o),
(297,64,cs),
(236,64,o),
(202,118,o),
(199,224,cs),
(199,259,ls),
(195,362,o),
(223,436,o),
(272,436,cs),
(310,436,o),
(329,401,o),
(329,331,cs),
(329,309,o),
(327,292,o),
(324,281,c),
(183,263,l)
);
}
);
userData = {
com.hugojourdan.ColorFlow = {
"0" = 0;
"1" = 0;
"10" = 0;
"11" = 0;
"2" = 0;
"3" = 0;
"4" = 0;
"5" = 0;
"6" = 0;
"7" = 0;
"8" = 0;
"9" = 0;
};
};
width = 519;
},
{
anchors = (
{
name = bottom;
pos = (285,0);
},
{
name = ogonek;
pos = (360,0);
},
{
name = top;
pos = (272,502);
}
);
background = {
shapes = (
{
pos = (-3,0);
ref = o;
}
);
};
guides = (
{
angle = 146.8024;
pos = (447,120);
},
{
angle = -18.5869;
pos = (455,134);
}
);
layerId = "FF73925E-1E34-445B-881D-5A7CAAA8E8BE";
name = Bold;
shapes = (
{
closed = 1;
nodes = (
(373,-10,o),
(459,40,o),
(499,119,c),
(402,152,l),
(382,96,o),
(343,64,o),
(297,64,cs),
(234,64,o),
(201,124,o),
(201,239,cs),
(201,247,ls),
(201,364,o),
(232,438,o),
(282,438,cs),
(316,438,o),
(335,398,o),
(335,327,cs),
(335,302,o),
(333,273,o),
(329,249,c),
(370,288,l),
(155,288,l),
(155,219,l),
(489,219,l),
(492,237,o),
(493,260,o),
(493,286,cs),
(493,437,o),
(423,512,o),
(281,512,cs),
(122,512,o),
(29,417,o),
(29,256,cs),
(29,97,o),
(129,-10,o),
(276,-10,cs)
);
}
);
userData = {
com.hugojourdan.ColorFlow = {
"0" = 0;
"1" = 0;
"10" = 0;
"11" = 0;
"2" = 0;
"3" = 0;
"4" = 0;
"5" = 0;
"6" = 0;
"7" = 0;
"8" = 0;
"9" = 0;
};
};
width = 521;
},
{
anchors = (
{
name = bottom;
pos = (225,0);
},
{
name = ogonek;
pos = (306,0);
},
{
name = top;
pos = (302,478);
}
);
background = {
shapes = (
{
closed = 1;
nodes = (
(303,-10,o),
(357,15,o),
(409,65,c),
(371,102,l),
(334,47,o),
(290,18,o),
(239,18,cs),
(153,18,o),
(104,81,o),
(104,184,cs),
(104,206,o),
(107,229,o),
(111,255,cs),
(112,261,ls),
(134,390,o),
(200,460,o),
(291,460,cs),
(372,460,o),
(421,413,o),
(421,341,cs),
(421,332,o),
(421,323,o),
(419,313,cs),
(415,293,o),
(408,268,o),
(395,237,c),
(443,276,l),
(95,255,l),
(91,230,l),
(442,237,l),
(450,262,o),
(456,283,o),
(460,302,cs),
(462,315,o),
(463,327,o),
(463,339,cs),
(463,430,o),
(402,488,o),
(290,488,cs),
(169,488,o),
(88,409,o),
(63,257,cs),
(59,232,o),
(57,208,o),
(57,186,cs),
(57,63,o),
(121,-10,o),
(240,-10,cs)
);
}
);
};
guides = (
{
angle = 80.5;
pos = (60,239);
},
{
angle = 80.5;
pos = (108,239);
},
{
angle = 80.5;
pos = (449,239);
},
{
angle = 80.5;
pos = (438,239);
}
);
layerId = "D2741A44-CB8E-4434-9CC9-735A9A127F4C";
shapes = (
{
closed = 1;
nodes = (
(303,-10,o),
(357,15,o),
(409,65,c),
(371,102,l),
(334,47,o),
(290,18,o),
(239,18,cs),
(115,18,o),
(91,136,o),
(111,255,cs),
(112,261,ls),
(133,389,o),
(200,460,o),
(291,460,cs),
(372,460,o),
(421,413,o),
(421,341,cs),
(421,314,o),
(414,291,o),
(405,262,c),
(443,276,l),
(95,255,l),
(91,230,l),
(442,237,l),
(453,271,o),
(463,303,o),
(463,339,cs),
(463,430,o),
(402,488,o),
(290,488,cs),
(127,488,o),
(58,342,o),
(58,186,cs),
(58,59,o),
(122,-10,o),
(240,-10,cs)
);
}
);
userData = {
com.hugojourdan.ColorFlow = {
"0" = 0;
"1" = 0;
"10" = 0;
"11" = 0;
"2" = 0;
"3" = 0;
"4" = 0;
"5" = 0;
"6" = 0;
"7" = 0;
"8" = 0;
"9" = 0;
};
};
width = 509;
},
{
anchors = (
{
name = bottom;
pos = (235,0);
},
{
name = ogonek;
pos = (318,0);
},
{
name = top;
pos = (318,490);
}
);
background = {
anchors = (
{
name = top;
pos = (323,490);
}
);
};
guides = (
{
angle = 80.5;
pos = (46,245);
},
{
angle = 80.5;
pos = (140,245);
},
{
angle = 80.5;
pos = (464,245);
},
{
angle = 80.5;
pos = (454,245);
},
{
angle = 80.5;
pos = (385,245);
},
{
angle = 80.5;
pos = (376,245);
},
{
angle = 80.5;
pos = (393,245);
}
);
layerId = "0B63B416-D10E-4459-8DAA-360BF3D1BFD2";
shapes = (
{
closed = 1;
nodes = (
(334,-10,o),
(384,21,o),
(425,72,c),
(373,125,l),
(343,65,o),
(306,34,o),
(255,34,cs),
(173,34,o),
(118,114,o),
(141,251,cs),
(142,257,ls),
(157,349,o),
(203,458,o),
(304,458,cs),
(365,458,o),
(401,420,o),
(401,355,cs),
(401,323,o),
(392,291,o),
(378,257,c),
(415,280,l),
(117,260,l),
(112,227,l),
(455,234,l),
(472,285,o),
(477,310,o),
(477,337,cs),
(477,439,o),
(404,500,o),
(298,500,cs),
(146,500,o),
(44,372,o),
(44,199,cs),
(44,60,o),
(116,-10,o),
(247,-10,cs)
);
}
);
userData = {
com.hugojourdan.ColorFlow = {
"0" = 0;
"1" = 0;
"10" = 0;
"11" = 0;
"2" = 0;
"3" = 0;
"4" = 0;
"5" = 0;
"6" = 0;
"7" = 0;
"8" = 0;
"9" = 0;
};
};
width = 510;
},
{
anchors = (
{
name = bottom;
pos = (244,0);
},
{
name = ogonek;
pos = (342,0);
},
{
name = top;
pos = (336,502);
}
);
background = {
shapes = (
{
closed = 1;
nodes = (
(341,-10,o),
(403,16,o),
(462,74,c),
(383,141,l),
(356,92,o),
(317,64,o),
(275,64,cs),
(222,64,o),
(194,100,o),
(194,176,cs),
(194,196,o),
(196,219,o),
(200,244,cs),
(202,252,ls),
(220,364,o),
(261,438,o),
(310,438,cs),
(339,438,o),
(353,418,o),
(353,377,cs),
(353,363,o),
(351,347,o),
(348,328,cs),
(343,296,o),
(336,274,o),
(323,244,c),
(376,289,l),
(157,260,l),
(151,219,l),
(480,226,l),
(491,256,o),
(497,280,o),
(500,299,cs),
(502,313,o),
(503,326,o),
(503,339,cs),
(503,445,o),
(428,512,o),
(295,512,cs),
(153,512,o),
(57,423,o),
(32,270,cs),
(28,248,o),
(27,227,o),
(27,208,cs),
(27,73,o),
(112,-10,o),
(266,-10,cs)
);
}
);
};
guides = (
{
angle = 80.5;
pos = (29,251);
},
{
angle = 80.5;
pos = (492,251);
},
{
angle = 80.5;
pos = (201,251);
},
{
angle = 80.5;
pos = (402,251);
}
);
layerId = "EE3858F4-A475-4EBA-A8F4-31CE9F38567C";
name = Bold;
shapes = (
{
closed = 1;
nodes = (
(341,-10,o),
(403,15,o),
(462,72,c),
(384,143,l),
(357,93,o),
(318,64,o),
(275,64,cs),
(183,64,o),
(189,175,o),
(200,245,cs),
(202,257,ls),
(219,359,o),
(261,438,o),
(310,438,cs),
(339,438,o),
(353,418,o),
(353,377,cs),
(353,340,o),
(342,285,o),
(323,244,c),
(376,289,l),
(157,260,l),
(151,219,l),
(480,226,l),
(494,265,o),
(503,299,o),
(503,339,cs),
(503,445,o),
(428,512,o),
(295,512,cs),
(122,512,o),
(28,376,o),
(28,208,cs),
(28,73,o),
(113,-10,o),
(266,-10,cs)
);
}
);
userData = {
com.hugojourdan.ColorFlow = {
"0" = 0;
"1" = 0;
"10" = 0;
"11" = 0;
"2" = 0;
"3" = 0;
"4" = 0;
"5" = 0;
"6" = 0;
"7" = 0;
"8" = 0;
"9" = 0;
};
};
width = 521;
}
);
metricLeft = "=o";
metricRight = "=|";
note = e;
unicode = 101;
userData = {
KernOnName = e;
};
},
{
glyphname = f;
kernLeft = KO_f;
kernRight = KO_f;
layers = (
{
layerId = m01;
shapes = (
{
closed = 1;
nodes = (
(146,0,l),
(146,448,l),
(289,448,l),
(289,478,l),
(16,470,l),
(16,448,l),
(101,448,l),
(101,0,l)
);
},
{
closed = 1;
nodes = (
(143,466,l),
(137,522,o),
(136,539,o),
(136,557,cs),
(136,638,o),
(168,682,o),
(228,682,cs),
(269,682,o),
(302,656,o),
(325,606,c),
(364,643,l),
(326,687,o),
(280,710,o),
(228,710,cs),
(149,710,o),
(101,652,o),
(101,558,cs),
(101,466,l)
);
}
);
userData = {
com.hugojourdan.ColorFlow = {
"0" = 0;
"1" = 0;
"10" = 0;
"11" = 0;
"2" = 0;
"3" = 0;
"4" = 0;
"5" = 0;
"6" = 0;
"7" = 0;
"8" = 0;
"9" = 0;
};
};
width = 322;
},
{
layerId = "FF73925E-1E34-445B-881D-5A7CAAA8E8BE";
shapes = (
{
closed = 1;
nodes = (
(250,0,l),
(250,436,l),
(351,436,l),
(351,502,l),
(8,502,l),
(8,436,l),
(81,436,l),
(81,0,l)
);
},
{
closed = 1;
nodes = (
(250,466,l),
(250,578,ls),
(250,616,o),
(273,645,o),
(312,645,cs),
(324,645,o),
(336,642,o),
(350,637,c),
(350,707,l),
(322,723,o),
(290,731,o),
(258,731,cs),
(169,731,o),
(81,672,o),
(81,554,cs),
(81,466,l)
);
}
);
userData = {
com.hugojourdan.ColorFlow = {
"0" = 0;
"1" = 0;
"10" = 0;
"11" = 0;
"2" = 0;
"3" = 0;
"4" = 0;
"5" = 0;
"6" = 0;
"7" = 0;
"8" = 0;
"9" = 0;
};
};
width = 370;
},
{
background = {
shapes = (
{
closed = 0;
nodes = (
(174,576,ls),
(174,634,o),
(202,677,o),
(240,677,cs),
(276,677,o),
(310,652,o),
(336,607,c),
(386,666,l),
(346,701,o),
(297,720,o),
(244,720,cs),
(153,720,o),
(93,653,o),
(93,553,cs)
);
}
);
};
layerId = "BF6BA5B2-0556-42F4-A103-614BEBF16A1A";
shapes = (
{
closed = 1;
nodes = (
(184,0,l),
(184,444,l),
(311,444,l),
(311,490,l),
(11,490,l),
(11,444,l),
(91,444,l),
(91,0,l)
);
},
{
closed = 1;
nodes = (
(183,474,l),
(183,546,ls),
(183,640,o),
(230,672,o),
(280,672,cs),
(291,672,o),
(301,670,o),
(311,668,c),
(311,706,l),
(295,709,o),
(278,711,o),
(262,711,cs),
(176,711,o),
(91,664,o),
(91,535,cs),
(91,472,l)
);
}
);
userData = {
com.hugojourdan.ColorFlow = {
"0" = 0;
"1" = 0;
"10" = 0;
"11" = 0;
"2" = 0;
"3" = 0;
"4" = 0;
"5" = 0;
"6" = 0;
"7" = 0;
"8" = 0;
"9" = 0;
};
};
width = 338;
},
{
associatedMasterId = "FF73925E-1E34-445B-881D-5A7CAAA8E8BE";
layerId = "97D26A38-0955-4BE2-A563-75E9F64BB563";
name = "13 Jun 23 5.05 PM";
shapes = (
{
closed = 1;
nodes = (
(245,0,l),
(245,437,l),
(346,437,l),
(346,500,l),
(3,486,l),
(3,437,l),
(76,437,l),
(76,0,l)
);
},
{
closed = 1;
nodes = (
(245,464,l),
(183,505,o),
(158,541,o),
(158,588,cs),
(158,641,o),
(190,674,o),
(243,674,cs),
(284,674,o),
(330,649,o),
(360,610,c),
(412,680,l),
(374,718,o),
(317,740,o),
(255,740,cs),
(142,740,o),
(76,672,o),
(76,555,cs),
(76,464,l)
);
}
);
userData = {
com.hugojourdan.ColorFlow = {
"0" = 0;
"1" = 0;
"10" = 0;
"11" = 0;
"2" = 0;
"3" = 0;
"4" = 0;
"5" = 0;
"6" = 0;
"7" = 0;
"8" = 0;
"9" = 0;
};
};
width = 354;
},
{
associatedMasterId = "BF6BA5B2-0556-42F4-A103-614BEBF16A1A";
background = {
shapes = (
{
closed = 0;
nodes = (
(174,576,ls),
(174,634,o),
(202,677,o),
(240,677,cs),
(276,677,o),
(310,652,o),
(336,607,c),
(386,666,l),
(346,701,o),
(297,720,o),
(244,720,cs),
(153,720,o),
(93,653,o),
(93,553,cs)
);
}
);
};
layerId = "86D99777-783F-467F-9C7F-8AA797AB2347";
name = "13 Jun 23 5.11 PM";
shapes = (
{
closed = 1;
nodes = (
(184,0,l),
(184,445,l),
(311,445,l),
(311,490,l),
(11,480,l),
(11,445,l),
(91,445,l),
(91,0,l)
);
},
{
closed = 1;
nodes = (
(184,477,l),
(166,508,o),
(156,538,o),
(156,567,cs),
(156,631,o),
(193,676,o),
(245,676,cs),
(288,676,o),
(328,647,o),
(354,598,c),
(385,669,l),
(350,702,o),
(303,720,o),
(252,720,cs),
(153,720,o),
(92,655,o),
(92,549,cs),
(92,475,l)
);
}
);
userData = {
com.hugojourdan.ColorFlow = {
"0" = 0;
"1" = 0;
"10" = 0;
"11" = 0;
"2" = 0;
"3" = 0;
"4" = 0;
"5" = 0;
"6" = 0;
"7" = 0;
"8" = 0;
"9" = 0;
};
};
width = 317;
},
{
background = {
shapes = (
{
pos = (14,0);
ref = l;
}
);
};
guides = (
{
angle = 80.5;
pos = (16,239);
},
{
angle = 80.5;
pos = (289,239);
},
{
angle = 80.5;
pos = (101,239);
},
{
angle = 80.5;
pos = (146,239);
},
{
angle = 80.5;
pos = (136,239);
}
);
layerId = "D2741A44-CB8E-4434-9CC9-735A9A127F4C";
shapes = (
{
closed = 1;
nodes = (
(106,0,l),
(181,448,l),
(324,448,l),
(329,478,l),
(55,470,l),
(51,448,l),
(136,448,l),
(61,0,l)
);
},
{
closed = 1;
nodes = (
(181,466,l),
(184,525,o),
(187,544,o),
(190,562,cs),
(203,640,o),
(238,682,o),
(292,682,cs),
(339,682,o),
(371,654,o),
(385,598,c),
(430,632,l),
(398,682,o),
(351,710,o),
(294,710,cs),
(222,710,o),
(171,657,o),
(155,562,cs),
(139,466,l)
);
}
);
userData = {
com.hugojourdan.ColorFlow = {
"0" = 0;
"1" = 0;
"10" = 0;
"11" = 0;
"2" = 0;
"3" = 0;
"4" = 0;
"5" = 0;
"6" = 0;
"7" = 0;
"8" = 0;
"9" = 0;
};
};
width = 322;
},
{
guides = (
{
angle = 80.5;
pos = (94,245);
},
{
angle = 80.5;
pos = (187,245);
},
{
angle = 80.5;
pos = (11,245);
},
{
angle = 80.5;
pos = (311,245);
},
{
angle = 80.5;
pos = (158,245);
}
);
layerId = "0B63B416-D10E-4459-8DAA-360BF3D1BFD2";
shapes = (
{
closed = 1;
nodes = (
(146,0,l),
(220,444,l),
(344,444,l),
(352,490,l),
(50,480,l),
(44,444,l),
(127,444,l),
(53,0,l)
);
},
{
closed = 1;
nodes = (
(224,472,l),
(215,489,o),
(210,516,o),
(210,542,cs),
(210,612,o),
(253,667,o),
(307,667,cs),
(344,667,o),
(372,640,o),
(393,586,c),
(451,640,l),
(414,686,o),
(367,710,o),
(313,710,cs),
(225,710,o),
(162,648,o),
(144,544,cs),
(132,472,l)
);
}
);
userData = {
com.hugojourdan.ColorFlow = {
"0" = 0;
"1" = 0;
"10" = 0;
"11" = 0;
"2" = 0;
"3" = 0;
"4" = 0;
"5" = 0;
"6" = 0;
"7" = 0;
"8" = 0;
"9" = 0;
};
};
width = 338;
},
{
guides = (
{
angle = 80.5;
pos = (8,251);
},
{
angle = 80.5;
pos = (81,251);
},
{
angle = 80.5;
pos = (250,251);
},
{
angle = 80.5;
pos = (351,251);
},
{
angle = 80.5;
pos = (184,251);
}
);
layerId = "EE3858F4-A475-4EBA-A8F4-31CE9F38567C";
shapes = (
{
closed = 1;
nodes = (
(208,0,l),
(281,436,l),
(382,436,l),
(393,502,l),
(48,490,l),
(39,436,l),
(112,436,l),
(39,0,l)
);
},
{
closed = 1;
nodes = (
(286,466,l),
(254,502,o),
(239,535,o),
(239,571,cs),
(239,624,o),
(273,664,o),
(321,664,cs),
(357,664,o),
(380,640,o),
(404,577,c),
(482,637,l),
(442,698,o),
(387,730,o),
(320,730,cs),
(224,730,o),
(150,664,o),
(133,562,cs),
(117,466,l)
);
}
);
userData = {
com.hugojourdan.ColorFlow = {
"0" = 0;
"1" = 0;
"10" = 0;
"11" = 0;
"2" = 0;
"3" = 0;
"4" = 0;
"5" = 0;
"6" = 0;
"7" = 0;
"8" = 0;
"9" = 0;
};
};
width = 370;
}
);
note = f;
unicode = 102;
userData = {
KernOnName = f;
};
},
{
glyphname = g;
kernLeft = KO_g;
kernRight = KO_g;
layers = (
{
anchors = (
{
name = top;
pos = (251,502);
}
);
layerId = "FF73925E-1E34-445B-881D-5A7CAAA8E8BE";
shapes = (
{
closed = 1;
nodes = (
(403,-185,o),
(483,-130,o),
(483,-22,cs),
(483,77,o),
(417,125,o),
(281,125,cs),
(216,125,ls),
(156,125,o),
(131,132,o),
(131,149,cs),
(131,164,o),
(153,178,o),
(198,192,c),
(146,210,l),
(75,185,o),
(43,152,o),
(43,104,cs),
(43,39,o),
(101,0,o),
(199,0,cs),
(303,0,ls),
(364,0,o),
(391,-16,o),
(391,-51,cs),
(391,-96,o),
(344,-119,o),
(255,-119,cs),
(164,-119,o),
(123,-97,o),
(123,-48,cs),
(123,-17,o),
(139,-3,o),
(194,13,c),
(137,30,l),
(64,5,o),
(31,-28,o),
(31,-76,cs),
(31,-147,o),
(104,-185,o),
(240,-185,cs)
);
},
{
closed = 1;
nodes = (
(383,174,o),
(457,235,o),
(457,343,cs),
(457,451,o),
(383,512,o),
(251,512,cs),
(119,512,o),
(45,451,o),
(45,343,cs),
(45,235,o),
(119,174,o),
(251,174,cs)
);
},
{
closed = 1;
nodes = (
(215,240,o),
(196,275,o),
(196,344,cs),
(196,413,o),
(214,446,o),
(251,446,cs),
(288,446,o),
(306,413,o),
(306,344,cs),
(306,275,o),
(287,240,o),
(251,240,cs)
);
},
{
closed = 1;
nodes = (
(376,483,o),
(397,499,o),
(429,499,cs),
(449,499,o),
(460,495,o),
(474,483,c),
(503,567,l),
(487,580,o),
(469,586,o),
(447,586,cs),
(397,586,o),
(357,542,o),
(340,467,c),
(366,449,l)
);
}
);
userData = {
com.hugojourdan.ColorFlow = {
"0" = 0;
"1" = 0;
"10" = 0;
"11" = 0;
"2" = 0;
"3" = 0;
"4" = 0;
"5" = 0;
"6" = 0;
"7" = 0;
"8" = 0;
"9" = 0;
};
};
width = 508;
},
{
anchors = (
{
name = top;
pos = (248,490);
}
);
layerId = "BF6BA5B2-0556-42F4-A103-614BEBF16A1A";
metricRight = "=|-10";
shapes = (
{
closed = 1;
nodes = (
(383,-185,o),
(463,-131,o),
(463,-32,cs),
(463,48,o),
(405,94,o),
(291,94,cs),
(197,94,ls),
(146,94,o),
(119,108,o),
(119,136,cs),
(119,165,o),
(147,191,o),
(196,207,c),
(171,221,l),
(97,192,o),
(62,160,o),
(62,116,cs),
(62,53,o),
(120,16,o),
(208,16,cs),
(302,16,ls),
(374,16,o),
(402,-4,o),
(402,-52,cs),
(402,-116,o),
(349,-149,o),
(248,-149,cs),
(155,-149,o),
(109,-121,o),
(109,-63,cs),
(109,-24,o),
(129,4,o),
(167,22,c),
(141,37,l),
(79,12,o),
(48,-25,o),
(48,-76,cs),
(48,-147,o),
(114,-185,o),
(237,-185,cs)
);
},
{
closed = 1;
nodes = (
(362,178,o),
(435,240,o),
(435,339,cs),
(435,438,o),
(362,500,o),
(250,500,cs),
(138,500,o),
(67,438,o),
(67,339,cs),
(67,240,o),
(140,178,o),
(252,178,cs)
);
},
{
closed = 1;
nodes = (
(192,214,o),
(155,260,o),
(155,339,cs),
(155,418,o),
(192,464,o),
(251,464,cs),
(310,464,o),
(347,418,o),
(347,339,cs),
(347,260,o),
(310,214,o),
(251,214,cs)
);
},
{
closed = 1;
nodes = (
(349,494,o),
(375,515,o),
(417,515,cs),
(433,515,o),
(439,513,o),
(453,507,c),
(469,561,l),
(457,570,o),
(443,574,o),
(425,574,cs),
(373,574,o),
(338,540,o),
(315,467,c),
(331,440,l)
);
}
);
userData = {
com.hugojourdan.ColorFlow = {
"0" = 0;
"1" = 0;
"10" = 0;
"11" = 0;
"2" = 0;
"3" = 0;
"4" = 0;
"5" = 0;
"6" = 0;
"7" = 0;
"8" = 0;
"9" = 0;
};
};
width = 507;
},
{
associatedMasterId = "BF6BA5B2-0556-42F4-A103-614BEBF16A1A";
layerId = "11FD3800-E515-4D2D-81E3-B38A78A1B879";
name = "18 Jun 23 6.18 PM";
shapes = (
{
closed = 1;
nodes = (
(377,-185,o),
(456,-131,o),
(456,-31,cs),
(456,59,o),
(395,100,o),
(259,100,cs),
(187,100,ls),
(150,100,o),
(124,119,o),
(124,146,cs),
(124,173,o),
(150,192,o),
(187,192,cs),
(245,192,l),
(245,215,l),
(186,215,ls),
(100,215,o),
(55,182,o),
(55,120,cs),
(55,52,o),
(108,15,o),
(203,15,cs),
(300,15,ls),
(367,15,o),
(395,-5,o),
(395,-53,cs),
(395,-116,o),
(343,-148,o),
(237,-148,cs),
(135,-148,o),
(82,-118,o),
(82,-62,cs),
(82,-22,o),
(108,6,o),
(158,20,c),
(132,35,l),
(71,10,o),
(41,-26,o),
(41,-76,cs),
(41,-148,o),
(105,-185,o),
(229,-185,cs)
);
},
{
closed = 1;
nodes = (
(355,192,o),
(428,254,o),
(428,347,cs),
(428,440,o),
(355,500,o),
(243,500,cs),
(131,500,o),
(60,441,o),
(60,348,cs),
(60,254,o),
(133,192,o),
(245,192,cs)
);
},
{
closed = 1;
nodes = (
(185,228,o),
(148,273,o),
(148,347,cs),
(148,420,o),
(184,464,o),
(245,464,cs),
(305,464,o),
(340,421,o),
(340,347,cs),
(340,272,o),
(305,228,o),
(245,228,cs)
);
},
{
closed = 1;
nodes = (
(416,450,o),
(426,462,o),
(447,462,cs),
(458,462,o),
(469,458,o),
(480,450,c),
(494,511,l),
(481,517,o),
(468,520,o),
(455,520,cs),
(413,520,o),
(388,487,o),
(387,428,c),
(406,412,l)
);
}
);
userData = {
com.hugojourdan.ColorFlow = {
"0" = 0;
"1" = 0;
"10" = 0;
"11" = 0;
"2" = 0;
"3" = 0;
"4" = 0;
"5" = 0;
"6" = 0;
"7" = 0;
"8" = 0;
"9" = 0;
};
};
width = 493;
},
{
associatedMasterId = "FF73925E-1E34-445B-881D-5A7CAAA8E8BE";
layerId = "5804F070-0F47-4DA4-BC1A-DADF32208D95";
name = "18 Jun 23 6.18 PM";
shapes = (
{
closed = 1;
nodes = (
(394,-185,o),
(480,-131,o),
(480,-27,cs),
(480,80,o),
(390,130,o),
(290,130,cs),
(186,130,ls),
(158,130,o),
(138,142,o),
(138,158,cs),
(138,174,o),
(158,184,o),
(186,184,cs),
(248,184,l),
(248,223,l),
(174,223,ls),
(93,223,o),
(40,178,o),
(40,108,cs),
(40,35,o),
(96,-17,o),
(175,-17,cs),
(310,-17,ls),
(373,-17,o),
(395,-29,o),
(395,-60,cs),
(395,-107,o),
(346,-129,o),
(241,-129,cs),
(139,-129,o),
(86,-108,o),
(86,-67,cs),
(86,-40,o),
(109,-19,o),
(155,-7,c),
(126,21,l),
(61,-2,o),
(28,-38,o),
(28,-84,cs),
(28,-151,o),
(96,-185,o),
(228,-185,cs)
);
},
{
closed = 1;
nodes = (
(380,184,o),
(454,243,o),
(454,347,cs),
(454,451,o),
(380,510,o),
(248,510,cs),
(116,510,o),
(42,451,o),
(42,347,cs),
(42,243,o),
(116,184,o),
(248,184,cs)
);
},
{
closed = 1;
nodes = (
(213,258,o),
(193,290,o),
(193,348,cs),
(193,404,o),
(213,436,o),
(248,436,cs),
(283,436,o),
(303,404,o),
(303,348,cs),
(303,290,o),
(283,258,o),
(248,258,cs)
);
},
{
closed = 1;
nodes = (
(422,441,o),
(445,455,o),
(471,455,cs),
(484,455,o),
(496,451,o),
(502,444,c),
(533,521,l),
(516,534,o),
(495,540,o),
(476,540,cs),
(428,540,o),
(398,502,o),
(390,438,c),
(414,421,l)
);
}
);
userData = {
com.hugojourdan.ColorFlow = {
"0" = 0;
"1" = 0;
"10" = 0;
"11" = 0;
"2" = 0;
"3" = 0;
"4" = 0;
"5" = 0;
"6" = 0;
"7" = 0;
"8" = 0;
"9" = 0;
};
};
width = 508;
},
{
associatedMasterId = m01;
layerId = "E5CC4AAE-887B-4D4E-A4A8-5F3359F683DA";
name = "18 Jun 23 6.35 PM";
shapes = (
{
closed = 1;
nodes = (
(367,-185,o),
(441,-130,o),
(441,-31,cs),
(441,47,o),
(395,86,o),
(302,86,cs),
(175,86,ls),
(133,86,o),
(107,110,o),
(107,144,cs),
(107,172,o),
(124,190,o),
(165,205,c),
(147,214,l),
(92,195,o),
(65,166,o),
(65,125,cs),
(65,71,o),
(108,38,o),
(177,38,cs),
(294,38,ls),
(368,38,o),
(399,13,o),
(399,-45,cs),
(399,-121,o),
(344,-159,o),
(234,-159,cs),
(132,-159,o),
(79,-122,o),
(79,-58,cs),
(79,-14,o),
(105,17,o),
(157,40,c),
(139,49,l),
(80,23,o),
(50,-14,o),
(50,-66,cs),
(50,-142,o),
(113,-185,o),
(232,-185,cs)
);
},
{
closed = 1;
nodes = (
(347,186,o),
(412,245,o),
(412,338,cs),
(412,431,o),
(347,490,o),
(243,490,cs),
(138,490,o),
(72,431,o),
(72,338,cs),
(72,245,o),
(138,186,o),
(243,186,cs)
);
},
{
closed = 1;
nodes = (
(167,212,o),
(120,261,o),
(120,338,cs),
(120,415,o),
(167,464,o),
(243,464,cs),
(317,464,o),
(364,415,o),
(364,338,cs),
(364,261,o),
(317,212,o),
(243,212,cs)
);
},
{
closed = 1;
nodes = (
(396,442,o),
(421,468,o),
(447,468,cs),
(454,468,o),
(461,466,o),
(472,461,c),
(483,502,l),
(472,508,o),
(461,510,o),
(451,510,cs),
(411,510,o),
(383,477,o),
(375,423,c),
(390,409,l)
);
}
);
userData = {
com.hugojourdan.ColorFlow = {
"0" = 0;
"1" = 0;
"10" = 0;
"11" = 0;
"2" = 0;
"3" = 0;
"4" = 0;
"5" = 0;
"6" = 0;
"7" = 0;
"8" = 0;
"9" = 0;
};
};
width = 485;
},
{
anchors = (
{
name = top;
pos = (256,478);
}
);
layerId = m01;
metricRight = "=|-4";
name = "Moderat ExtraLight";
shapes = (
{
closed = 1;
nodes = (
(380,-185,o),
(454,-130,o),
(454,-31,cs),
(454,44,o),
(405,81,o),
(305,81,cs),
(188,81,ls),
(141,81,o),
(119,104,o),
(119,141,cs),
(119,169,o),
(136,188,o),
(178,203,c),
(160,215,l),
(105,195,o),
(78,166,o),
(78,124,cs),
(78,71,o),
(121,39,o),
(190,39,cs),
(307,39,ls),
(383,39,o),
(409,14,o),
(409,-44,cs),
(409,-120,o),
(355,-159,o),
(253,-159,cs),
(158,-159,o),
(109,-125,o),
(109,-57,cs),
(109,-14,o),
(129,17,o),
(170,40,c),
(152,52,l),
(92,25,o),
(63,-14,o),
(63,-66,cs),
(63,-143,o),
(127,-185,o),
(245,-185,cs)
);
},
{
closed = 1;
nodes = (
(360,178,o),
(425,238,o),
(425,333,cs),
(425,428,o),
(360,488,o),
(256,488,cs),
(151,488,o),
(85,428,o),
(85,333,cs),
(85,238,o),
(151,178,o),
(256,178,cs)
);
},
{
closed = 1;
nodes = (
(180,204,o),
(133,254,o),
(133,333,cs),
(133,412,o),
(180,462,o),
(256,462,cs),
(330,462,o),
(377,412,o),
(377,333,cs),
(377,254,o),
(330,204,o),
(256,204,cs)
);
},
{
closed = 1;
nodes = (
(354,504,o),
(372,521,o),
(406,521,cs),
(418,521,o),
(426,519,o),
(443,514,c),
(454,554,l),
(443,559,o),
(433,562,o),
(419,562,cs),
(375,562,o),
(345,534,o),
(325,471,c),
(338,453,l)
);
}
);
userData = {
com.hugojourdan.ColorFlow = {
"0" = 0;
"1" = 0;
"10" = 0;
"11" = 0;
"2" = 0;
"3" = 0;
"4" = 0;
"5" = 0;
"6" = 0;
"7" = 0;
"8" = 0;
"9" = 0;
};
};
width = 513;
},
{
anchors = (
{
name = top;
pos = (301,478);
}
);
layerId = "D2741A44-CB8E-4434-9CC9-735A9A127F4C";
metricRight = "=|-4";
shapes = (
{
closed = 1;
nodes = (
(334,-185,o),
(406,-125,o),
(406,-34,cs),
(406,42,o),
(352,81,o),
(245,81,cs),
(189,81,ls),
(131,81,o),
(104,101,o),
(104,140,cs),
(104,176,o),
(126,198,o),
(174,210,c),
(160,223,l),
(96,207,o),
(62,174,o),
(62,126,cs),
(62,74,o),
(109,39,o),
(193,39,cs),
(250,39,ls),
(329,39,o),
(359,17,o),
(359,-39,cs),
(359,-115,o),
(303,-158,o),
(204,-158,cs),
(111,-158,o),
(60,-121,o),
(60,-52,cs),
(60,-7,o),
(83,23,o),
(138,48,c),
(122,61,l),
(52,33,o),
(14,-10,o),
(14,-63,cs),
(14,-137,o),
(88,-185,o),
(202,-185,cs)
);
},
{
closed = 1;
nodes = (
(376,178,o),
(442,253,o),
(442,348,cs),
(442,432,o),
(380,488,o),
(276,488,cs),
(168,488,o),
(102,413,o),
(102,318,cs),
(102,234,o),
(164,178,o),
(268,178,cs)
);
},
{
closed = 1;
nodes = (
(193,204,o),
(150,247,o),
(150,320,cs),
(150,411,o),
(204,462,o),
(279,462,cs),
(351,462,o),
(394,420,o),
(394,347,cs),
(394,256,o),
(340,204,o),
(265,204,cs)
);
},
{
closed = 1;
nodes = (
(395,492,o),
(414,508,o),
(444,508,cs),
(460,508,o),
(468,505,o),
(485,498,c),
(504,537,l),
(491,543,o),
(479,547,o),
(460,547,cs),
(422,547,o),
(390,522,o),
(362,465,c),
(372,446,l)
);
}
);
userData = {
com.hugojourdan.ColorFlow = {
"0" = 0;
"1" = 0;
"10" = 0;
"11" = 0;
"2" = 0;
"3" = 0;
"4" = 0;
"5" = 0;
"6" = 0;
"7" = 0;
"8" = 0;
"9" = 0;
};
};
width = 513;
},
{
anchors = (
{
name = top;
pos = (298,490);
}
);
background = {
guides = (
{
angle = 80.5;
pos = (463,245);
},
{
angle = 80.5;
pos = (109,245);
},
{
angle = 80.5;
pos = (402,245);
},
{
angle = 80.5;
pos = (62,245);
},
{
angle = 80.5;
pos = (119,245);
},
{
angle = 80.5;
pos = (48,245);
},
{
angle = 80.5;
pos = (67,245);
},
{
angle = 80.5;
pos = (155,245);
},
{
angle = 80.5;
pos = (435,245);
},
{
angle = 80.5;
pos = (347,245);
}
);
shapes = (
{
closed = 1;
nodes = (
(361,178,o),
(434,234,o),
(449,325,cs),
(451,336,o),
(452,346,o),
(452,356,cs),
(452,444,o),
(382,501,o),
(270,501,cs),
(171,501,o),
(101,447,o),
(86,356,cs),
(84,346,o),
(83,336,o),
(83,326,cs),
(83,239,o),
(152,178,o),
(264,178,cs)
);
},
{
closed = 1;
nodes = (
(201,215,o),
(169,252,o),
(169,313,cs),
(169,324,o),
(170,336,o),
(172,348,cs),
(184,421,o),
(225,464,o),
(280,464,cs),
(336,464,o),
(366,427,o),
(366,366,cs),
(366,356,o),
(365,344,o),
(363,332,cs),
(350,257,o),
(310,215,o),
(257,215,cs)
);
}
);
};
layerId = "0B63B416-D10E-4459-8DAA-360BF3D1BFD2";
metricRight = "=|-10";
shapes = (
{
closed = 1;
nodes = (
(341,-185,o),
(415,-124,o),
(415,-30,cs),
(415,53,o),
(352,94,o),
(223,94,cs),
(173,94,ls),
(129,94,o),
(102,111,o),
(102,139,cs),
(102,172,o),
(135,199,o),
(191,212,c),
(168,228,l),
(81,202,o),
(42,168,o),
(42,117,cs),
(42,56,o),
(99,16,o),
(186,16,cs),
(236,16,ls),
(321,16,o),
(352,-2,o),
(352,-49,cs),
(352,-111,o),
(299,-149,o),
(203,-149,cs),
(116,-149,o),
(59,-118,o),
(59,-61,cs),
(59,-22,o),
(85,13,o),
(131,30,c),
(108,47,l),
(42,24,o),
(-3,-12,o),
(-3,-66,cs),
(-3,-138,o),
(81,-185,o),
(198,-185,cs)
);
},
{
closed = 1;
nodes = (
(386,178,o),
(451,265,o),
(451,355,cs),
(451,443,o),
(383,500,o),
(271,500,cs),
(148,500,o),
(83,414,o),
(83,324,cs),
(83,236,o),
(151,178,o),
(263,178,cs)
);
},
{
closed = 1;
nodes = (
(198,214,o),
(170,251,o),
(170,313,cs),
(170,369,o),
(194,464,o),
(278,464,cs),
(336,464,o),
(364,427,o),
(364,365,cs),
(364,309,o),
(340,214,o),
(256,214,cs)
);
},
{
closed = 1;
nodes = (
(386,482,o),
(414,501,o),
(453,501,cs),
(466,501,o),
(475,499,o),
(493,491,c),
(519,542,l),
(506,553,o),
(491,559,o),
(468,559,cs),
(421,559,o),
(383,528,o),
(350,461,c),
(362,433,l)
);
}
);
userData = {
com.hugojourdan.ColorFlow = {
"0" = 0;
"1" = 0;
"10" = 0;
"11" = 0;
"2" = 0;
"3" = 0;
"4" = 0;
"5" = 0;
"6" = 0;
"7" = 0;
"8" = 0;
"9" = 0;
};
};
width = 507;
},
{
anchors = (
{
name = top;
pos = (299,502);
}
);
guides = (
{
angle = 80.5;
pos = (31,251);
},
{
angle = 80.5;
pos = (45,251);
},
{
angle = 80.5;
pos = (457,251);
},
{
angle = 80.5;
pos = (196,251);
},
{
angle = 80.5;
pos = (306,251);
}
);
layerId = "EE3858F4-A475-4EBA-A8F4-31CE9F38567C";
shapes = (
{
closed = 1;
nodes = (
(350,-185,o),
(436,-122,o),
(436,-16,cs),
(436,80,o),
(366,125,o),
(219,125,cs),
(165,125,ls),
(133,125,o),
(115,134,o),
(115,152,cs),
(115,171,o),
(137,184,o),
(189,196,c),
(140,218,l),
(63,200,o),
(21,162,o),
(21,108,cs),
(21,42,o),
(84,0,o),
(185,0,cs),
(237,0,ls),
(306,0,o),
(339,-17,o),
(339,-52,cs),
(339,-95,o),
(290,-119,o),
(209,-119,cs),
(124,-119,o),
(74,-92,o),
(74,-47,cs),
(74,-14,o),
(101,7,o),
(157,18,c),
(102,39,l),
(21,20,o),
(-21,-16,o),
(-21,-67,cs),
(-21,-139,o),
(63,-185,o),
(195,-185,cs)
);
},
{
closed = 1;
nodes = (
(397,174,o),
(473,245,o),
(473,360,cs),
(473,475,o),
(367,512,o),
(262,512,cs),
(137,512,o),
(61,441,o),
(61,326,cs),
(61,211,o),
(167,174,o),
(272,174,cs)
);
},
{
closed = 1;
nodes = (
(223,240,o),
(208,262,o),
(208,305,cs),
(208,342,o),
(220,446,o),
(281,446,cs),
(309,446,o),
(324,424,o),
(324,381,cs),
(324,344,o),
(312,240,o),
(251,240,cs)
);
},
{
closed = 1;
nodes = (
(411,471,o),
(432,485,o),
(461,485,cs),
(485,485,o),
(498,479,o),
(511,465,c),
(552,546,l),
(538,561,o),
(517,570,o),
(492,570,cs),
(446,570,o),
(402,530,o),
(374,460,c),
(397,440,l)
);
}
);
userData = {
com.hugojourdan.ColorFlow = {
"0" = 0;
"1" = 0;
"10" = 0;
"11" = 0;
"2" = 0;
"3" = 0;
"4" = 0;
"5" = 0;
"6" = 0;
"7" = 0;
"8" = 0;
"9" = 0;
};
};
width = 508;
}
);
metricLeft = "=s*1.34";
metricRight = "=|-26";
note = g;
unicode = 103;
},
